<?xml version="1.0" encoding="UTF-8"?>
<!DOCTYPE svg PUBLIC "-//W3C//DTD SVG 1.1//EN" "http://www.w3.org/Graphics/SVG/1.1/DTD/svg11.dtd">
<svg xmlns="http://www.w3.org/2000/svg" version="1.1" width="500px" height="500px" style="shape-rendering:geometricPrecision; text-rendering:geometricPrecision; image-rendering:optimizeQuality; fill-rule:evenodd; clip-rule:evenodd" xmlns:xlink="http://www.w3.org/1999/xlink">
<g><path style="opacity:0.984" fill="#653837" d="M 331.5,196.5 C 330.833,197.167 330.167,197.833 329.5,198.5C 327.5,198.5 325.5,198.5 323.5,198.5C 323.665,202.182 323.499,205.848 323,209.5C 316.757,213.694 309.923,216.527 302.5,218C 306.342,221.857 309.008,226.357 310.5,231.5C 310.187,235.042 310.521,238.375 311.5,241.5C 311.157,243.483 311.824,244.817 313.5,245.5C 313.5,245.833 313.5,246.167 313.5,246.5C 313.047,247.458 312.381,248.292 311.5,249C 307.741,248.912 304.075,249.079 300.5,249.5C 298.389,250.742 296.389,250.742 294.5,249.5C 299.275,247.853 304.275,247.186 309.5,247.5C 309.572,241.455 309.072,235.455 308,229.5C 307.392,227.934 306.558,226.6 305.5,225.5C 305.5,224.833 305.167,224.5 304.5,224.5C 303.627,222.114 302.127,220.114 300,218.5C 298.088,220.657 296.421,222.991 295,225.5C 294.066,233.476 293.566,241.476 293.5,249.5C 292.598,246.017 291.932,242.35 291.5,238.5C 293.181,234.399 293.848,230.065 293.5,225.5C 294.172,222.658 295.506,220.158 297.5,218C 291.514,216.592 286.348,213.758 282,209.5C 282.083,205.689 281.25,202.355 279.5,199.5C 278.391,199.443 277.391,199.11 276.5,198.5C 263.852,196.185 253.852,189.852 246.5,179.5C 240.845,178.587 235.512,176.753 230.5,174C 220.172,163.76 220.338,153.594 231,143.5C 232.905,126.5 233.905,109.5 234,92.5C 242.112,70.3444 257.445,62.3444 280,68.5C 288.858,57.2407 300.525,51.9074 315,52.5C 336.799,53.5768 355.799,61.2434 372,75.5C 389.632,70.3779 403.965,75.0445 415,89.5C 421.194,99.4665 422.86,110.133 420,121.5C 417.285,129.931 414.285,138.265 411,146.5C 408.213,156.777 407.88,167.11 410,177.5C 412,181.999 415.167,185.332 419.5,187.5C 411.397,191.886 402.73,193.386 393.5,192C 388.062,189.592 382.396,187.926 376.5,187C 372.591,185.218 369.258,182.718 366.5,179.5C 359.498,176.989 354.498,178.989 351.5,185.5C 345.699,190.734 339.033,194.4 331.5,196.5 Z"/></g>
<g><path style="opacity:1" fill="#ac3a3f" d="M 360.5,70.5 C 363.987,71.7454 366.987,73.7454 369.5,76.5C 379.334,86.1588 383.5,97.8254 382,111.5C 381.529,113.246 380.862,114.913 380,116.5C 379.832,126.184 379.332,135.851 378.5,145.5C 371.2,141.023 363.534,140.356 355.5,143.5C 355.167,139.5 354.833,135.5 354.5,131.5C 350.095,131.97 346.095,130.97 342.5,128.5C 341.833,128.167 341.167,127.833 340.5,127.5C 336.582,123.664 334.249,118.998 333.5,113.5C 335.12,114.841 336.12,116.674 336.5,119C 337.76,120.113 338.927,120.28 340,119.5C 340.884,122.253 342.717,123.919 345.5,124.5C 356.832,122.917 367.832,120.25 378.5,116.5C 380.042,112.86 380.709,109.027 380.5,105C 380.478,101.914 380.145,98.9136 379.5,96C 378.5,95.5 377.5,95 376.5,94.5C 347.521,100.288 319.188,98.1213 291.5,88C 285.944,84.6042 280.277,81.4376 274.5,78.5C 271.833,76.5 269.5,74.1667 267.5,71.5C 265.257,70.5258 262.924,70.1924 260.5,70.5C 267.501,69.2322 274.334,70.2322 281,73.5C 284.48,73.0192 286.147,71.0192 286,67.5C 293.025,60.0704 301.692,56.4037 312,56.5C 319.871,56.9406 327.705,57.7739 335.5,59C 344.258,62.1839 352.591,66.0172 360.5,70.5 Z"/></g>
<g><path style="opacity:1" fill="#993e43" d="M 360.5,70.5 C 352.591,66.0172 344.258,62.1839 335.5,59C 327.705,57.7739 319.871,56.9406 312,56.5C 301.692,56.4037 293.025,60.0704 286,67.5C 286.147,71.0192 284.48,73.0192 281,73.5C 274.334,70.2322 267.501,69.2322 260.5,70.5C 258.435,70.5172 256.435,70.8505 254.5,71.5C 255.347,70.0337 256.68,69.2004 258.5,69C 266.304,67.85 273.804,68.6833 281,71.5C 288.206,59.8124 298.706,54.4791 312.5,55.5C 330.794,54.1587 346.794,59.1587 360.5,70.5 Z"/></g>
<g><path style="opacity:1" fill="#aa3a3f" d="M 370.5,176.5 C 379.204,173.957 383.537,168.124 383.5,159C 382.001,150.617 381.334,142.117 381.5,133.5C 382.054,121.433 382.887,109.433 384,97.5C 383.747,94.2104 382.747,91.2104 381,88.5C 378.48,84.7757 375.98,81.1091 373.5,77.5C 395.08,73.0393 409.913,81.0393 418,101.5C 419.157,111.195 418.324,120.695 415.5,130C 406.671,145.151 404.171,161.317 408,178.5C 409.442,182.275 411.942,185.108 415.5,187C 413.089,188.583 410.422,189.583 407.5,190C 402.167,190.667 396.833,190.667 391.5,190C 389.833,189 388.167,188 386.5,187C 378.908,187.204 372.908,184.204 368.5,178C 369.416,177.722 370.082,177.222 370.5,176.5 Z"/></g>
<g><path style="opacity:1" fill="#bd3f44" d="M 260.5,70.5 C 262.924,70.1924 265.257,70.5258 267.5,71.5C 269.5,74.1667 271.833,76.5 274.5,78.5C 280.277,81.4376 285.944,84.6042 291.5,88C 319.188,98.1213 347.521,100.288 376.5,94.5C 377.5,95 378.5,95.5 379.5,96C 380.145,98.9136 380.478,101.914 380.5,105C 380.709,109.027 380.042,112.86 378.5,116.5C 367.832,120.25 356.832,122.917 345.5,124.5C 342.717,123.919 340.884,122.253 340,119.5C 338.927,120.28 337.76,120.113 336.5,119C 336.12,116.674 335.12,114.841 333.5,113.5C 323.251,114.269 313.251,113.102 303.5,110C 295.747,105.671 289.914,99.5048 286,91.5C 281.924,104.517 285.757,114.35 297.5,121C 286.937,121.966 279.771,117.466 276,107.5C 274.809,102.233 274.309,96.8993 274.5,91.5C 267.098,92.8677 260.431,95.8677 254.5,100.5C 254.043,102.598 253.043,104.264 251.5,105.5C 246.857,104.093 242.69,101.76 239,98.5C 238.125,97.1268 237.625,95.6268 237.5,94C 238.86,91.7298 239.527,89.2298 239.5,86.5C 242.141,79.1925 247.141,74.1925 254.5,71.5C 256.435,70.8505 258.435,70.5172 260.5,70.5 Z"/></g>
<g><path style="opacity:1" fill="#d6747a" d="M 292.5,123.5 C 277.367,123.368 269.367,115.701 268.5,100.5C 260.858,102.464 254.858,106.797 250.5,113.5C 250.5,112.167 250.5,110.833 250.5,109.5C 253.489,105.703 256.822,102.203 260.5,99C 264.015,96.217 268.015,94.717 272.5,94.5C 271.456,109.748 278.123,119.415 292.5,123.5 Z"/></g>
<g><path style="opacity:1" fill="#aa3b40" d="M 239.5,86.5 C 239.527,89.2298 238.86,91.7298 237.5,94C 237.625,95.6268 238.125,97.1268 239,98.5C 242.69,101.76 246.857,104.093 251.5,105.5C 250.766,106.708 250.433,108.041 250.5,109.5C 248.932,111.811 248.098,114.478 248,117.5C 247.667,124.833 247.333,132.167 247,139.5C 246.5,140 246,140.5 245.5,141C 241.848,141.499 238.182,141.665 234.5,141.5C 235.248,134.191 235.582,126.858 235.5,119.5C 235.334,111.16 235.5,102.827 236,94.5C 236.322,91.3337 237.489,88.667 239.5,86.5 Z"/></g>
<g><path style="opacity:1" fill="#d9747a" d="M 336.5,125.5 C 333.5,125.5 330.5,125.5 327.5,125.5C 328.398,124.842 329.398,124.176 330.5,123.5C 329.754,122.264 329.421,120.93 329.5,119.5C 317.825,120.664 306.825,118.497 296.5,113C 293.679,111.178 291.179,109.011 289,106.5C 288.536,107.094 288.369,107.761 288.5,108.5C 286.621,105.144 286.121,101.477 287,97.5C 293.342,106.933 302.175,112.766 313.5,115C 319.5,115.333 325.5,115.667 331.5,116C 333.307,119.115 334.973,122.281 336.5,125.5 Z"/></g>
<g><path style="opacity:1" fill="#fa9296" d="M 292.5,123.5 C 297.297,123.879 301.964,123.379 306.5,122C 298.034,120.618 292.034,116.118 288.5,108.5C 288.369,107.761 288.536,107.094 289,106.5C 291.179,109.011 293.679,111.178 296.5,113C 306.825,118.497 317.825,120.664 329.5,119.5C 329.421,120.93 329.754,122.264 330.5,123.5C 329.398,124.176 328.398,124.842 327.5,125.5C 323.22,127.353 322.387,130.353 325,134.5C 329.141,138.503 333.974,139.503 339.5,137.5C 341.592,135.211 341.926,132.711 340.5,130C 341.094,129.536 341.761,129.369 342.5,129.5C 343.347,130.966 344.68,131.8 346.5,132C 348.81,132.497 351.143,132.663 353.5,132.5C 354.143,146.824 354.476,161.158 354.5,175.5C 354.672,176.492 354.338,177.158 353.5,177.5C 353.5,174.167 353.5,170.833 353.5,167.5C 333.318,164.516 323.818,173.183 325,193.5C 325.725,194.059 326.558,194.392 327.5,194.5C 330.13,193.622 332.797,192.955 335.5,192.5C 330.494,194.928 325.161,196.762 319.5,198C 308.149,199.55 296.816,199.716 285.5,198.5C 285.586,197.504 285.252,196.671 284.5,196C 281.086,195.703 277.753,195.036 274.5,194C 276.885,185.041 274.552,177.541 267.5,171.5C 261.552,167.432 255.219,165.765 248.5,166.5C 248.5,160.833 248.5,155.167 248.5,149.5C 248.745,137.475 249.411,125.475 250.5,113.5C 254.858,106.797 260.858,102.464 268.5,100.5C 269.367,115.701 277.367,123.368 292.5,123.5 Z"/></g>
<g><path style="opacity:0.969" fill="#72292a" d="M 333.5,113.5 C 334.249,118.998 336.582,123.664 340.5,127.5C 338.938,127.267 337.605,126.6 336.5,125.5C 334.973,122.281 333.307,119.115 331.5,116C 325.5,115.667 319.5,115.333 313.5,115C 302.175,112.766 293.342,106.933 287,97.5C 286.121,101.477 286.621,105.144 288.5,108.5C 292.034,116.118 298.034,120.618 306.5,122C 301.964,123.379 297.297,123.879 292.5,123.5C 278.123,119.415 271.456,109.748 272.5,94.5C 268.015,94.717 264.015,96.217 260.5,99C 256.822,102.203 253.489,105.703 250.5,109.5C 250.433,108.041 250.766,106.708 251.5,105.5C 253.043,104.264 254.043,102.598 254.5,100.5C 260.431,95.8677 267.098,92.8677 274.5,91.5C 274.309,96.8993 274.809,102.233 276,107.5C 279.771,117.466 286.937,121.966 297.5,121C 285.757,114.35 281.924,104.517 286,91.5C 289.914,99.5048 295.747,105.671 303.5,110C 313.251,113.102 323.251,114.269 333.5,113.5 Z"/></g>
<g><path style="opacity:1" fill="#5e2c31" d="M 327.5,125.5 C 330.5,125.5 333.5,125.5 336.5,125.5C 337.605,126.6 338.938,127.267 340.5,127.5C 341.167,127.833 341.833,128.167 342.5,128.5C 342.5,128.833 342.5,129.167 342.5,129.5C 341.761,129.369 341.094,129.536 340.5,130C 341.926,132.711 341.592,135.211 339.5,137.5C 333.974,139.503 329.141,138.503 325,134.5C 322.387,130.353 323.22,127.353 327.5,125.5 Z"/></g>
<g><path style="opacity:1" fill="#602e32" d="M 262.5,125.5 C 266.459,125.071 269.959,126.071 273,128.5C 273.636,135.539 270.303,139.206 263,139.5C 257.709,139.219 255.375,136.552 256,131.5C 258.063,129.266 260.229,127.266 262.5,125.5 Z"/></g>
<g><path style="opacity:0.996" fill="#6b292a" d="M 250.5,109.5 C 250.5,110.833 250.5,112.167 250.5,113.5C 249.411,125.475 248.745,137.475 248.5,149.5C 247.012,158.684 246.679,168.017 247.5,177.5C 246.508,177.672 245.842,177.338 245.5,176.5C 245.483,174.435 245.15,172.435 244.5,170.5C 245.074,164.516 245.407,158.516 245.5,152.5C 246.477,149.713 246.81,146.713 246.5,143.5C 242.102,143.294 237.768,143.627 233.5,144.5C 233.157,135.938 233.824,127.605 235.5,119.5C 235.582,126.858 235.248,134.191 234.5,141.5C 238.182,141.665 241.848,141.499 245.5,141C 246,140.5 246.5,140 247,139.5C 247.333,132.167 247.667,124.833 248,117.5C 248.098,114.478 248.932,111.811 250.5,109.5 Z"/></g>
<g><path style="opacity:1" fill="#692728" d="M 369.5,76.5 C 370.833,76.8333 372.167,77.1667 373.5,77.5C 375.98,81.1091 378.48,84.7757 381,88.5C 382.747,91.2104 383.747,94.2104 384,97.5C 382.887,109.433 382.054,121.433 381.5,133.5C 381.334,142.117 382.001,150.617 383.5,159C 383.537,168.124 379.204,173.957 370.5,176.5C 369.833,176.5 369.5,176.167 369.5,175.5C 381.255,170.655 384.755,162.322 380,150.5C 373.73,143.388 366.23,141.721 357.5,145.5C 356.513,148.768 356.18,152.102 356.5,155.5C 357.254,160.463 357.587,165.463 357.5,170.5C 357.737,171.791 357.404,172.791 356.5,173.5C 356.565,173.062 356.399,172.728 356,172.5C 355.768,173.737 355.268,174.737 354.5,175.5C 354.476,161.158 354.143,146.824 353.5,132.5C 351.143,132.663 348.81,132.497 346.5,132C 344.68,131.8 343.347,130.966 342.5,129.5C 342.5,129.167 342.5,128.833 342.5,128.5C 346.095,130.97 350.095,131.97 354.5,131.5C 354.833,135.5 355.167,139.5 355.5,143.5C 363.534,140.356 371.2,141.023 378.5,145.5C 379.332,135.851 379.832,126.184 380,116.5C 380.862,114.913 381.529,113.246 382,111.5C 383.5,97.8254 379.334,86.1588 369.5,76.5 Z"/></g>
<g><path style="opacity:1" fill="#f69196" d="M 369.5,175.5 C 365.215,176.295 360.881,176.628 356.5,176.5C 356.5,175.5 356.5,174.5 356.5,173.5C 357.404,172.791 357.737,171.791 357.5,170.5C 361.79,170.802 365.79,170.136 369.5,168.5C 374.106,166.181 375.606,162.515 374,157.5C 371.317,152.074 367.15,150.407 361.5,152.5C 359.668,153.248 358.001,154.248 356.5,155.5C 356.18,152.102 356.513,148.768 357.5,145.5C 366.23,141.721 373.73,143.388 380,150.5C 384.755,162.322 381.255,170.655 369.5,175.5 Z"/></g>
<g><path style="opacity:1" fill="#f69195" d="M 245.5,152.5 C 243.021,151.377 240.688,151.377 238.5,152.5C 231.526,156.869 230.859,162.036 236.5,168C 238.025,169.009 239.692,169.509 241.5,169.5C 242.209,170.404 243.209,170.737 244.5,170.5C 245.15,172.435 245.483,174.435 245.5,176.5C 230.798,175.64 224.298,167.973 226,153.5C 227.642,149.7 230.142,146.7 233.5,144.5C 237.768,143.627 242.102,143.294 246.5,143.5C 246.81,146.713 246.477,149.713 245.5,152.5 Z"/></g>
<g><path style="opacity:1" fill="#f9f2f3" d="M 277.5,147.5 C 277.833,148.167 278.167,148.833 278.5,149.5C 277.661,154.668 275.161,155.668 271,152.5C 269.861,146.741 272.028,145.074 277.5,147.5 Z"/></g>
<g><path style="opacity:1" fill="#823638" d="M 369.5,168.5 C 369.062,168.565 368.728,168.399 368.5,168C 373.769,163.161 373.769,158.495 368.5,154C 365.964,153.814 363.631,153.314 361.5,152.5C 367.15,150.407 371.317,152.074 374,157.5C 375.606,162.515 374.106,166.181 369.5,168.5 Z"/></g>
<g><path style="opacity:1" fill="#5a2f34" d="M 277.5,145.5 C 277.5,146.167 277.5,146.833 277.5,147.5C 272.028,145.074 269.861,146.741 271,152.5C 275.161,155.668 277.661,154.668 278.5,149.5C 280.026,150.492 280.693,151.992 280.5,154C 280.488,158.74 278.822,162.74 275.5,166C 269.569,167.925 265.402,166.092 263,160.5C 262.764,156.661 261.931,152.994 260.5,149.5C 263.003,147.167 265.669,145.001 268.5,143C 272.034,142.136 275.034,142.969 277.5,145.5 Z"/></g>
<g><path style="opacity:1" fill="#dd7279" d="M 361.5,152.5 C 363.631,153.314 365.964,153.814 368.5,154C 373.769,158.495 373.769,163.161 368.5,168C 368.728,168.399 369.062,168.565 369.5,168.5C 365.79,170.136 361.79,170.802 357.5,170.5C 357.587,165.463 357.254,160.463 356.5,155.5C 358.001,154.248 359.668,153.248 361.5,152.5 Z"/></g>
<g><path style="opacity:1" fill="#7d3234" d="M 293.5,159.5 C 296.518,159.335 299.518,159.502 302.5,160C 305.089,161.025 306.255,162.858 306,165.5C 301.281,160.634 296.281,160.301 291,164.5C 291.058,162.565 291.891,160.898 293.5,159.5 Z"/></g>
<g><path style="opacity:1" fill="#da7278" d="M 238.5,152.5 C 240.688,151.377 243.021,151.377 245.5,152.5C 245.407,158.516 245.074,164.516 244.5,170.5C 243.209,170.737 242.209,170.404 241.5,169.5C 240.754,168.465 239.254,167.465 237,166.5C 233.075,160.701 234.241,156.201 240.5,153C 239.906,152.536 239.239,152.369 238.5,152.5 Z"/></g>
<g><path style="opacity:1" fill="#893a3d" d="M 238.5,152.5 C 239.239,152.369 239.906,152.536 240.5,153C 234.241,156.201 233.075,160.701 237,166.5C 239.254,167.465 240.754,168.465 241.5,169.5C 239.692,169.509 238.025,169.009 236.5,168C 230.859,162.036 231.526,156.869 238.5,152.5 Z"/></g>
<g><path style="opacity:1" fill="#6b2d31" d="M 277.5,145.5 C 279.888,146.219 281.388,147.885 282,150.5C 282.937,155.403 282.27,160.07 280,164.5C 271.525,170.922 265.192,169.255 261,159.5C 260.503,157.19 260.337,154.857 260.5,152.5C 255.233,151.562 255.233,150.562 260.5,149.5C 261.931,152.994 262.764,156.661 263,160.5C 265.402,166.092 269.569,167.925 275.5,166C 278.822,162.74 280.488,158.74 280.5,154C 280.693,151.992 280.026,150.492 278.5,149.5C 278.167,148.833 277.833,148.167 277.5,147.5C 277.5,146.833 277.5,146.167 277.5,145.5 Z"/></g>
<g><path style="opacity:1" fill="#5f2e32" d="M 322.5,142.5 C 328.115,142.094 332.448,144.261 335.5,149C 337.392,149.973 339.392,150.64 341.5,151C 340.109,152.02 338.609,152.853 337,153.5C 337.365,166.151 331.532,170.984 319.5,168C 310.826,158.23 311.826,149.73 322.5,142.5 Z"/></g>
<g><path style="opacity:1" fill="#f6eeee" d="M 321.5,145.5 C 327.293,146.421 328.626,149.255 325.5,154C 318,154.196 316.667,151.363 321.5,145.5 Z"/></g>
<g><path style="opacity:1" fill="#f07f84" d="M 353.5,177.5 C 349.868,185.319 343.868,190.319 335.5,192.5C 332.797,192.955 330.13,193.622 327.5,194.5C 326.558,194.392 325.725,194.059 325,193.5C 323.818,173.183 333.318,164.516 353.5,167.5C 353.5,170.833 353.5,174.167 353.5,177.5 Z"/></g>
<g><path style="opacity:1" fill="#ee7f84" d="M 248.5,149.5 C 248.5,155.167 248.5,160.833 248.5,166.5C 255.219,165.765 261.552,167.432 267.5,171.5C 274.552,177.541 276.885,185.041 274.5,194C 277.753,195.036 281.086,195.703 284.5,196C 285.252,196.671 285.586,197.504 285.5,198.5C 269.477,197.164 256.811,190.164 247.5,177.5C 246.679,168.017 247.012,158.684 248.5,149.5 Z"/></g>
<g><path style="opacity:0.944" fill="#60494c" d="M 182.5,168.5 C 207.564,166.902 221.231,178.568 223.5,203.5C 228.486,202.671 233.319,201.337 238,199.5C 239.365,200.593 239.699,201.926 239,203.5C 229.529,210.309 220.696,217.809 212.5,226C 197.5,237.333 182.5,237.333 167.5,226C 152.532,208.425 153.198,191.425 169.5,175C 173.657,172.255 177.99,170.088 182.5,168.5 Z M 222.5,213.5 C 221.167,213.5 220.5,212.833 220.5,211.5C 221.931,210.22 222.598,208.553 222.5,206.5C 226.504,205.329 230.504,204.496 234.5,204C 230.625,207.381 226.625,210.547 222.5,213.5 Z"/></g>
<g><path style="opacity:1" fill="#fbf8f7" d="M 220.5,211.5 C 220.5,212.833 221.167,213.5 222.5,213.5C 217.047,217.451 212.047,221.951 207.5,227C 186.585,237.266 171.085,232.099 161,211.5C 156.529,193.278 162.696,180.111 179.5,172C 198.835,167.583 212.335,174.417 220,192.5C 220.29,199.036 220.456,205.369 220.5,211.5 Z"/></g>
<g><path style="opacity:1" fill="#753031" d="M 283.5,180.5 C 283.56,179.957 283.893,179.624 284.5,179.5C 288.314,182.437 292.647,183.771 297.5,183.5C 302.389,183.27 307.055,182.437 311.5,181C 302.042,187.105 292.708,186.938 283.5,180.5 Z"/></g>
<g><path style="opacity:1" fill="#d95b54" d="M 206.5,191.5 C 206.5,194.833 206.5,198.167 206.5,201.5C 201.699,201.35 197.033,202.016 192.5,203.5C 192.843,201.517 192.176,200.183 190.5,199.5C 189.325,199.281 188.325,199.614 187.5,200.5C 186.563,204.417 185.23,204.917 183.5,202C 179.514,201.501 175.514,201.334 171.5,201.5C 170.17,192.005 174.17,187.505 183.5,188C 186.333,189.5 188.5,191.667 190,194.5C 194.32,186.419 199.82,185.419 206.5,191.5 Z"/></g>
<g><path style="opacity:1" fill="#d1706c" d="M 206.5,191.5 C 207.997,193.29 208.664,195.456 208.5,198C 208.456,199.764 208.122,201.431 207.5,203C 203.833,203.333 200.167,203.667 196.5,204C 195.789,205.255 194.956,206.421 194,207.5C 192.007,205.182 190.841,202.516 190.5,199.5C 192.176,200.183 192.843,201.517 192.5,203.5C 197.033,202.016 201.699,201.35 206.5,201.5C 206.5,198.167 206.5,194.833 206.5,191.5 Z"/></g>
<g><path style="opacity:0.99" fill="#de767f" d="M 321.5,203.5 C 310.516,204.486 299.516,204.653 288.5,204C 287.376,203.751 286.376,203.251 285.5,202.5C 285.957,201.702 286.624,201.369 287.5,201.5C 298.594,201.913 309.594,201.247 320.5,199.5C 321.429,200.689 321.762,202.022 321.5,203.5 Z"/></g>
<g><path style="opacity:0.998" fill="#f89397" d="M 287.5,201.5 C 286.624,201.369 285.957,201.702 285.5,202.5C 286.376,203.251 287.376,203.751 288.5,204C 299.516,204.653 310.516,204.486 321.5,203.5C 321.838,206.325 320.838,208.492 318.5,210C 307.23,217.235 296.23,217.069 285.5,209.5C 284.516,206.572 284.183,203.572 284.5,200.5C 285.791,200.263 286.791,200.596 287.5,201.5 Z"/></g>
<g><path style="opacity:1" fill="#faf8f8" d="M 279.5,199.5 C 281.25,202.355 282.083,205.689 282,209.5C 286.348,213.758 291.514,216.592 297.5,218C 295.506,220.158 294.172,222.658 293.5,225.5C 290.779,230.368 289.279,235.702 289,241.5C 278.501,235.32 272.334,226.153 270.5,214C 270.934,211.366 271.767,208.866 273,206.5C 275.372,204.297 277.539,201.963 279.5,199.5 Z"/></g>
<g><path style="opacity:1" fill="#faf8f8" d="M 329.5,198.5 C 333.52,201.358 336.686,205.025 339,209.5C 337.587,224.275 329.92,234.608 316,240.5C 315.228,240.355 314.561,240.022 314,239.5C 313.295,236.524 312.129,233.858 310.5,231.5C 309.008,226.357 306.342,221.857 302.5,218C 309.923,216.527 316.757,213.694 323,209.5C 323.499,205.848 323.665,202.182 323.5,198.5C 325.5,198.5 327.5,198.5 329.5,198.5 Z"/></g>
<g><path style="opacity:1" fill="#d65e58" d="M 188.5,202.5 C 190.346,205.338 192.012,208.338 193.5,211.5C 195.063,210.055 196.396,208.389 197.5,206.5C 200.446,205.345 203.446,205.179 206.5,206C 202.439,212.278 196.939,216.778 190,219.5C 185.095,217.298 180.595,214.465 176.5,211C 174.46,208.815 173.126,206.315 172.5,203.5C 175.85,203.335 179.183,203.502 182.5,204C 185.206,209.911 187.206,209.411 188.5,202.5 Z"/></g>
<g><path style="opacity:1" fill="#fcfbfa" d="M 381.5,339.5 C 377.486,339.666 373.486,339.499 369.5,339C 354.175,336.39 338.842,333.89 323.5,331.5C 323.5,328.833 323.5,326.167 323.5,323.5C 324.076,313.529 326.076,303.863 329.5,294.5C 330.584,292.681 331.918,291.015 333.5,289.5C 349.504,292.36 365.504,294.36 381.5,295.5C 378.505,294.867 375.672,293.867 373,292.5C 371.102,276.442 368.768,260.442 366,244.5C 364.844,243.007 364.01,243.174 363.5,245C 366.627,260.72 368.96,276.553 370.5,292.5C 362.18,291.435 353.847,290.435 345.5,289.5C 345.263,285.278 345.596,281.111 346.5,277C 355.535,272.76 358.369,265.927 355,256.5C 353.292,254.457 351.292,252.79 349,251.5C 348.501,247.514 348.334,243.514 348.5,239.5C 348.334,231.826 348.5,224.159 349,216.5C 357.703,218.708 366.203,221.541 374.5,225C 378.422,228.251 381.588,232.084 384,236.5C 392,256.5 400,276.5 408,296.5C 411.783,318.981 402.949,333.314 381.5,339.5 Z"/></g>
<g><path style="opacity:1" fill="#eea870" d="M 304.5,224.5 C 305.167,224.5 305.5,224.833 305.5,225.5C 307.241,232.021 308.241,238.687 308.5,245.5C 305.751,245.726 303.084,245.393 300.5,244.5C 299.049,246.559 297.049,247.559 294.5,247.5C 295.615,239.882 296.449,232.216 297,224.5C 297.779,223.272 298.779,222.272 300,221.5C 301.643,222.315 303.143,223.315 304.5,224.5 Z"/></g>
<g><path style="opacity:1" fill="#faf7f7" d="M 338.5,221.5 C 339.494,231.319 339.827,241.319 339.5,251.5C 337.695,252.237 336.029,253.237 334.5,254.5C 333.618,253.24 332.618,252.074 331.5,251C 328.471,250.461 325.471,249.794 322.5,249C 320.443,244.959 317.443,243.792 313.5,245.5C 311.824,244.817 311.157,243.483 311.5,241.5C 311.369,240.761 311.536,240.094 312,239.5C 312.49,240.793 312.657,242.127 312.5,243.5C 324.518,240.15 333.185,232.817 338.5,221.5 Z"/></g>
<g><path style="opacity:1" fill="#57393a" d="M 276.5,198.5 C 277.391,199.11 278.391,199.443 279.5,199.5C 277.539,201.963 275.372,204.297 273,206.5C 271.767,208.866 270.934,211.366 270.5,214C 272.334,226.153 278.501,235.32 289,241.5C 289.279,235.702 290.779,230.368 293.5,225.5C 293.848,230.065 293.181,234.399 291.5,238.5C 291.932,242.35 292.598,246.017 293.5,249.5C 293.833,249.5 294.167,249.5 294.5,249.5C 296.389,250.742 298.389,250.742 300.5,249.5C 300.5,250.5 300.5,251.5 300.5,252.5C 294.955,251.288 289.455,251.288 284,252.5C 281.658,265.426 279.825,278.426 278.5,291.5C 277.527,293.948 277.194,296.615 277.5,299.5C 276.89,300.391 276.557,301.391 276.5,302.5C 275.583,304.662 275.583,306.995 276.5,309.5C 274.754,317.386 273.92,325.386 274,333.5C 274.5,334 275,334.5 275.5,335C 280.389,335.354 285.056,336.187 289.5,337.5C 287.379,337.325 285.379,337.659 283.5,338.5C 273.312,339.141 269.479,334.474 272,324.5C 273.541,311.294 275.375,298.127 277.5,285C 277.333,283.5 277.167,282 277,280.5C 275,281.833 273,281.833 271,280.5C 270.667,269.833 270.333,259.167 270,248.5C 268.477,246.38 266.644,246.047 264.5,247.5C 263.668,258.151 263.168,268.818 263,279.5C 260.667,282.167 258.333,282.167 256,279.5C 255.333,268.5 255.333,257.5 256,246.5C 256.936,243.232 258.936,240.899 262,239.5C 262.831,231.812 262.665,224.145 261.5,216.5C 254.792,219.236 248.126,222.069 241.5,225C 235.28,229.274 231.447,235.108 230,242.5C 226.663,254.516 223.33,266.516 220,278.5C 218.969,281.683 219.635,284.349 222,286.5C 227.669,281.971 234.169,280.305 241.5,281.5C 242.999,269.847 244.499,258.18 246,246.5C 246.743,244.355 247.576,244.189 248.5,246C 246.226,258.419 244.559,270.919 243.5,283.5C 242.167,283.5 240.833,283.5 239.5,283.5C 232.918,282.376 227.251,284.043 222.5,288.5C 221.833,288.5 221.167,288.5 220.5,288.5C 219.135,286.14 217.135,284.473 214.5,283.5C 215.9,282.9 216.9,281.9 217.5,280.5C 221.329,266.519 225.162,252.519 229,238.5C 231.018,231.954 234.852,226.787 240.5,223C 249.5,219.167 258.5,215.333 267.5,211.5C 270.135,206.873 273.135,202.54 276.5,198.5 Z"/></g>
<g><path style="opacity:1" fill="#f9f3f3" d="M 270.5,223.5 C 275.09,232.591 281.924,239.591 291,244.5C 291.49,245.793 291.657,247.127 291.5,248.5C 287.92,247.923 284.92,248.923 282.5,251.5C 280.917,258.078 279.75,264.745 279,271.5C 278.667,263.167 278.333,254.833 278,246.5C 277.034,243.035 274.868,240.702 271.5,239.5C 270.505,234.208 270.172,228.875 270.5,223.5 Z"/></g>
<g><path style="opacity:1" fill="#d1b9bb" d="M 339.5,251.5 C 339.827,241.319 339.494,231.319 338.5,221.5C 338.987,220.527 339.487,219.527 340,218.5C 340.826,229.674 340.659,240.674 339.5,251.5 Z"/></g>
<g><path style="opacity:1" fill="#ad9793" d="M 265.5,214.5 C 266.5,214.5 267.5,214.5 268.5,214.5C 268.169,223.192 268.502,231.859 269.5,240.5C 272.868,241.702 275.034,244.035 276,247.5C 276.667,257.833 276.667,268.167 276,278.5C 274.989,279.337 273.822,279.67 272.5,279.5C 272.667,268.828 272.5,258.161 272,247.5C 268.667,243.5 265.333,243.5 262,247.5C 261.5,258.161 261.333,268.828 261.5,279.5C 260.178,279.67 259.011,279.337 258,278.5C 257.333,267.833 257.333,257.167 258,246.5C 259.309,244.024 261.142,242.024 263.5,240.5C 264.193,231.775 264.86,223.109 265.5,214.5 Z"/></g>
<g><path style="opacity:0.917" fill="#614b4e" d="M 343.5,212.5 C 354.462,215.099 365.129,218.599 375.5,223C 378,225.5 380.5,228 383,230.5C 392.577,252.225 401.577,274.225 410,296.5C 413.655,311.87 409.488,324.703 397.5,335C 393.249,337.917 388.582,339.75 383.5,340.5C 383.158,339.662 382.492,339.328 381.5,339.5C 402.949,333.314 411.783,318.981 408,296.5C 400,276.5 392,256.5 384,236.5C 381.588,232.084 378.422,228.251 374.5,225C 366.203,221.541 357.703,218.708 349,216.5C 348.5,224.159 348.334,231.826 348.5,239.5C 347.507,231.35 347.174,223.017 347.5,214.5C 346.209,214.263 345.209,214.596 344.5,215.5C 343.833,215.5 343.5,215.167 343.5,214.5C 343.5,213.833 343.5,213.167 343.5,212.5 Z"/></g>
<g><path style="opacity:1" fill="#e0a27a" d="M 304.5,224.5 C 303.143,223.315 301.643,222.315 300,221.5C 298.779,222.272 297.779,223.272 297,224.5C 296.449,232.216 295.615,239.882 294.5,247.5C 297.049,247.559 299.049,246.559 300.5,244.5C 303.084,245.393 305.751,245.726 308.5,245.5C 308.241,238.687 307.241,232.021 305.5,225.5C 306.558,226.6 307.392,227.934 308,229.5C 309.072,235.455 309.572,241.455 309.5,247.5C 304.275,247.186 299.275,247.853 294.5,249.5C 294.167,249.5 293.833,249.5 293.5,249.5C 293.566,241.476 294.066,233.476 295,225.5C 296.421,222.991 298.088,220.657 300,218.5C 302.127,220.114 303.627,222.114 304.5,224.5 Z"/></g>
<g><path style="opacity:1" fill="#c9a5a9" d="M 313.5,246.5 C 316.9,246.032 319.233,247.365 320.5,250.5C 323.753,251.598 327.086,252.264 330.5,252.5C 330.5,253.833 330.5,255.167 330.5,256.5C 320.471,255.384 310.471,254.051 300.5,252.5C 300.5,251.5 300.5,250.5 300.5,249.5C 304.075,249.079 307.741,248.912 311.5,249C 312.381,248.292 313.047,247.458 313.5,246.5 Z"/></g>
<g><path style="opacity:1" fill="#8e5d63" d="M 300.5,252.5 C 310.471,254.051 320.471,255.384 330.5,256.5C 334.804,257.131 339.137,257.631 343.5,258C 344.333,258.833 345.167,259.667 346,260.5C 345.039,269.82 343.872,279.154 342.5,288.5C 339.449,288.636 336.449,288.302 333.5,287.5C 331.583,287.754 330.249,288.754 329.5,290.5C 321.792,284.723 313.125,282.556 303.5,284C 301.957,285.714 300.29,287.214 298.5,288.5C 294.63,286.828 290.63,286.328 286.5,287C 283.037,289.195 281.704,292.361 282.5,296.5C 281.167,296.5 279.833,296.5 278.5,296.5C 278.5,294.833 278.5,293.167 278.5,291.5C 279.825,278.426 281.658,265.426 284,252.5C 289.455,251.288 294.955,251.288 300.5,252.5 Z"/></g>
<g><path style="opacity:1" fill="#543639" d="M 331.5,196.5 C 336.464,201.088 340.464,206.421 343.5,212.5C 343.5,213.167 343.5,213.833 343.5,214.5C 342.505,226.322 342.172,238.322 342.5,250.5C 343.833,250.5 345.167,250.5 346.5,250.5C 347.145,238.452 346.478,226.785 344.5,215.5C 345.209,214.596 346.209,214.263 347.5,214.5C 347.174,223.017 347.507,231.35 348.5,239.5C 348.334,243.514 348.501,247.514 349,251.5C 351.292,252.79 353.292,254.457 355,256.5C 358.369,265.927 355.535,272.76 346.5,277C 345.596,281.111 345.263,285.278 345.5,289.5C 353.847,290.435 362.18,291.435 370.5,292.5C 368.96,276.553 366.627,260.72 363.5,245C 364.01,243.174 364.844,243.007 366,244.5C 368.768,260.442 371.102,276.442 373,292.5C 375.672,293.867 378.505,294.867 381.5,295.5C 365.504,294.36 349.504,292.36 333.5,289.5C 331.918,291.015 330.584,292.681 329.5,294.5C 329.5,293.167 329.5,291.833 329.5,290.5C 330.249,288.754 331.583,287.754 333.5,287.5C 336.449,288.302 339.449,288.636 342.5,288.5C 343.872,279.154 345.039,269.82 346,260.5C 345.167,259.667 344.333,258.833 343.5,258C 339.137,257.631 334.804,257.131 330.5,256.5C 330.5,255.167 330.5,253.833 330.5,252.5C 327.086,252.264 323.753,251.598 320.5,250.5C 319.233,247.365 316.9,246.032 313.5,246.5C 313.5,246.167 313.5,245.833 313.5,245.5C 317.443,243.792 320.443,244.959 322.5,249C 325.471,249.794 328.471,250.461 331.5,251C 332.618,252.074 333.618,253.24 334.5,254.5C 336.029,253.237 337.695,252.237 339.5,251.5C 340.659,240.674 340.826,229.674 340,218.5C 339.487,219.527 338.987,220.527 338.5,221.5C 333.185,232.817 324.518,240.15 312.5,243.5C 312.657,242.127 312.49,240.793 312,239.5C 311.536,240.094 311.369,240.761 311.5,241.5C 310.521,238.375 310.187,235.042 310.5,231.5C 312.129,233.858 313.295,236.524 314,239.5C 314.561,240.022 315.228,240.355 316,240.5C 329.92,234.608 337.587,224.275 339,209.5C 336.686,205.025 333.52,201.358 329.5,198.5C 330.167,197.833 330.833,197.167 331.5,196.5 Z"/></g>
<g><path style="opacity:1" fill="#a48f8b" d="M 341.5,252.5 C 352.736,253.228 356.57,258.895 353,269.5C 351.622,271.213 349.955,272.547 348,273.5C 347.667,268.5 347.333,263.5 347,258.5C 344.089,256.84 340.922,255.674 337.5,255C 339.066,254.392 340.4,253.558 341.5,252.5 Z"/></g>
<g><path style="opacity:1" fill="#a9928f" d="M 343.5,214.5 C 343.5,215.167 343.833,215.5 344.5,215.5C 346.478,226.785 347.145,238.452 346.5,250.5C 345.167,250.5 343.833,250.5 342.5,250.5C 342.172,238.322 342.505,226.322 343.5,214.5 Z"/></g>
<g><path style="opacity:1" fill="#642b2c" d="M 329.5,290.5 C 329.5,291.833 329.5,293.167 329.5,294.5C 326.076,303.863 324.076,313.529 323.5,323.5C 323.167,323.5 322.833,323.5 322.5,323.5C 321.96,312.993 323.96,302.993 328.5,293.5C 327.812,292.145 326.812,291.145 325.5,290.5C 319.281,287.111 312.614,285.278 305.5,285C 303.671,286.113 302.837,287.613 303,289.5C 307.214,291.676 311.714,292.843 316.5,293C 316.957,293.414 317.291,293.914 317.5,294.5C 316.5,294.833 315.5,295.167 314.5,295.5C 306.121,293.873 297.955,291.54 290,288.5C 284.911,288.927 283.244,291.594 285,296.5C 285.833,297.333 286.667,298.167 287.5,299C 293.871,302.068 300.538,304.235 307.5,305.5C 298.987,306.498 291.321,304.331 284.5,299C 282.071,298.297 279.738,298.463 277.5,299.5C 277.194,296.615 277.527,293.948 278.5,291.5C 278.5,293.167 278.5,294.833 278.5,296.5C 279.833,296.5 281.167,296.5 282.5,296.5C 281.704,292.361 283.037,289.195 286.5,287C 290.63,286.328 294.63,286.828 298.5,288.5C 300.29,287.214 301.957,285.714 303.5,284C 313.125,282.556 321.792,284.723 329.5,290.5 Z"/></g>
<g><path style="opacity:1" fill="#f99497" d="M 325.5,290.5 C 320.394,301.223 318.061,312.557 318.5,324.5C 311.037,326.981 303.37,327.147 295.5,325C 290.521,324.192 287.854,321.358 287.5,316.5C 291.305,317.267 295.139,317.933 299,318.5C 300.5,318.167 302,317.833 303.5,317.5C 296.983,316.787 290.65,315.287 284.5,313C 280.081,310.758 277.414,307.258 276.5,302.5C 276.557,301.391 276.89,300.391 277.5,299.5C 279.738,298.463 282.071,298.297 284.5,299C 291.321,304.331 298.987,306.498 307.5,305.5C 300.538,304.235 293.871,302.068 287.5,299C 286.667,298.167 285.833,297.333 285,296.5C 283.244,291.594 284.911,288.927 290,288.5C 297.955,291.54 306.121,293.873 314.5,295.5C 315.5,295.167 316.5,294.833 317.5,294.5C 317.291,293.914 316.957,293.414 316.5,293C 311.714,292.843 307.214,291.676 303,289.5C 302.837,287.613 303.671,286.113 305.5,285C 312.614,285.278 319.281,287.111 325.5,290.5 Z"/></g>
<g><path style="opacity:1" fill="#654a4e" d="M 118.5,294.5 C 121.381,295.274 124.048,296.607 126.5,298.5C 127.85,297.05 129.516,296.383 131.5,296.5C 131.703,298.39 131.037,299.89 129.5,301C 131.607,302.264 132.607,304.097 132.5,306.5C 130.516,306.617 128.85,305.95 127.5,304.5C 126.218,306.179 125.218,308.013 124.5,310C 125.563,311.188 126.897,311.688 128.5,311.5C 128.5,312.5 128.5,313.5 128.5,314.5C 126.833,314.5 125.167,314.5 123.5,314.5C 123.337,316.857 123.503,319.19 124,321.5C 125.356,320.62 126.856,320.286 128.5,320.5C 128.254,323.47 126.588,324.803 123.5,324.5C 123.66,326.199 123.494,327.866 123,329.5C 121.66,328.132 120.326,326.799 119,325.5C 116.479,326.673 113.979,326.673 111.5,325.5C 113.728,323.599 116.395,322.599 119.5,322.5C 119.833,319.167 120.167,315.833 120.5,312.5C 116.103,312.569 112.103,311.402 108.5,309C 109.263,308.056 110.263,307.556 111.5,307.5C 115.013,308.937 118.513,309.271 122,308.5C 122.557,306.385 123.391,304.385 124.5,302.5C 122.066,300.079 120.066,297.412 118.5,294.5 Z"/></g>
<g><path style="opacity:1" fill="#dc757b" d="M 325.5,290.5 C 326.812,291.145 327.812,292.145 328.5,293.5C 323.96,302.993 321.96,312.993 322.5,323.5C 322.5,323.833 322.5,324.167 322.5,324.5C 321.167,324.5 319.833,324.5 318.5,324.5C 318.061,312.557 320.394,301.223 325.5,290.5 Z"/></g>
<g><path style="opacity:1" fill="#faf8f8" d="M 283.5,338.5 C 283.5,340.5 283.5,342.5 283.5,344.5C 281.186,360.273 279.852,376.273 279.5,392.5C 263.507,391.508 249.507,385.842 237.5,375.5C 237.238,374.022 237.571,372.689 238.5,371.5C 251.398,363.914 258.065,352.58 258.5,337.5C 258.373,332.49 257.373,327.656 255.5,323C 266.217,317.394 270.384,308.561 268,296.5C 263.1,289.429 256.267,286.429 247.5,287.5C 246.479,285.812 245.145,284.479 243.5,283.5C 244.559,270.919 246.226,258.419 248.5,246C 247.576,244.189 246.743,244.355 246,246.5C 244.499,258.18 242.999,269.847 241.5,281.5C 234.169,280.305 227.669,281.971 222,286.5C 219.635,284.349 218.969,281.683 220,278.5C 223.33,266.516 226.663,254.516 230,242.5C 231.447,235.108 235.28,229.274 241.5,225C 248.126,222.069 254.792,219.236 261.5,216.5C 262.665,224.145 262.831,231.812 262,239.5C 258.936,240.899 256.936,243.232 256,246.5C 255.333,257.5 255.333,268.5 256,279.5C 258.333,282.167 260.667,282.167 263,279.5C 263.168,268.818 263.668,258.151 264.5,247.5C 266.644,246.047 268.477,246.38 270,248.5C 270.333,259.167 270.667,269.833 271,280.5C 273,281.833 275,281.833 277,280.5C 277.167,282 277.333,283.5 277.5,285C 275.375,298.127 273.541,311.294 272,324.5C 269.479,334.474 273.312,339.141 283.5,338.5 Z"/></g>
<g><path style="opacity:1" fill="#64292a" d="M 276.5,302.5 C 277.414,307.258 280.081,310.758 284.5,313C 290.65,315.287 296.983,316.787 303.5,317.5C 302,317.833 300.5,318.167 299,318.5C 295.139,317.933 291.305,317.267 287.5,316.5C 287.854,321.358 290.521,324.192 295.5,325C 303.37,327.147 311.037,326.981 318.5,324.5C 319.833,324.5 321.167,324.5 322.5,324.5C 322.167,325.167 321.833,325.833 321.5,326.5C 310.7,329.463 300.033,328.963 289.5,325C 286.599,322.033 284.599,318.533 283.5,314.5C 280.87,313.196 278.537,311.53 276.5,309.5C 275.583,306.995 275.583,304.662 276.5,302.5 Z"/></g>
<g><path style="opacity:1" fill="#8c5c61" d="M 276.5,309.5 C 278.537,311.53 280.87,313.196 283.5,314.5C 284.599,318.533 286.599,322.033 289.5,325C 300.033,328.963 310.7,329.463 321.5,326.5C 321.5,328.5 321.5,330.5 321.5,332.5C 326.452,333.492 331.452,334.158 336.5,334.5C 336.759,337.565 335.759,340.065 333.5,342C 328.816,342.461 324.149,342.295 319.5,341.5C 309.607,339.529 299.607,338.196 289.5,337.5C 285.056,336.187 280.389,335.354 275.5,335C 275,334.5 274.5,334 274,333.5C 273.92,325.386 274.754,317.386 276.5,309.5 Z"/></g>
<g><path style="opacity:1" fill="#55393d" d="M 322.5,323.5 C 322.833,323.5 323.167,323.5 323.5,323.5C 323.5,326.167 323.5,328.833 323.5,331.5C 338.842,333.89 354.175,336.39 369.5,339C 373.486,339.499 377.486,339.666 381.5,339.5C 382.492,339.328 383.158,339.662 383.5,340.5C 382.737,341.268 381.737,341.768 380.5,342C 383.203,352.374 384.536,362.874 384.5,373.5C 379.588,377.207 374.422,380.541 369,383.5C 368.501,387.152 368.335,390.818 368.5,394.5C 368.81,397.713 368.477,400.713 367.5,403.5C 367.407,397.484 367.074,391.484 366.5,385.5C 362.154,385.561 358.154,386.727 354.5,389C 351.854,389.497 349.187,389.664 346.5,389.5C 359.345,385.766 371.345,380.1 382.5,372.5C 382.396,362.431 381.062,352.431 378.5,342.5C 365.411,340.63 352.411,338.297 339.5,335.5C 338.959,338.734 337.626,341.567 335.5,344C 330.463,344.663 325.463,344.496 320.5,343.5C 320.5,345.167 320.5,346.833 320.5,348.5C 320.737,349.791 320.404,350.791 319.5,351.5C 307.833,351.5 296.167,351.5 284.5,351.5C 284.5,351.167 284.5,350.833 284.5,350.5C 293.682,350.827 302.682,350.493 311.5,349.5C 313.833,349.5 316.167,349.5 318.5,349.5C 319.473,347.052 319.806,344.385 319.5,341.5C 324.149,342.295 328.816,342.461 333.5,342C 335.759,340.065 336.759,337.565 336.5,334.5C 331.452,334.158 326.452,333.492 321.5,332.5C 321.5,330.5 321.5,328.5 321.5,326.5C 321.833,325.833 322.167,325.167 322.5,324.5C 322.5,324.167 322.5,323.833 322.5,323.5 Z"/></g>
<g><path style="opacity:1" fill="#fcfbfb" d="M 346.5,389.5 C 346.167,389.5 345.833,389.5 345.5,389.5C 338.583,391.042 331.583,392.042 324.5,392.5C 323.334,377.672 322,363.005 320.5,348.5C 320.5,346.833 320.5,345.167 320.5,343.5C 325.463,344.496 330.463,344.663 335.5,344C 337.626,341.567 338.959,338.734 339.5,335.5C 352.411,338.297 365.411,340.63 378.5,342.5C 381.062,352.431 382.396,362.431 382.5,372.5C 371.345,380.1 359.345,385.766 346.5,389.5 Z"/></g>
<g><path style="opacity:1" fill="#602f24" d="M 289.5,337.5 C 299.607,338.196 309.607,339.529 319.5,341.5C 319.806,344.385 319.473,347.052 318.5,349.5C 318.5,347.167 318.5,344.833 318.5,342.5C 307.401,341.89 296.401,340.557 285.5,338.5C 284.756,342.119 284.423,345.785 284.5,349.5C 293.5,349.5 302.5,349.5 311.5,349.5C 302.682,350.493 293.682,350.827 284.5,350.5C 283.539,348.735 283.205,346.735 283.5,344.5C 283.5,342.5 283.5,340.5 283.5,338.5C 285.379,337.659 287.379,337.325 289.5,337.5 Z"/></g>
<g><path style="opacity:1" fill="#e19f6d" d="M 318.5,349.5 C 316.167,349.5 313.833,349.5 311.5,349.5C 302.5,349.5 293.5,349.5 284.5,349.5C 284.423,345.785 284.756,342.119 285.5,338.5C 296.401,340.557 307.401,341.89 318.5,342.5C 318.5,344.833 318.5,347.167 318.5,349.5 Z"/></g>
<g><path style="opacity:1" fill="#61332d" d="M 217.5,280.5 C 216.9,281.9 215.9,282.9 214.5,283.5C 206.433,284.347 198.433,285.847 190.5,288C 186.491,289.838 185.157,292.671 186.5,296.5C 185.081,297.451 183.415,297.784 181.5,297.5C 166.661,284.589 155.661,287.256 148.5,305.5C 137.023,310.084 133.856,318.084 139,329.5C 144.059,334.781 150.226,337.447 157.5,337.5C 157.5,338.167 157.833,338.5 158.5,338.5C 158.237,342.6 158.57,346.6 159.5,350.5C 159.5,351.5 159.5,352.5 159.5,353.5C 159.167,353.5 158.833,353.5 158.5,353.5C 152.824,353.334 147.157,353.501 141.5,354C 139.942,354.21 138.609,354.71 137.5,355.5C 133.976,355.929 130.976,357.429 128.5,360C 105.229,359.594 95.0619,370.76 98,393.5C 101.065,400.227 106.231,404.394 113.5,406C 122.016,406.797 130.349,408.464 138.5,411C 141.959,413.082 144.626,415.915 146.5,419.5C 151.25,407.253 147.917,397.753 136.5,391C 132.596,389.524 128.596,388.357 124.5,387.5C 125.858,380.669 122.858,377.169 115.5,377C 117.366,374.758 118.866,372.258 120,369.5C 119.443,371.841 119.61,374.174 120.5,376.5C 125.209,378.203 127.542,381.537 127.5,386.5C 139.429,387.454 147.095,393.621 150.5,405C 161.495,405.5 172.495,405.667 183.5,405.5C 184.167,405.5 184.833,405.5 185.5,405.5C 206.511,405.833 227.511,405.5 248.5,404.5C 250.223,395.143 246.223,391.309 236.5,393C 234.19,394.637 232.69,396.804 232,399.5C 231.175,397.299 231.675,395.466 233.5,394C 225.096,389.366 216.096,386.866 206.5,386.5C 207.946,385.06 209.779,384.393 212,384.5C 217.406,385.866 222.739,387.533 228,389.5C 231.482,386.081 233.649,381.915 234.5,377C 234.316,375.624 233.649,374.791 232.5,374.5C 232.5,373.833 232.5,373.167 232.5,372.5C 254.059,361.694 261.059,344.694 253.5,321.5C 253.5,321.167 253.5,320.833 253.5,320.5C 264.124,316.53 268.29,308.863 266,297.5C 264.878,295.376 263.378,293.543 261.5,292C 256.577,290.938 251.577,290.105 246.5,289.5C 244.712,286.7 242.378,284.7 239.5,283.5C 240.833,283.5 242.167,283.5 243.5,283.5C 245.145,284.479 246.479,285.812 247.5,287.5C 256.267,286.429 263.1,289.429 268,296.5C 270.384,308.561 266.217,317.394 255.5,323C 257.373,327.656 258.373,332.49 258.5,337.5C 258.065,352.58 251.398,363.914 238.5,371.5C 237.571,372.689 237.238,374.022 237.5,375.5C 236.662,375.842 236.328,376.508 236.5,377.5C 235.508,380.138 234.508,382.805 233.5,385.5C 234.467,386.984 235.8,387.984 237.5,388.5C 237.414,389.496 237.748,390.329 238.5,391C 245.246,390.869 251.579,391.702 257.5,393.5C 254.904,392.735 252.237,392.401 249.5,392.5C 250.158,395.156 250.825,397.822 251.5,400.5C 251.379,401.894 251.046,403.228 250.5,404.5C 259.097,407.887 262.43,405.22 260.5,396.5C 261.117,396.611 261.617,396.944 262,397.5C 262.497,400.146 262.664,402.813 262.5,405.5C 262.167,406.167 261.833,406.833 261.5,407.5C 224.5,407.5 187.5,407.5 150.5,407.5C 150.5,409.5 150.5,411.5 150.5,413.5C 150.59,416.152 149.924,418.485 148.5,420.5C 147.167,421.833 145.833,421.833 144.5,420.5C 142.744,416.907 140.077,414.074 136.5,412C 128.233,410.067 119.9,408.567 111.5,407.5C 109.972,406.691 108.306,406.024 106.5,405.5C 106.5,404.833 106.167,404.5 105.5,404.5C 96.1389,398.805 92.6389,390.472 95,379.5C 99.892,364.65 110.059,357.65 125.5,358.5C 135.003,352.541 145.336,350.208 156.5,351.5C 155.921,347.763 155.921,344.096 156.5,340.5C 151.219,339.43 146.219,337.597 141.5,335C 134.009,328.006 132.509,319.84 137,310.5C 139.907,307.295 143.407,304.962 147.5,303.5C 152.616,287.439 162.616,283.272 177.5,291C 179,292.5 180.5,294 182,295.5C 183.115,290.755 185.948,287.588 190.5,286C 196.314,284.797 201.981,283.13 207.5,281C 210.941,280.984 214.274,280.817 217.5,280.5 Z"/></g>
<g><path style="opacity:0.976" fill="#712f20" d="M 158.5,338.5 C 157.833,338.5 157.5,338.167 157.5,337.5C 166.725,335.894 171.058,330.394 170.5,321C 167.306,313.53 169.306,308.53 176.5,306C 171.29,310.043 169.957,315.209 172.5,321.5C 172.884,331.441 168.217,337.108 158.5,338.5 Z"/></g>
<g><path style="opacity:1" fill="#e28b6d" d="M 239.5,283.5 C 242.378,284.7 244.712,286.7 246.5,289.5C 251.577,290.105 256.577,290.938 261.5,292C 263.378,293.543 264.878,295.376 266,297.5C 268.29,308.863 264.124,316.53 253.5,320.5C 246.203,320.684 240.87,317.517 237.5,311C 241.538,306.879 240.538,304.379 234.5,303.5C 234.5,302.167 234.5,300.833 234.5,299.5C 232.131,299.149 229.797,298.982 227.5,299C 229.351,299.837 231.184,300.671 233,301.5C 233.063,303.379 232.563,305.213 231.5,307C 232.085,309.134 233.418,310.634 235.5,311.5C 224.726,314.299 222.726,320.132 229.5,329C 223.851,328.195 218.185,328.528 212.5,330C 210.004,331.331 208.004,333.164 206.5,335.5C 197.606,345.622 198.606,354.456 209.5,362C 220.43,365.299 229.763,362.799 237.5,354.5C 241.051,347.321 239.718,341.321 233.5,336.5C 233.528,334.418 232.861,332.584 231.5,331C 239.293,330.534 242.793,326.368 242,318.5C 245.377,321.013 249.21,322.013 253.5,321.5C 261.059,344.694 254.059,361.694 232.5,372.5C 217.05,379.028 201.383,380.028 185.5,375.5C 187.492,375.672 189.158,375.005 190.5,373.5C 191.663,368.198 191.829,362.864 191,357.5C 190.64,355.579 189.806,353.912 188.5,352.5C 179.32,345.344 169.653,344.678 159.5,350.5C 158.57,346.6 158.237,342.6 158.5,338.5C 168.217,337.108 172.884,331.441 172.5,321.5C 169.957,315.209 171.29,310.043 176.5,306C 169.306,308.53 167.306,313.53 170.5,321C 171.058,330.394 166.725,335.894 157.5,337.5C 150.226,337.447 144.059,334.781 139,329.5C 133.856,318.084 137.023,310.084 148.5,305.5C 155.661,287.256 166.661,284.589 181.5,297.5C 181.62,298.586 182.287,299.253 183.5,299.5C 186.479,298.672 189.479,298.005 192.5,297.5C 192.726,301.292 193.56,304.959 195,308.5C 195.833,309.333 196.667,310.167 197.5,311C 202.514,311.25 207.514,310.916 212.5,310C 216.056,306.811 219.89,303.978 224,301.5C 224.578,297.044 224.078,292.711 222.5,288.5C 227.251,284.043 232.918,282.376 239.5,283.5 Z"/></g>
<g><path style="opacity:1" fill="#552624" d="M 188.5,319.5 C 198.63,320.071 202.797,325.404 201,335.5C 198.052,342.393 193.219,344.226 186.5,341C 179.251,332.943 179.917,325.776 188.5,319.5 Z"/></g>
<g><path style="opacity:1" fill="#582825" d="M 253.5,320.5 C 253.5,320.833 253.5,321.167 253.5,321.5C 249.21,322.013 245.377,321.013 242,318.5C 242.793,326.368 239.293,330.534 231.5,331C 232.861,332.584 233.528,334.418 233.5,336.5C 232.251,341.495 229.251,344.995 224.5,347C 229.277,349.661 233.11,348.828 236,344.5C 236.535,349.032 234.368,351.032 229.5,350.5C 227.471,350.33 225.471,349.996 223.5,349.5C 218.965,352.622 213.965,353.788 208.5,353C 206.789,351.867 206.289,350.367 207,348.5C 211.488,352.407 215.988,352.24 220.5,348C 216.778,346.9 213.944,344.734 212,341.5C 210.445,343.515 208.611,343.848 206.5,342.5C 205.178,340.135 205.178,337.802 206.5,335.5C 208.004,333.164 210.004,331.331 212.5,330C 218.185,328.528 223.851,328.195 229.5,329C 222.726,320.132 224.726,314.299 235.5,311.5C 233.418,310.634 232.085,309.134 231.5,307C 232.563,305.213 233.063,303.379 233,301.5C 231.184,300.671 229.351,299.837 227.5,299C 229.797,298.982 232.131,299.149 234.5,299.5C 234.5,300.833 234.5,302.167 234.5,303.5C 240.538,304.379 241.538,306.879 237.5,311C 240.87,317.517 246.203,320.684 253.5,320.5 Z"/></g>
<g><path style="opacity:1" fill="#f8f3f2" d="M 190.5,322.5 C 193.916,321.866 195.916,323.2 196.5,326.5C 195.643,331.671 193.143,332.671 189,329.5C 188.167,326.829 188.667,324.496 190.5,322.5 Z"/></g>
<g><path style="opacity:1" fill="#592621" d="M 178.5,311.5 C 184.385,311.713 185.885,314.379 183,319.5C 175.447,323.524 173.114,321.524 176,313.5C 176.995,312.934 177.828,312.267 178.5,311.5 Z"/></g>
<g><path style="opacity:1" fill="#f6ecef" d="M 232.5,314.5 C 238.016,314.473 239.349,316.64 236.5,321C 231.57,321.427 230.237,319.26 232.5,314.5 Z"/></g>
<g><path style="opacity:1" fill="#6d2d26" d="M 220.5,288.5 C 221.167,288.5 221.833,288.5 222.5,288.5C 224.078,292.711 224.578,297.044 224,301.5C 219.89,303.978 216.056,306.811 212.5,310C 207.514,310.916 202.514,311.25 197.5,311C 196.667,310.167 195.833,309.333 195,308.5C 193.56,304.959 192.726,301.292 192.5,297.5C 189.479,298.005 186.479,298.672 183.5,299.5C 182.287,299.253 181.62,298.586 181.5,297.5C 183.415,297.784 185.081,297.451 186.5,296.5C 189.943,296.647 191.943,294.98 192.5,291.5C 193.985,296.069 195.152,300.736 196,305.5C 197.691,309.213 200.525,310.379 204.5,309C 204.957,308.586 205.291,308.086 205.5,307.5C 204.279,304.238 203.779,300.904 204,297.5C 205.113,300.981 206.28,304.481 207.5,308C 210.025,308.896 212.192,308.396 214,306.5C 214.434,302.452 214.434,298.452 214,294.5C 215.903,297.171 216.736,300.171 216.5,303.5C 218.993,303.671 220.826,302.671 222,300.5C 222.669,296.351 222.169,292.351 220.5,288.5 Z"/></g>
<g><path style="opacity:1" fill="#f69296" d="M 214.5,283.5 C 217.135,284.473 219.135,286.14 220.5,288.5C 222.169,292.351 222.669,296.351 222,300.5C 220.826,302.671 218.993,303.671 216.5,303.5C 216.736,300.171 215.903,297.171 214,294.5C 214.434,298.452 214.434,302.452 214,306.5C 212.192,308.396 210.025,308.896 207.5,308C 206.28,304.481 205.113,300.981 204,297.5C 203.779,300.904 204.279,304.238 205.5,307.5C 205.291,308.086 204.957,308.586 204.5,309C 200.525,310.379 197.691,309.213 196,305.5C 195.152,300.736 193.985,296.069 192.5,291.5C 191.943,294.98 189.943,296.647 186.5,296.5C 185.157,292.671 186.491,289.838 190.5,288C 198.433,285.847 206.433,284.347 214.5,283.5 Z"/></g>
<g><path style="opacity:1" fill="#d87e5e" d="M 185.5,375.5 C 172.853,372.852 164.187,365.519 159.5,353.5C 159.5,352.5 159.5,351.5 159.5,350.5C 169.653,344.678 179.32,345.344 188.5,352.5C 189.806,353.912 190.64,355.579 191,357.5C 191.829,362.864 191.663,368.198 190.5,373.5C 189.158,375.005 187.492,375.672 185.5,375.5 Z"/></g>
<g><path style="opacity:1" fill="#413965" d="M 267.5,393.5 C 270.885,393.846 274.218,394.512 277.5,395.5C 279.029,395.471 280.196,394.804 281,393.5C 281.684,384.666 282.518,375.999 283.5,367.5C 284.487,362.695 284.821,357.695 284.5,352.5C 295.833,352.5 307.167,352.5 318.5,352.5C 318.5,357.833 318.5,363.167 318.5,368.5C 315.71,368.222 313.21,368.889 311,370.5C 310.05,369.978 309.216,369.311 308.5,368.5C 306.492,370.762 304.158,371.095 301.5,369.5C 299.971,369.529 298.804,370.196 298,371.5C 297.155,382.638 295.655,393.638 293.5,404.5C 284.167,404.5 274.833,404.5 265.5,404.5C 265.62,402.266 265.287,400.099 264.5,398C 265.555,396.493 266.555,394.993 267.5,393.5 Z"/></g>
<g><path style="opacity:1" fill="#f0a78f" d="M 206.5,335.5 C 205.178,337.802 205.178,340.135 206.5,342.5C 208.611,343.848 210.445,343.515 212,341.5C 213.944,344.734 216.778,346.9 220.5,348C 215.988,352.24 211.488,352.407 207,348.5C 206.289,350.367 206.789,351.867 208.5,353C 213.965,353.788 218.965,352.622 223.5,349.5C 225.471,349.996 227.471,350.33 229.5,350.5C 234.368,351.032 236.535,349.032 236,344.5C 233.11,348.828 229.277,349.661 224.5,347C 229.251,344.995 232.251,341.495 233.5,336.5C 239.718,341.321 241.051,347.321 237.5,354.5C 229.763,362.799 220.43,365.299 209.5,362C 198.606,354.456 197.606,345.622 206.5,335.5 Z"/></g>
<g><path style="opacity:1" fill="#692c20" d="M 158.5,353.5 C 158.833,353.5 159.167,353.5 159.5,353.5C 164.187,365.519 172.853,372.852 185.5,375.5C 201.383,380.028 217.05,379.028 232.5,372.5C 232.5,373.167 232.5,373.833 232.5,374.5C 212.282,382.973 192.282,382.473 172.5,373C 165.63,367.981 160.964,361.481 158.5,353.5 Z"/></g>
<g><path style="opacity:1" fill="#4c3443" d="M 320.5,348.5 C 322,363.005 323.334,377.672 324.5,392.5C 331.583,392.042 338.583,391.042 345.5,389.5C 338.334,392.961 330.668,394.294 322.5,393.5C 322.106,386.504 321.773,379.504 321.5,372.5C 317.484,372.287 313.65,372.954 310,374.5C 310.849,379.901 311.349,385.401 311.5,391C 311.498,394.021 311.164,396.854 310.5,399.5C 309.475,391.492 308.308,383.492 307,375.5C 304.959,374.577 302.792,374.244 300.5,374.5C 299.664,383.852 298.664,393.185 297.5,402.5C 296.848,401.551 296.514,400.385 296.5,399C 297.222,389.773 298.222,380.606 299.5,371.5C 306.375,371.869 313.041,371.202 319.5,369.5C 319.5,363.5 319.5,357.5 319.5,351.5C 320.404,350.791 320.737,349.791 320.5,348.5 Z"/></g>
<g><path style="opacity:1" fill="#cd7b5e" d="M 158.5,353.5 C 160.964,361.481 165.63,367.981 172.5,373C 192.282,382.473 212.282,382.973 232.5,374.5C 233.649,374.791 234.316,375.624 234.5,377C 233.649,381.915 231.482,386.081 228,389.5C 222.739,387.533 217.406,385.866 212,384.5C 209.779,384.393 207.946,385.06 206.5,386.5C 206.189,387.478 205.522,388.145 204.5,388.5C 204.891,387.282 204.224,386.448 202.5,386C 193.666,385.167 185,383.5 176.5,381C 165.328,375.828 157.994,367.328 154.5,355.5C 148.843,354.443 143.177,354.443 137.5,355.5C 138.609,354.71 139.942,354.21 141.5,354C 147.157,353.501 152.824,353.334 158.5,353.5 Z"/></g>
<g><path style="opacity:1" fill="#e18b6d" d="M 206.5,386.5 C 216.096,386.866 225.096,389.366 233.5,394C 231.675,395.466 231.175,397.299 232,399.5C 232.69,396.804 234.19,394.637 236.5,393C 246.223,391.309 250.223,395.143 248.5,404.5C 227.511,405.5 206.511,405.833 185.5,405.5C 186.622,397.454 183.122,393.121 175,392.5C 172.417,392.929 169.917,393.596 167.5,394.5C 165.182,394.003 162.848,393.67 160.5,393.5C 159.257,378.787 151.257,372.954 136.5,376C 134.651,377.093 132.984,378.426 131.5,380C 131.833,380.167 132.167,380.333 132.5,380.5C 143.423,373.873 151.923,376.207 158,387.5C 158.497,390.146 158.664,392.813 158.5,395.5C 161.607,395.351 164.607,395.851 167.5,397C 166.483,398.049 166.316,399.216 167,400.5C 169.402,394.908 173.569,393.075 179.5,395C 183.048,397.591 184.382,401.091 183.5,405.5C 172.495,405.667 161.495,405.5 150.5,405C 147.095,393.621 139.429,387.454 127.5,386.5C 127.542,381.537 125.209,378.203 120.5,376.5C 119.61,374.174 119.443,371.841 120,369.5C 118.866,372.258 117.366,374.758 115.5,377C 122.858,377.169 125.858,380.669 124.5,387.5C 128.596,388.357 132.596,389.524 136.5,391C 147.917,397.753 151.25,407.253 146.5,419.5C 144.626,415.915 141.959,413.082 138.5,411C 130.349,408.464 122.016,406.797 113.5,406C 106.231,404.394 101.065,400.227 98,393.5C 95.0619,370.76 105.229,359.594 128.5,360C 130.976,357.429 133.976,355.929 137.5,355.5C 143.177,354.443 148.843,354.443 154.5,355.5C 157.994,367.328 165.328,375.828 176.5,381C 185,383.5 193.666,385.167 202.5,386C 204.224,386.448 204.891,387.282 204.5,388.5C 205.522,388.145 206.189,387.478 206.5,386.5 Z"/></g>
<g><path style="opacity:1" fill="#6d2d1f" d="M 185.5,405.5 C 184.833,405.5 184.167,405.5 183.5,405.5C 184.382,401.091 183.048,397.591 179.5,395C 173.569,393.075 169.402,394.908 167,400.5C 166.316,399.216 166.483,398.049 167.5,397C 164.607,395.851 161.607,395.351 158.5,395.5C 158.664,392.813 158.497,390.146 158,387.5C 151.923,376.207 143.423,373.873 132.5,380.5C 132.167,380.333 131.833,380.167 131.5,380C 132.984,378.426 134.651,377.093 136.5,376C 151.257,372.954 159.257,378.787 160.5,393.5C 162.848,393.67 165.182,394.003 167.5,394.5C 169.917,393.596 172.417,392.929 175,392.5C 183.122,393.121 186.622,397.454 185.5,405.5 Z"/></g>
<g><path style="opacity:1" fill="#cbd2e0" d="M 236.5,377.5 C 240.154,380.141 241.488,383.808 240.5,388.5C 239.5,388.5 238.5,388.5 237.5,388.5C 235.8,387.984 234.467,386.984 233.5,385.5C 234.508,382.805 235.508,380.138 236.5,377.5 Z"/></g>
<g><path style="opacity:0.957" fill="#503647" d="M 283.5,344.5 C 283.205,346.735 283.539,348.735 284.5,350.5C 284.5,350.833 284.5,351.167 284.5,351.5C 283.512,356.64 283.179,361.974 283.5,367.5C 282.518,375.999 281.684,384.666 281,393.5C 280.196,394.804 279.029,395.471 277.5,395.5C 274.218,394.512 270.885,393.846 267.5,393.5C 265.562,391.837 263.228,391.171 260.5,391.5C 260.284,393.681 261.117,395.347 263,396.5C 263.498,399.482 263.665,402.482 263.5,405.5C 263.167,405.5 262.833,405.5 262.5,405.5C 262.664,402.813 262.497,400.146 262,397.5C 261.617,396.944 261.117,396.611 260.5,396.5C 259.167,395.833 258.167,394.833 257.5,393.5C 251.579,391.702 245.246,390.869 238.5,391C 237.748,390.329 237.414,389.496 237.5,388.5C 238.5,388.5 239.5,388.5 240.5,388.5C 241.488,383.808 240.154,380.141 236.5,377.5C 236.328,376.508 236.662,375.842 237.5,375.5C 249.507,385.842 263.507,391.508 279.5,392.5C 279.852,376.273 281.186,360.273 283.5,344.5 Z"/></g>
<g><path style="opacity:1" fill="#cce0f0" d="M 310.5,399.5 C 310.5,401.5 310.5,403.5 310.5,405.5C 307.167,405.5 303.833,405.5 300.5,405.5C 299.5,405.5 298.5,405.5 297.5,405.5C 297.5,404.5 297.5,403.5 297.5,402.5C 298.664,393.185 299.664,383.852 300.5,374.5C 302.792,374.244 304.959,374.577 307,375.5C 308.308,383.492 309.475,391.492 310.5,399.5 Z"/></g>
<g><path style="opacity:1" fill="#4c3b5b" d="M 284.5,351.5 C 296.167,351.5 307.833,351.5 319.5,351.5C 319.5,357.5 319.5,363.5 319.5,369.5C 313.041,371.202 306.375,371.869 299.5,371.5C 298.222,380.606 297.222,389.773 296.5,399C 296.514,400.385 296.848,401.551 297.5,402.5C 297.5,403.5 297.5,404.5 297.5,405.5C 286.167,405.5 274.833,405.5 263.5,405.5C 263.665,402.482 263.498,399.482 263,396.5C 261.117,395.347 260.284,393.681 260.5,391.5C 263.228,391.171 265.562,391.837 267.5,393.5C 266.555,394.993 265.555,396.493 264.5,398C 265.287,400.099 265.62,402.266 265.5,404.5C 274.833,404.5 284.167,404.5 293.5,404.5C 295.655,393.638 297.155,382.638 298,371.5C 298.804,370.196 299.971,369.529 301.5,369.5C 304.158,371.095 306.492,370.762 308.5,368.5C 309.216,369.311 310.05,369.978 311,370.5C 313.21,368.889 315.71,368.222 318.5,368.5C 318.5,363.167 318.5,357.833 318.5,352.5C 307.167,352.5 295.833,352.5 284.5,352.5C 284.821,357.695 284.487,362.695 283.5,367.5C 283.179,361.974 283.512,356.64 284.5,351.5 Z"/></g>
<g><path style="opacity:1" fill="#443a63" d="M 345.5,389.5 C 345.833,389.5 346.167,389.5 346.5,389.5C 349.187,389.664 351.854,389.497 354.5,389C 358.154,386.727 362.154,385.561 366.5,385.5C 367.074,391.484 367.407,397.484 367.5,403.5C 367.5,404.167 367.5,404.833 367.5,405.5C 344.984,405.637 322.651,405.637 300.5,405.5C 303.833,405.5 307.167,405.5 310.5,405.5C 310.5,403.5 310.5,401.5 310.5,399.5C 311.164,396.854 311.498,394.021 311.5,391C 311.349,385.401 310.849,379.901 310,374.5C 313.65,372.954 317.484,372.287 321.5,372.5C 321.773,379.504 322.106,386.504 322.5,393.5C 330.668,394.294 338.334,392.961 345.5,389.5 Z"/></g>
<g><path style="opacity:1" fill="#c7765b" d="M 257.5,393.5 C 258.167,394.833 259.167,395.833 260.5,396.5C 262.43,405.22 259.097,407.887 250.5,404.5C 251.046,403.228 251.379,401.894 251.5,400.5C 250.825,397.822 250.158,395.156 249.5,392.5C 252.237,392.401 254.904,392.735 257.5,393.5 Z"/></g>
<g><path style="opacity:0.443" fill="#91787a" d="M 105.5,404.5 C 106.167,404.5 106.5,404.833 106.5,405.5C 96.0131,406.494 85.3464,406.828 74.5,406.5C 84.8333,405.833 95.1667,405.167 105.5,404.5 Z"/></g>
<g><path style="opacity:0.557" fill="#90787a" d="M 368.5,394.5 C 369.198,397.897 369.865,401.397 370.5,405C 388.338,405.168 406.005,405.668 423.5,406.5C 421.167,406.5 418.833,406.5 416.5,406.5C 400.119,406.804 383.786,406.471 367.5,405.5C 367.5,404.833 367.5,404.167 367.5,403.5C 368.477,400.713 368.81,397.713 368.5,394.5 Z"/></g>
<g><path style="opacity:1" fill="#4d282c" d="M 262.5,405.5 C 262.833,405.5 263.167,405.5 263.5,405.5C 274.833,405.5 286.167,405.5 297.5,405.5C 298.5,405.5 299.5,405.5 300.5,405.5C 322.651,405.637 344.984,405.637 367.5,405.5C 383.786,406.471 400.119,406.804 416.5,406.5C 416.5,406.833 416.5,407.167 416.5,407.5C 364.833,407.5 313.167,407.5 261.5,407.5C 261.833,406.833 262.167,406.167 262.5,405.5 Z"/></g>
<g><path style="opacity:1" fill="#896f6d" d="M 261.5,407.5 C 313.167,407.5 364.833,407.5 416.5,407.5C 419.059,407.198 421.393,407.532 423.5,408.5C 332.833,408.5 242.167,408.5 151.5,408.5C 151.784,410.415 151.451,412.081 150.5,413.5C 150.5,411.5 150.5,409.5 150.5,407.5C 187.5,407.5 224.5,407.5 261.5,407.5 Z"/></g>
<g><path style="opacity:1" fill="#ae9e99" d="M 423.5,408.5 C 426.09,412.804 426.09,417.137 423.5,421.5C 331.665,421.833 239.998,421.499 148.5,420.5C 149.924,418.485 150.59,416.152 150.5,413.5C 151.451,412.081 151.784,410.415 151.5,408.5C 242.167,408.5 332.833,408.5 423.5,408.5 Z"/></g>
<g><path style="opacity:1" fill="#ad9c97" d="M 111.5,407.5 C 119.9,408.567 128.233,410.067 136.5,412C 140.077,414.074 142.744,416.907 144.5,420.5C 121.673,421.498 98.6727,421.831 75.5,421.5C 74.8826,421.389 74.3826,421.056 74,420.5C 73.3333,416.833 73.3333,413.167 74,409.5C 74.5,409 75,408.5 75.5,408C 87.4954,407.5 99.4954,407.333 111.5,407.5 Z"/></g>
<g><path style="opacity:1" fill="#866a69" d="M 144.5,420.5 C 145.833,421.833 147.167,421.833 148.5,420.5C 239.998,421.499 331.665,421.833 423.5,421.5C 421.052,422.473 418.385,422.806 415.5,422.5C 301.999,422.833 188.665,422.5 75.5,421.5C 98.6727,421.831 121.673,421.498 144.5,420.5 Z"/></g>
<g><path style="opacity:1" fill="#5d3f40" d="M 106.5,405.5 C 108.306,406.024 109.972,406.691 111.5,407.5C 99.4954,407.333 87.4954,407.5 75.5,408C 75,408.5 74.5,409 74,409.5C 73.3333,413.167 73.3333,416.833 74,420.5C 74.3826,421.056 74.8826,421.389 75.5,421.5C 188.665,422.5 301.999,422.833 415.5,422.5C 303.833,423.167 192.167,423.833 80.5,424.5C 80.5,433.833 80.5,443.167 80.5,452.5C 192.999,453.5 305.665,453.833 418.5,453.5C 418.334,443.828 418.5,434.161 419,424.5C 419.5,434.494 419.666,444.494 419.5,454.5C 306.335,454.667 193.002,454.834 79.5,455C 78.5139,444.916 78.1806,434.749 78.5,424.5C 75.6755,424.919 73.5088,423.919 72,421.5C 71.3333,417.167 71.3333,412.833 72,408.5C 72.7083,407.619 73.5416,406.953 74.5,406.5C 85.3464,406.828 96.0131,406.494 106.5,405.5 Z"/></g>
<g><path style="opacity:1" fill="#674d4c" d="M 416.5,407.5 C 416.5,407.167 416.5,406.833 416.5,406.5C 418.833,406.5 421.167,406.5 423.5,406.5C 425.411,406.574 426.578,407.574 427,409.5C 427.996,414.229 427.496,418.729 425.5,423C 423.975,424.009 422.308,424.509 420.5,424.5C 420.827,434.681 420.494,444.681 419.5,454.5C 419.666,444.494 419.5,434.494 419,424.5C 418.5,434.161 418.334,443.828 418.5,453.5C 305.665,453.833 192.999,453.5 80.5,452.5C 80.8333,452.5 81.1667,452.5 81.5,452.5C 193.5,452.5 305.5,452.5 417.5,452.5C 417.5,445.167 417.5,437.833 417.5,430.5C 417.5,428.5 417.5,426.5 417.5,424.5C 305.167,424.5 192.833,424.5 80.5,424.5C 192.167,423.833 303.833,423.167 415.5,422.5C 418.385,422.806 421.052,422.473 423.5,421.5C 426.09,417.137 426.09,412.804 423.5,408.5C 421.393,407.532 419.059,407.198 416.5,407.5 Z"/></g>
<g><path style="opacity:1" fill="#897c78" d="M 80.5,424.5 C 192.833,424.5 305.167,424.5 417.5,424.5C 417.5,426.5 417.5,428.5 417.5,430.5C 305.5,430.5 193.5,430.5 81.5,430.5C 81.5,437.833 81.5,445.167 81.5,452.5C 81.1667,452.5 80.8333,452.5 80.5,452.5C 80.5,443.167 80.5,433.833 80.5,424.5 Z"/></g>
<g><path style="opacity:1" fill="#ae9e99" d="M 417.5,430.5 C 417.5,437.833 417.5,445.167 417.5,452.5C 305.5,452.5 193.5,452.5 81.5,452.5C 81.5,445.167 81.5,437.833 81.5,430.5C 193.5,430.5 305.5,430.5 417.5,430.5 Z"/></g>
</svg>
