<?xml version="1.0" encoding="UTF-8"?>
<!DOCTYPE svg PUBLIC "-//W3C//DTD SVG 1.1//EN" "http://www.w3.org/Graphics/SVG/1.1/DTD/svg11.dtd">
<svg xmlns="http://www.w3.org/2000/svg" version="1.1" width="2000px" height="2000px" style="shape-rendering:geometricPrecision; text-rendering:geometricPrecision; image-rendering:optimizeQuality; fill-rule:evenodd; clip-rule:evenodd" xmlns:xlink="http://www.w3.org/1999/xlink">
<g><path style="opacity:1" fill="#ad3a3f" d="M 1382.5,247.5 C 1420.05,262.43 1453.05,284.096 1481.5,312.5C 1500.59,331.002 1514.92,352.669 1524.5,377.5C 1485.83,385.048 1446.83,390.215 1407.5,393C 1334.19,398.263 1262.86,388.93 1193.5,365C 1140.21,345.532 1093.21,316.198 1052.5,277C 1051.55,276.517 1050.55,276.351 1049.5,276.5C 1069.89,272.708 1089.89,274.542 1109.5,282C 1116.56,285.201 1123.56,288.368 1130.5,291.5C 1136.77,274.72 1147.1,260.887 1161.5,250C 1190.03,230.445 1221.7,221.279 1256.5,222.5C 1300.06,223.224 1342.06,231.558 1382.5,247.5 Z"/></g>
<g><path style="opacity:1" fill="#be4045" d="M 1049.5,276.5 C 1050.55,276.351 1051.55,276.517 1052.5,277C 1093.21,316.198 1140.21,345.532 1193.5,365C 1262.86,388.93 1334.19,398.263 1407.5,393C 1446.83,390.215 1485.83,385.048 1524.5,377.5C 1535.15,406.394 1535.15,435.394 1524.5,464.5C 1469.86,483.05 1413.86,495.384 1356.5,501.5C 1344.88,487.674 1337.88,471.674 1335.5,453.5C 1315.53,455.19 1295.53,455.69 1275.5,455C 1236.46,452.89 1202.96,438.39 1175,411.5C 1161.74,396.997 1152.08,380.33 1146,361.5C 1136.37,390.291 1137.37,418.624 1149,446.5C 1164.18,470.642 1186.01,484.808 1214.5,489C 1136.83,494.323 1098.33,458.156 1099,380.5C 1099.38,376.981 1099.88,373.481 1100.5,370C 1100.17,369.167 1099.83,368.333 1099.5,367.5C 1067.18,373.817 1040.18,389.151 1018.5,413.5C 1014.78,417.888 1011.45,422.555 1008.5,427.5C 1006.41,426.955 1004.41,426.122 1002.5,425C 983.632,413.122 965.632,400.122 948.5,386C 946.963,384.89 946.297,383.39 946.5,381.5C 956.889,333.278 984.889,299.778 1030.5,281C 1036.68,278.773 1043.01,277.273 1049.5,276.5 Z"/></g>
<g><path style="opacity:1" fill="#ad3a3f" d="M 1474.5,712.5 C 1522.8,699.892 1543.63,668.892 1537,619.5C 1534.8,612.773 1531.8,606.439 1528,600.5C 1527.33,559.833 1527.33,519.167 1528,478.5C 1549.2,426.393 1543.2,377.726 1510,332.5C 1505.01,325.678 1499.51,319.345 1493.5,313.5C 1541.69,297.793 1586.02,305.293 1626.5,336C 1663.89,368.968 1680.72,410.468 1677,460.5C 1674.33,482.176 1669,503.176 1661,523.5C 1642.48,560.4 1630.81,599.4 1626,640.5C 1625.33,655.833 1625.33,671.167 1626,686.5C 1627.57,705.905 1634.24,723.238 1646,738.5C 1650.93,743.435 1656.43,747.601 1662.5,751C 1630.26,764.361 1597.26,766.694 1563.5,758C 1557.4,755.75 1551.74,752.75 1546.5,749C 1516.36,748.483 1492.36,736.316 1474.5,712.5 Z"/></g>
<g><path style="opacity:1" fill="#e1737a" d="M 1087.5,379.5 C 1088.5,379.5 1089.5,379.5 1090.5,379.5C 1090.18,386.354 1090.51,393.021 1091.5,399.5C 1097.17,461.337 1131,493.003 1193,494.5C 1204.19,494.104 1215.35,493.437 1226.5,492.5C 1196.71,501.089 1166.71,501.589 1136.5,494C 1105.62,482.114 1086.46,459.947 1079,427.5C 1077.37,419.578 1076.53,411.578 1076.5,403.5C 1063.88,405.311 1052.54,410.145 1042.5,418C 1039.17,420.667 1035.83,423.333 1032.5,426C 1023.6,435.67 1014.6,445.17 1005.5,454.5C 1005.33,449.821 1005.5,445.155 1006,440.5C 1011.87,430.752 1018.7,421.752 1026.5,413.5C 1043.08,395.702 1063.42,384.369 1087.5,379.5 Z"/></g>
<g><path style="opacity:1" fill="#ad3a3f" d="M 946.5,381.5 C 946.297,383.39 946.963,384.89 948.5,386C 965.632,400.122 983.632,413.122 1002.5,425C 1004.41,426.122 1006.41,426.955 1008.5,427.5C 1003.3,436.232 999.471,445.565 997,455.5C 994.261,493.179 991.428,530.846 988.5,568.5C 976.898,566.684 965.231,566.184 953.5,567C 948.1,568.244 942.934,570.077 938,572.5C 937.706,561.492 938.039,550.492 939,539.5C 941.331,514.529 943.331,489.529 945,464.5C 945.455,446.971 944.955,429.471 943.5,412C 943.667,405.833 943.833,399.667 944,393.5C 944.335,389.264 945.168,385.264 946.5,381.5 Z"/></g>
<g><path style="opacity:1" fill="#e1737a" d="M 1350.5,506.5 C 1342.87,503.067 1334.87,501.067 1326.5,500.5C 1322.83,493.687 1319.83,486.52 1317.5,479C 1277.22,483.98 1238.56,478.313 1201.5,462C 1181.37,451.622 1164.37,438.122 1150.5,421.5C 1148.68,411.713 1148.18,401.713 1149,391.5C 1166.62,420.449 1191.46,440.616 1223.5,452C 1258.04,463.579 1293.38,466.745 1329.5,461.5C 1333.01,478.186 1340.01,493.186 1350.5,506.5 Z"/></g>
<g><path style="opacity:1" fill="#fe9498" d="M 1226.5,492.5 C 1229.37,491.675 1232.37,490.841 1235.5,490C 1207.91,487.787 1184.74,476.62 1166,456.5C 1158.13,446.085 1152.96,434.418 1150.5,421.5C 1164.37,438.122 1181.37,451.622 1201.5,462C 1238.56,478.313 1277.22,483.98 1317.5,479C 1319.83,486.52 1322.83,493.687 1326.5,500.5C 1313.77,500.114 1303.94,505.114 1297,515.5C 1293.95,532.231 1300.12,544.398 1315.5,552C 1330.53,559.299 1345.53,559.299 1360.5,552C 1365.14,548.555 1368.14,544.055 1369.5,538.5C 1383.64,543.77 1398.31,546.103 1413.5,545.5C 1417.07,588.769 1420.07,632.102 1422.5,675.5C 1382.74,660.38 1348.57,668.38 1320,699.5C 1299.51,726.108 1294.68,755.441 1305.5,787.5C 1266.78,797.172 1227.45,801.172 1187.5,799.5C 1157.53,798.423 1128.2,793.756 1099.5,785.5C 1112.21,745.124 1102.21,711.624 1069.5,685C 1045.44,667.99 1019.27,663.823 991,672.5C 990.503,670.19 990.337,667.857 990.5,665.5C 994.653,595.073 999.653,524.74 1005.5,454.5C 1014.6,445.17 1023.6,435.67 1032.5,426C 1035.83,423.333 1039.17,420.667 1042.5,418C 1052.54,410.145 1063.88,405.311 1076.5,403.5C 1076.53,411.578 1077.37,419.578 1079,427.5C 1086.46,459.947 1105.62,482.114 1136.5,494C 1166.71,501.589 1196.71,501.089 1226.5,492.5 Z"/></g>
<g><path style="opacity:1" fill="#502528" d="M 1493.5,313.5 C 1499.51,319.345 1505.01,325.678 1510,332.5C 1543.2,377.726 1549.2,426.393 1528,478.5C 1527.33,519.167 1527.33,559.833 1528,600.5C 1531.8,606.439 1534.8,612.773 1537,619.5C 1543.63,668.892 1522.8,699.892 1474.5,712.5C 1472.49,711.321 1472.16,711.821 1473.5,714C 1471.98,715.779 1471.15,715.279 1471,712.5C 1469.41,713.727 1468.08,713.394 1467,711.5C 1466.69,712.308 1466.19,712.975 1465.5,713.5C 1464.3,713.154 1464.3,712.654 1465.5,712C 1461.06,711.752 1456.73,712.419 1452.5,714C 1451.94,714.383 1451.61,714.883 1451.5,715.5C 1442.78,716.605 1434.12,716.771 1425.5,716C 1419.19,729.982 1410.19,741.982 1398.5,752C 1375.85,769.27 1350.85,782.27 1323.5,791C 1324.06,791.383 1324.39,791.883 1324.5,792.5C 1324.45,795.292 1325.79,797.125 1328.5,798C 1327.87,798.75 1327.37,799.584 1327,800.5C 1325.51,798.17 1323.68,797.836 1321.5,799.5C 1318.1,797.594 1314.6,795.927 1311,794.5C 1306.5,795.583 1302,796.583 1297.5,797.5C 1297.83,811.849 1297.5,826.182 1296.5,840.5C 1270.85,858.154 1242.52,868.82 1211.5,872.5C 1212.19,873.518 1212.86,874.518 1213.5,875.5C 1210.87,876.441 1210.87,877.607 1213.5,879C 1212.66,880.011 1212.33,881.178 1212.5,882.5C 1213.5,882.5 1214.5,882.5 1215.5,882.5C 1215.47,884.199 1214.81,885.533 1213.5,886.5C 1209.9,882.395 1206.06,878.395 1202,874.5C 1200.67,876.996 1198.84,878.996 1196.5,880.5C 1195.83,877.541 1195.49,874.541 1195.5,871.5C 1195.62,869.006 1196.62,868.339 1198.5,869.5C 1199.47,867.604 1199.8,865.604 1199.5,863.5C 1201.1,863.768 1202.43,863.434 1203.5,862.5C 1234.32,861.338 1262.32,852.005 1287.5,834.5C 1288.82,822.993 1288.82,811.327 1287.5,799.5C 1286.89,799.624 1286.56,799.957 1286.5,800.5C 1255.12,806.453 1223.45,808.786 1191.5,807.5C 1191.5,806.5 1191.5,805.5 1191.5,804.5C 1187.31,804.572 1183.31,803.739 1179.5,802C 1183.12,802.112 1186.62,802.279 1190,802.5C 1190.5,802.333 1191,802.167 1191.5,802C 1190.14,801.066 1188.81,800.232 1187.5,799.5C 1227.45,801.172 1266.78,797.172 1305.5,787.5C 1339.59,778.954 1370.26,763.788 1397.5,742C 1416.43,723.662 1424.77,701.496 1422.5,675.5C 1420.07,632.102 1417.07,588.769 1413.5,545.5C 1413.5,541.833 1413.5,538.167 1413.5,534.5C 1395.82,534.716 1379.82,529.716 1365.5,519.5C 1361.44,514.111 1356.44,509.778 1350.5,506.5C 1340.01,493.186 1333.01,478.186 1329.5,461.5C 1293.38,466.745 1258.04,463.579 1223.5,452C 1191.46,440.616 1166.62,420.449 1149,391.5C 1148.18,401.713 1148.68,411.713 1150.5,421.5C 1152.96,434.418 1158.13,446.085 1166,456.5C 1184.74,476.62 1207.91,487.787 1235.5,490C 1232.37,490.841 1229.37,491.675 1226.5,492.5C 1215.35,493.437 1204.19,494.104 1193,494.5C 1131,493.003 1097.17,461.337 1091.5,399.5C 1091.5,392.5 1091.5,385.5 1091.5,378.5C 1089.9,378.232 1088.57,378.566 1087.5,379.5C 1063.42,384.369 1043.08,395.702 1026.5,413.5C 1023.54,412.448 1020.87,412.448 1018.5,413.5C 1040.18,389.151 1067.18,373.817 1099.5,367.5C 1099.83,368.333 1100.17,369.167 1100.5,370C 1099.88,373.481 1099.38,376.981 1099,380.5C 1098.33,458.156 1136.83,494.323 1214.5,489C 1186.01,484.808 1164.18,470.642 1149,446.5C 1137.37,418.624 1136.37,390.291 1146,361.5C 1152.08,380.33 1161.74,396.997 1175,411.5C 1202.96,438.39 1236.46,452.89 1275.5,455C 1295.53,455.69 1315.53,455.19 1335.5,453.5C 1337.88,471.674 1344.88,487.674 1356.5,501.5C 1373.45,520.494 1394.79,529.161 1420.5,527.5C 1421.89,544.543 1423.55,561.543 1425.5,578.5C 1451.05,563.453 1477.05,562.62 1503.5,576C 1508.96,579.787 1514.12,583.954 1519,588.5C 1518.37,551.861 1518.37,515.194 1519,478.5C 1521.13,473.92 1522.96,469.253 1524.5,464.5C 1535.15,435.394 1535.15,406.394 1524.5,377.5C 1514.92,352.669 1500.59,331.002 1481.5,312.5C 1482.21,311.596 1483.21,311.263 1484.5,311.5C 1484.28,312.675 1484.61,313.675 1485.5,314.5C 1486.45,312.955 1486.79,311.288 1486.5,309.5C 1488.2,309.966 1489.7,309.966 1491,309.5C 1491.75,310.126 1492.58,310.626 1493.5,311C 1492.23,311.977 1492.23,312.811 1493.5,313.5 Z"/></g>
<g><path style="opacity:1" fill="#a15056" d="M 1087.5,379.5 C 1088.57,378.566 1089.9,378.232 1091.5,378.5C 1091.5,385.5 1091.5,392.5 1091.5,399.5C 1090.51,393.021 1090.18,386.354 1090.5,379.5C 1089.5,379.5 1088.5,379.5 1087.5,379.5 Z"/></g>
<g><path style="opacity:1" fill="#ad3a3f" d="M 1524.5,464.5 C 1522.96,469.253 1521.13,473.92 1519,478.5C 1518.37,515.194 1518.37,551.861 1519,588.5C 1514.12,583.954 1508.96,579.787 1503.5,576C 1477.05,562.62 1451.05,563.453 1425.5,578.5C 1423.55,561.543 1421.89,544.543 1420.5,527.5C 1394.79,529.161 1373.45,520.494 1356.5,501.5C 1413.86,495.384 1469.86,483.05 1524.5,464.5 Z"/></g>
<g><path style="opacity:1" fill="#53292c" d="M 1350.5,227.5 C 1402.8,242.556 1448.64,268.556 1488,305.5C 1553.47,285.195 1608.8,300.528 1654,351.5C 1682.25,389.386 1691.92,431.72 1683,478.5C 1677.25,506.424 1667.91,533.091 1655,558.5C 1638.15,600.288 1631.48,643.621 1635,688.5C 1636.67,708.663 1644.83,725.496 1659.5,739C 1667.68,743.588 1676.01,747.922 1684.5,752C 1649.97,768.921 1613.64,774.921 1575.5,770C 1563.91,767.805 1553.24,763.472 1543.5,757C 1510.51,755.512 1484.51,741.512 1465.5,715C 1460.85,714.995 1456.19,715.162 1451.5,715.5C 1451.61,714.883 1451.94,714.383 1452.5,714C 1456.73,712.419 1461.06,711.752 1465.5,712C 1464.3,712.654 1464.3,713.154 1465.5,713.5C 1466.19,712.975 1466.69,712.308 1467,711.5C 1468.08,713.394 1469.41,713.727 1471,712.5C 1471.15,715.279 1471.98,715.779 1473.5,714C 1472.16,711.821 1472.49,711.321 1474.5,712.5C 1492.36,736.316 1516.36,748.483 1546.5,749C 1551.74,752.75 1557.4,755.75 1563.5,758C 1597.26,766.694 1630.26,764.361 1662.5,751C 1656.43,747.601 1650.93,743.435 1646,738.5C 1634.24,723.238 1627.57,705.905 1626,686.5C 1625.33,671.167 1625.33,655.833 1626,640.5C 1630.81,599.4 1642.48,560.4 1661,523.5C 1669,503.176 1674.33,482.176 1677,460.5C 1680.72,410.468 1663.89,368.968 1626.5,336C 1586.02,305.293 1541.69,297.793 1493.5,313.5C 1492.23,312.811 1492.23,311.977 1493.5,311C 1492.58,310.626 1491.75,310.126 1491,309.5C 1489.7,309.966 1488.2,309.966 1486.5,309.5C 1486.79,311.288 1486.45,312.955 1485.5,314.5C 1484.61,313.675 1484.28,312.675 1484.5,311.5C 1483.21,311.263 1482.21,311.596 1481.5,312.5C 1453.05,284.096 1420.05,262.43 1382.5,247.5C 1382.92,246.778 1383.58,246.278 1384.5,246C 1384.04,245.586 1383.71,245.086 1383.5,244.5C 1385.11,243.573 1386.78,242.739 1388.5,242C 1386.11,241.713 1383.78,241.213 1381.5,240.5C 1380.83,240.833 1380.17,241.167 1379.5,241.5C 1376.83,240.263 1374.33,238.93 1372,237.5C 1367.85,237.683 1364.18,237.683 1361,237.5C 1360.5,237.167 1360,236.833 1359.5,236.5C 1362.11,235.682 1364.77,235.182 1367.5,235C 1363.59,234.938 1360.09,233.771 1357,231.5C 1354.57,232.479 1352.07,233.145 1349.5,233.5C 1349.48,231.857 1350.15,230.524 1351.5,229.5C 1351.14,228.817 1350.8,228.15 1350.5,227.5 Z"/></g>
<g><path style="opacity:1" fill="#5a2d32" d="M 1326.5,500.5 C 1334.87,501.067 1342.87,503.067 1350.5,506.5C 1356.44,509.778 1361.44,514.111 1365.5,519.5C 1366.38,522.262 1367.55,524.929 1369,527.5C 1369.5,531.152 1369.67,534.818 1369.5,538.5C 1368.14,544.055 1365.14,548.555 1360.5,552C 1345.53,559.299 1330.53,559.299 1315.5,552C 1300.12,544.398 1293.95,532.231 1297,515.5C 1303.94,505.114 1313.77,500.114 1326.5,500.5 Z"/></g>
<g><path style="opacity:1" fill="#5a2d32" d="M 1062.5,504.5 C 1074.44,503.532 1084.6,507.199 1093,515.5C 1098.75,528.665 1095.92,539.832 1084.5,549C 1071.09,558.79 1056.42,561.457 1040.5,557C 1026.91,551.323 1022.41,541.489 1027,527.5C 1035.04,513.952 1046.88,506.286 1062.5,504.5 Z"/></g>
<g><path style="opacity:1" fill="#df7279" d="M 1365.5,519.5 C 1379.82,529.716 1395.82,534.716 1413.5,534.5C 1413.5,538.167 1413.5,541.833 1413.5,545.5C 1398.31,546.103 1383.64,543.77 1369.5,538.5C 1369.67,534.818 1369.5,531.152 1369,527.5C 1367.55,524.929 1366.38,522.262 1365.5,519.5 Z"/></g>
<g><path style="opacity:1" fill="#5a2d32" d="M 1080.5,573.5 C 1104.31,572.141 1120.81,582.474 1130,604.5C 1136.29,624.666 1133.29,643.333 1121,660.5C 1099.33,681.833 1077.67,681.833 1056,660.5C 1046.13,646.33 1042.3,630.663 1044.5,613.5C 1036.41,614.288 1030.41,611.121 1026.5,604C 1033.24,604.335 1039.57,603.001 1045.5,600C 1051.71,594.279 1057.71,588.279 1063.5,582C 1068.71,578.061 1074.38,575.227 1080.5,573.5 Z"/></g>
<g><path style="opacity:1" fill="#5a2d32" d="M 1295.5,572.5 C 1308.36,571.464 1320.02,574.63 1330.5,582C 1336.17,589 1342.5,595.333 1349.5,601C 1351.72,602.275 1354.05,603.275 1356.5,604C 1360.62,604.246 1364.62,604.412 1368.5,604.5C 1364.32,611.76 1357.98,615.093 1349.5,614.5C 1352.57,635.458 1346.9,653.625 1332.5,669C 1321.19,678.653 1308.19,681.986 1293.5,679C 1271.75,671.224 1259.58,655.724 1257,632.5C 1255.26,602.807 1268.09,582.807 1295.5,572.5 Z"/></g>
<g><path style="opacity:1" fill="#fd9397" d="M 1431.5,683.5 C 1438.35,683.824 1445.02,683.491 1451.5,682.5C 1462.74,682.353 1473.4,679.853 1483.5,675C 1498.3,664.964 1503.46,651.13 1499,633.5C 1491.19,614.53 1477.02,607.03 1456.5,611C 1448.01,612.917 1440.34,616.417 1433.5,621.5C 1431.52,622.471 1429.52,623.471 1427.5,624.5C 1426.91,613.666 1426.25,602.833 1425.5,592C 1425.83,590.5 1426.17,589 1426.5,587.5C 1459.07,567.332 1488.9,570.666 1516,597.5C 1536.24,624.248 1536.57,651.248 1517,678.5C 1503.83,692.67 1487.67,701.503 1468.5,705C 1455.24,707.004 1441.91,707.837 1428.5,707.5C 1429.72,699.527 1430.72,691.527 1431.5,683.5 Z"/></g>
<g><path style="opacity:1" fill="#fcfbfb" d="M 1091.5,586.5 C 1107.8,584.311 1115.64,591.311 1115,607.5C 1110.61,618.113 1102.77,621.946 1091.5,619C 1081.52,612.718 1079.02,604.218 1084,593.5C 1086.4,590.933 1088.9,588.6 1091.5,586.5 Z"/></g>
<g><path style="opacity:1" fill="#faf9f9" d="M 1289.5,585.5 C 1300.05,585.022 1307.22,589.689 1311,599.5C 1311.66,615.175 1304.16,622.342 1288.5,621C 1276.49,615.488 1272.99,606.655 1278,594.5C 1281.04,590.406 1284.88,587.406 1289.5,585.5 Z"/></g>
<g><path style="opacity:1" fill="#e2737a" d="M 1451.5,682.5 C 1445.02,683.491 1438.35,683.824 1431.5,683.5C 1430.59,663.799 1429.26,644.133 1427.5,624.5C 1429.52,623.471 1431.52,622.471 1433.5,621.5C 1445.77,614.591 1458.77,612.758 1472.5,616C 1488.68,621.861 1495.52,633.361 1493,650.5C 1489.02,663.151 1480.85,671.985 1468.5,677C 1461.3,679.301 1453.96,680.967 1446.5,682C 1448.13,682.494 1449.8,682.66 1451.5,682.5 Z"/></g>
<g><path style="opacity:1" fill="#5f3034" d="M 1451.5,682.5 C 1449.8,682.66 1448.13,682.494 1446.5,682C 1453.96,680.967 1461.3,679.301 1468.5,677C 1480.85,671.985 1489.02,663.151 1493,650.5C 1495.52,633.361 1488.68,621.861 1472.5,616C 1458.77,612.758 1445.77,614.591 1433.5,621.5C 1440.34,616.417 1448.01,612.917 1456.5,611C 1477.02,607.03 1491.19,614.53 1499,633.5C 1503.46,651.13 1498.3,664.964 1483.5,675C 1473.4,679.853 1462.74,682.353 1451.5,682.5 Z"/></g>
<g><path style="opacity:1" fill="#5e2f34" d="M 1229.5,670.5 C 1219.91,650.776 1204.24,643.61 1182.5,649C 1173.15,652.352 1166.31,658.519 1162,667.5C 1161.54,666.906 1161.37,666.239 1161.5,665.5C 1163.23,653.227 1169.9,644.727 1181.5,640C 1194.84,635.75 1207.17,637.75 1218.5,646C 1225.84,652.516 1229.51,660.683 1229.5,670.5 Z"/></g>
<g><path style="opacity:1" fill="#e2747a" d="M 1229.5,670.5 C 1229.04,688.802 1219.71,699.635 1201.5,703C 1185.81,705.401 1173.31,700.234 1164,687.5C 1160.64,680.303 1159.81,672.97 1161.5,665.5C 1161.37,666.239 1161.54,666.906 1162,667.5C 1166.31,658.519 1173.15,652.352 1182.5,649C 1204.24,643.61 1219.91,650.776 1229.5,670.5 Z"/></g>
<g><path style="opacity:1" fill="#f27f84" d="M 1190.5,653.5 C 1201.27,652.138 1209.77,655.805 1216,664.5C 1219.76,678.47 1214.59,687.304 1200.5,691C 1189.2,692.763 1180.36,688.93 1174,679.5C 1170.62,665.264 1176.12,656.597 1190.5,653.5 Z"/></g>
<g><path style="opacity:1" fill="#f27f84" d="M 990.5,665.5 C 990.337,667.857 990.503,670.19 991,672.5C 1019.27,663.823 1045.44,667.99 1069.5,685C 1102.21,711.624 1112.21,745.124 1099.5,785.5C 1063.41,776.213 1032.24,758.546 1006,732.5C 991.197,712.295 986.03,689.962 990.5,665.5 Z"/></g>
<g><path style="opacity:1" fill="#f27f84" d="M 1422.5,675.5 C 1424.77,701.496 1416.43,723.662 1397.5,742C 1370.26,763.788 1339.59,778.954 1305.5,787.5C 1294.68,755.441 1299.51,726.108 1320,699.5C 1348.57,668.38 1382.74,660.38 1422.5,675.5 Z"/></g>
<g><path style="opacity:1" fill="#532b2e" d="M 747.5,675.5 C 796.234,672.128 836.067,689.128 867,726.5C 887.203,754.273 896.37,785.273 894.5,819.5C 913.716,813.428 933.049,807.761 952.5,802.5C 959.963,804.091 962.129,808.425 959,815.5C 929.59,838.454 900.09,861.288 870.5,884C 832.566,931.313 783.9,947.98 724.5,934C 670.858,915.69 639.691,878.523 631,822.5C 627.123,765.416 649.29,721.916 697.5,692C 713.328,683.557 729.995,678.057 747.5,675.5 Z"/></g>
<g><path style="opacity:1" fill="#fefdfd" d="M 750.5,683.5 C 811.737,682.192 854.57,709.525 879,765.5C 888.535,795.989 887.535,825.989 876,855.5C 883.981,847.706 889.814,838.539 893.5,828C 912.413,822.024 931.413,816.691 950.5,812C 921.833,834 893.167,856 864.5,878C 828.789,923.017 782.789,939.017 726.5,926C 675.801,908.292 646.634,872.792 639,819.5C 636.403,768.526 656.236,729.026 698.5,701C 714.791,691.626 732.124,685.792 750.5,683.5 Z"/></g>
<g><path style="opacity:1" fill="#5e2f34" d="M 1133.5,716.5 C 1151.17,730.301 1171.34,736.635 1194,735.5C 1217.34,736.309 1238.17,730.309 1256.5,717.5C 1240.34,736.574 1219.68,745.907 1194.5,745.5C 1176.47,745.656 1160.14,740.49 1145.5,730C 1140.9,725.906 1136.9,721.406 1133.5,716.5 Z"/></g>
<g><path style="opacity:1" fill="#dc5850" d="M 718.5,752.5 C 740.013,752.68 754.18,763.014 761,783.5C 773.744,752.364 794.578,745.197 823.5,762C 835.027,773.937 838.861,788.104 835,804.5C 834.608,807.627 833.775,810.627 832.5,813.5C 818.846,814.333 805.179,814.833 791.5,815C 790.584,815.374 789.75,815.874 789,816.5C 785.395,823.1 781.395,829.434 777,835.5C 771.885,822.817 766.385,810.317 760.5,798C 758.559,797.257 756.726,797.424 755,798.5C 751.257,806.986 747.257,815.319 743,823.5C 741.234,818.802 739.067,814.302 736.5,810C 720.17,809.5 703.837,809.333 687.5,809.5C 683.681,795.561 685.181,782.228 692,769.5C 698.729,760.395 707.562,754.728 718.5,752.5 Z"/></g>
<g><path style="opacity:1" fill="#dc5850" d="M 757.5,810.5 C 763.074,822.69 768.574,835.023 774,847.5C 775.667,848.833 777.333,848.833 779,847.5C 784.042,839.249 789.208,831.082 794.5,823C 806.167,822.333 817.833,822.333 829.5,823C 818.5,842 803.5,857 784.5,868C 776.657,872.422 768.657,876.588 760.5,880.5C 737.041,869.868 716.875,854.868 700,835.5C 695.762,829.691 692.596,823.358 690.5,816.5C 704.5,816.5 718.5,816.5 732.5,816.5C 734.362,822.248 736.529,827.915 739,833.5C 740.508,837.674 742.841,838.341 746,835.5C 750.323,827.354 754.156,819.02 757.5,810.5 Z"/></g>
<g><path style="opacity:1" fill="#a59193" d="M 1395.5,867.5 C 1395.17,914.239 1395.51,960.905 1396.5,1007.5C 1394.51,962.512 1393.84,917.179 1394.5,871.5C 1394.23,869.901 1394.57,868.568 1395.5,867.5 Z"/></g>
<g><path style="opacity:1" fill="#fefefe" d="M 1395.5,867.5 C 1415.59,873.773 1435.92,879.273 1456.5,884C 1499.88,894.044 1528.71,920.21 1543,962.5C 1573.61,1038.72 1603.94,1115.05 1634,1191.5C 1647.27,1249 1631.44,1296.5 1586.5,1334C 1571.41,1344.55 1555.07,1352.38 1537.5,1357.5C 1522.62,1360.18 1507.62,1361.01 1492.5,1360C 1427.56,1348.41 1362.56,1337.25 1297.5,1326.5C 1295.84,1279.93 1302.34,1234.59 1317,1190.5C 1321.51,1179.97 1326.68,1169.81 1332.5,1160C 1396.63,1168.97 1460.8,1178.14 1525,1187.5C 1529.15,1187.55 1530.48,1185.55 1529,1181.5C 1528.5,1181 1528,1180.5 1527.5,1180C 1516.75,1178.96 1506.09,1177.46 1495.5,1175.5C 1485.42,1109.83 1475.25,1044.17 1465,978.5C 1462.82,974.935 1460.16,974.601 1457,977.5C 1456.33,980.5 1456.33,983.5 1457,986.5C 1467.15,1048.75 1476.65,1111.08 1485.5,1173.5C 1452.14,1169.11 1418.8,1164.45 1385.5,1159.5C 1384.79,1158.6 1383.79,1158.26 1382.5,1158.5C 1382.5,1157.17 1382.5,1155.83 1382.5,1154.5C 1384.37,1137.82 1386.37,1121.15 1388.5,1104.5C 1410.97,1099.19 1424.47,1085.19 1429,1062.5C 1431.28,1036.31 1420.45,1017.98 1396.5,1007.5C 1395.51,960.905 1395.17,914.239 1395.5,867.5 Z"/></g>
<g><path style="opacity:1" fill="#532b2e" d="M 1398.5,859.5 C 1426.91,867.36 1455.25,875.527 1483.5,884C 1510.61,896.777 1530.78,916.611 1544,943.5C 1577.26,1025.61 1609.92,1107.94 1642,1190.5C 1655.3,1247.18 1640.8,1295.34 1598.5,1335C 1578.73,1351.54 1556.06,1362.04 1530.5,1366.5C 1531.43,1365.69 1532.43,1364.85 1533.5,1364C 1537.29,1364.22 1540.29,1362.89 1542.5,1360C 1541.1,1358.56 1539.43,1357.73 1537.5,1357.5C 1555.07,1352.38 1571.41,1344.55 1586.5,1334C 1631.44,1296.5 1647.27,1249 1634,1191.5C 1603.94,1115.05 1573.61,1038.72 1543,962.5C 1528.71,920.21 1499.88,894.044 1456.5,884C 1435.92,879.273 1415.59,873.773 1395.5,867.5C 1394.57,868.568 1394.23,869.901 1394.5,871.5C 1393.71,870.391 1393.21,869.058 1393,867.5C 1392.35,868.696 1391.85,868.696 1391.5,867.5C 1393.38,866.294 1395.72,864.961 1398.5,863.5C 1397.64,862.274 1397.64,860.94 1398.5,859.5 Z"/></g>
<g><path style="opacity:1" fill="#502629" d="M 1350.5,227.5 C 1350.8,228.15 1351.14,228.817 1351.5,229.5C 1350.15,230.524 1349.48,231.857 1349.5,233.5C 1352.07,233.145 1354.57,232.479 1357,231.5C 1360.09,233.771 1363.59,234.938 1367.5,235C 1364.77,235.182 1362.11,235.682 1359.5,236.5C 1360,236.833 1360.5,237.167 1361,237.5C 1364.18,237.683 1367.85,237.683 1372,237.5C 1374.33,238.93 1376.83,240.263 1379.5,241.5C 1380.17,241.167 1380.83,240.833 1381.5,240.5C 1383.78,241.213 1386.11,241.713 1388.5,242C 1386.78,242.739 1385.11,243.573 1383.5,244.5C 1383.71,245.086 1384.04,245.586 1384.5,246C 1383.58,246.278 1382.92,246.778 1382.5,247.5C 1342.06,231.558 1300.06,223.224 1256.5,222.5C 1221.7,221.279 1190.03,230.445 1161.5,250C 1147.1,260.887 1136.77,274.72 1130.5,291.5C 1123.56,288.368 1116.56,285.201 1109.5,282C 1089.89,274.542 1069.89,272.708 1049.5,276.5C 1043.01,277.273 1036.68,278.773 1030.5,281C 984.889,299.778 956.889,333.278 946.5,381.5C 945.168,385.264 944.335,389.264 944,393.5C 943.833,399.667 943.667,405.833 943.5,412C 944.955,429.471 945.455,446.971 945,464.5C 943.331,489.529 941.331,514.529 939,539.5C 938.039,550.492 937.706,561.492 938,572.5C 942.934,570.077 948.1,568.244 953.5,567C 965.231,566.184 976.898,566.684 988.5,568.5C 991.428,530.846 994.261,493.179 997,455.5C 999.471,445.565 1003.3,436.232 1008.5,427.5C 1011.45,422.555 1014.78,417.888 1018.5,413.5C 1020.87,412.448 1023.54,412.448 1026.5,413.5C 1018.7,421.752 1011.87,430.752 1006,440.5C 1005.5,445.155 1005.33,449.821 1005.5,454.5C 999.653,524.74 994.653,595.073 990.5,665.5C 986.03,689.962 991.197,712.295 1006,732.5C 1032.24,758.546 1063.41,776.213 1099.5,785.5C 1128.2,793.756 1157.53,798.423 1187.5,799.5C 1188.81,800.232 1190.14,801.066 1191.5,802C 1191,802.167 1190.5,802.333 1190,802.5C 1186.62,802.279 1183.12,802.112 1179.5,802C 1183.31,803.739 1187.31,804.572 1191.5,804.5C 1191.5,805.5 1191.5,806.5 1191.5,807.5C 1173.71,806.99 1156.04,805.323 1138.5,802.5C 1138.17,813.679 1138.51,824.679 1139.5,835.5C 1157.25,852.704 1178.59,861.704 1203.5,862.5C 1202.43,863.434 1201.1,863.768 1199.5,863.5C 1199.8,865.604 1199.47,867.604 1198.5,869.5C 1196.62,868.339 1195.62,869.006 1195.5,871.5C 1195.49,874.541 1195.83,877.541 1196.5,880.5C 1191.86,888.002 1187.36,895.669 1183,903.5C 1180.31,934.855 1177.47,966.188 1174.5,997.5C 1174.82,998.647 1175.48,999.481 1176.5,1000C 1183.14,1001.09 1189.81,1001.92 1196.5,1002.5C 1196.93,995.893 1200.27,991.393 1206.5,989C 1218.19,989.645 1229.86,990.812 1241.5,992.5C 1239.91,968.782 1237.74,945.115 1235,921.5C 1228.77,909.138 1221.6,897.471 1213.5,886.5C 1214.81,885.533 1215.47,884.199 1215.5,882.5C 1214.5,882.5 1213.5,882.5 1212.5,882.5C 1212.33,881.178 1212.66,880.011 1213.5,879C 1210.87,877.607 1210.87,876.441 1213.5,875.5C 1236.86,901.888 1252.03,932.555 1259,967.5C 1312.58,945.19 1347.08,906.024 1362.5,850C 1353.68,829.158 1340.01,812.325 1321.5,799.5C 1323.68,797.836 1325.51,798.17 1327,800.5C 1327.37,799.584 1327.87,798.75 1328.5,798C 1325.79,797.125 1324.45,795.292 1324.5,792.5C 1346.69,806.379 1362.36,825.712 1371.5,850.5C 1380.24,854.268 1389.24,857.268 1398.5,859.5C 1397.64,860.94 1397.64,862.274 1398.5,863.5C 1395.72,864.961 1393.38,866.294 1391.5,867.5C 1391.85,868.696 1392.35,868.696 1393,867.5C 1393.21,869.058 1393.71,870.391 1394.5,871.5C 1393.84,917.179 1394.51,962.512 1396.5,1007.5C 1420.45,1017.98 1431.28,1036.31 1429,1062.5C 1424.47,1085.19 1410.97,1099.19 1388.5,1104.5C 1386.37,1121.15 1384.37,1137.82 1382.5,1154.5C 1381.55,1155.92 1381.22,1157.59 1381.5,1159.5C 1382.83,1159.5 1384.17,1159.5 1385.5,1159.5C 1418.8,1164.45 1452.14,1169.11 1485.5,1173.5C 1476.65,1111.08 1467.15,1048.75 1457,986.5C 1456.33,983.5 1456.33,980.5 1457,977.5C 1460.16,974.601 1462.82,974.935 1465,978.5C 1475.25,1044.17 1485.42,1109.83 1495.5,1175.5C 1506.09,1177.46 1516.75,1178.96 1527.5,1180C 1528,1180.5 1528.5,1181 1529,1181.5C 1530.48,1185.55 1529.15,1187.55 1525,1187.5C 1460.8,1178.14 1396.63,1168.97 1332.5,1160C 1326.68,1169.81 1321.51,1179.97 1317,1190.5C 1302.34,1234.59 1295.84,1279.93 1297.5,1326.5C 1362.56,1337.25 1427.56,1348.41 1492.5,1360C 1507.62,1361.01 1522.62,1360.18 1537.5,1357.5C 1539.43,1357.73 1541.1,1358.56 1542.5,1360C 1540.29,1362.89 1537.29,1364.22 1533.5,1364C 1532.43,1364.85 1531.43,1365.69 1530.5,1366.5C 1528.52,1367 1526.52,1367.5 1524.5,1368C 1531.22,1409.13 1537.88,1450.3 1544.5,1491.5C 1523.67,1509.29 1500.67,1523.96 1475.5,1535.5C 1475.17,1537.67 1474.83,1539.83 1474.5,1542C 1476.48,1568.84 1478.48,1595.68 1480.5,1622.5C 1479.71,1621.39 1479.21,1620.06 1479,1618.5C 1478.67,1620.17 1478.33,1621.83 1478,1623.5C 1477,1618.17 1476,1618.17 1475,1623.5C 1474.75,1620.8 1474.75,1618.13 1475,1615.5C 1472.55,1616.73 1472.05,1618.39 1473.5,1620.5C 1473.55,1622.04 1472.88,1623.04 1471.5,1623.5C 1470.06,1595.46 1468.06,1567.46 1465.5,1539.5C 1410.33,1563.78 1352.66,1577.78 1292.5,1581.5C 1289.73,1550.87 1287.23,1520.2 1285,1489.5C 1284.78,1488.06 1284.28,1486.73 1283.5,1485.5C 1268.64,1491.01 1253.3,1494.34 1237.5,1495.5C 1242.84,1537.89 1248.51,1580.23 1254.5,1622.5C 1251.29,1621.18 1250.29,1619.01 1251.5,1616C 1250.87,1615.25 1250.37,1614.42 1250,1613.5C 1249.33,1614.83 1248.67,1614.83 1248,1613.5C 1248.49,1608.18 1247.99,1608.18 1246.5,1613.5C 1246.69,1615.58 1247.19,1617.58 1248,1619.5C 1248.76,1616.94 1249.26,1616.94 1249.5,1619.5C 1249.35,1622.03 1248.35,1622.7 1246.5,1621.5C 1240.89,1580.5 1235.23,1539.5 1229.5,1498.5C 1222.17,1498.5 1214.83,1498.5 1207.5,1498.5C 1202.24,1540.23 1196.58,1581.9 1190.5,1623.5C 1189.78,1623.08 1189.28,1622.42 1189,1621.5C 1188.67,1622.5 1188.33,1623.5 1188,1624.5C 1187.67,1622.83 1187.33,1621.17 1187,1619.5C 1184.84,1622.68 1185.67,1624.85 1189.5,1626C 1187.55,1627.5 1185.55,1627.66 1183.5,1626.5C 1185.74,1625.33 1185.74,1624 1183.5,1622.5C 1188.84,1577.74 1194.84,1533.07 1201.5,1488.5C 1229.53,1491.93 1256.53,1487.93 1282.5,1476.5C 1282.83,1475.67 1283.17,1474.83 1283.5,1474C 1281.52,1451.5 1279.52,1429 1277.5,1406.5C 1231.54,1410.1 1185.54,1410.43 1139.5,1407.5C 1134.93,1465.5 1130.26,1523.5 1125.5,1581.5C 1070.4,1578.24 1019.73,1561.58 973.5,1531.5C 971.135,1541.66 970.135,1551.99 970.5,1562.5C 969.686,1560.37 969.186,1558.04 969,1555.5C 967.32,1554.4 965.82,1554.73 964.5,1556.5C 964.446,1555.47 964.112,1554.3 963.5,1553C 964.833,1553 966.167,1553 967.5,1553C 967.343,1549.54 967.009,1546.04 966.5,1542.5C 966.846,1541.3 967.346,1541.3 968,1542.5C 969.757,1539.41 970.923,1536.41 971.5,1533.5C 970.833,1532.5 970.167,1531.5 969.5,1530.5C 970.522,1529.65 971.355,1528.65 972,1527.5C 972.914,1528.65 973.747,1528.49 974.5,1527C 973.335,1525.92 972.002,1525.08 970.5,1524.5C 969.41,1525.73 968.076,1526.56 966.5,1527C 967.428,1527.39 968.095,1528.05 968.5,1529C 967.893,1531.37 967.893,1533.53 968.5,1535.5C 967.645,1536.29 966.811,1535.96 966,1534.5C 964.173,1536.24 964.34,1537.91 966.5,1539.5C 965.732,1543.45 965.232,1547.45 965,1551.5C 964.764,1549.88 963.931,1548.88 962.5,1548.5C 963.334,1540.5 963.834,1532.5 964,1524.5C 959.357,1521.68 955.19,1518.35 951.5,1514.5C 952.807,1512.78 952.807,1510.94 951.5,1509C 952.381,1508.29 953.047,1507.46 953.5,1506.5C 1001.67,1545.07 1056.67,1567.4 1118.5,1573.5C 1123.84,1500.77 1129.84,1428.11 1136.5,1355.5C 1123.9,1354.68 1111.57,1352.51 1099.5,1349C 1088.9,1341.14 1085.06,1330.64 1088,1317.5C 1092.29,1286.34 1096.46,1255.18 1100.5,1224C 1098.41,1215.35 1099.58,1207.19 1104,1199.5C 1107.58,1172.49 1110.92,1145.49 1114,1118.5C 1112.14,1123.03 1108.97,1126.19 1104.5,1128C 1094.15,1130.57 1086.99,1127.07 1083,1117.5C 1082.67,1077.5 1082.33,1037.5 1082,997.5C 1078.6,988.698 1072.43,985.865 1063.5,989C 1061.29,990.873 1059.46,993.04 1058,995.5C 1057.98,1036.89 1057.32,1078.23 1056,1119.5C 1051.33,1127.41 1044.5,1130.25 1035.5,1128C 1030,1126.5 1026.5,1123 1025,1117.5C 1024.33,1075.83 1024.33,1034.17 1025,992.5C 1028.84,975.994 1038.51,964.328 1054,957.5C 1053.83,927.501 1053.33,897.501 1052.5,867.5C 1029.46,876.568 1006.46,885.735 983.5,895C 955.114,907.717 936.28,928.883 927,958.5C 910.656,1017.54 894.156,1076.54 877.5,1135.5C 881.492,1140.33 885.325,1145.33 889,1150.5C 911.322,1128.8 937.489,1122.13 967.5,1130.5C 974.162,1081.2 980.662,1031.87 987,982.5C 988.594,977.248 991.594,976.248 996,979.5C 996.667,982.5 996.667,985.5 996,988.5C 988.793,1036.95 981.96,1085.45 975.5,1134C 982.809,1140.65 989.475,1147.98 995.5,1156C 1012.47,1153.08 1029.13,1154.42 1045.5,1160C 1066.38,1170.74 1077.38,1187.9 1078.5,1211.5C 1077.16,1230.69 1071.33,1248.36 1061,1264.5C 1051.22,1276.93 1038.72,1285.43 1023.5,1290C 1022.98,1290.56 1022.64,1291.23 1022.5,1292C 1036.1,1324.12 1039.27,1357.29 1032,1391.5C 1021.18,1433.13 997.347,1464.8 960.5,1486.5C 958.062,1488.27 955.395,1489.6 952.5,1490.5C 952.461,1489.42 952.127,1488.42 951.5,1487.5C 952.729,1486.72 954.062,1486.22 955.5,1486C 953.256,1485.95 951.589,1485.12 950.5,1483.5C 973.395,1470.28 992.229,1452.61 1007,1430.5C 1009.7,1426.42 1011.87,1422.09 1013.5,1417.5C 1027.91,1387.17 1031.41,1355.51 1024,1322.5C 1022.36,1314.76 1019.86,1307.42 1016.5,1300.5C 1015.5,1297.17 1014.5,1293.83 1013.5,1290.5C 999.074,1290.56 985.741,1286.9 973.5,1279.5C 973.586,1278.5 973.252,1277.67 972.5,1277C 974.636,1275.82 976.636,1275.32 978.5,1275.5C 1010.11,1290.06 1036.28,1283.39 1057,1255.5C 1065.88,1239.63 1070.22,1222.63 1070,1204.5C 1063.28,1176.78 1045.61,1162.78 1017,1162.5C 1008.4,1162.44 1000.07,1163.78 992,1166.5C 977.901,1140.87 956.401,1131.04 927.5,1137C 914.511,1140.91 903.345,1147.74 894,1157.5C 893.333,1159.83 893.333,1162.17 894,1164.5C 895.893,1172.86 897.893,1181.19 900,1189.5C 901.625,1212.04 891.125,1223.71 868.5,1224.5C 864.517,1237.68 855.517,1244.35 841.5,1244.5C 837.189,1244.73 833.189,1243.73 829.5,1241.5C 815.721,1251.4 801.721,1251.9 787.5,1243C 784.639,1240.11 782.139,1236.94 780,1233.5C 776.385,1219.93 773.219,1206.26 770.5,1192.5C 757.508,1195.29 744.675,1198.62 732,1202.5C 721.765,1187.6 708.932,1175.43 693.5,1166C 652.729,1151.13 623.562,1163.63 606,1203.5C 603.538,1210.68 601.705,1218.01 600.5,1225.5C 567.996,1231.51 550.329,1251.01 547.5,1284C 547.449,1305.23 556.116,1321.9 573.5,1334C 599.755,1352.12 627.755,1355.45 657.5,1344C 671.825,1335 680.659,1322.16 684,1305.5C 689.199,1278.35 684.866,1253.02 671,1229.5C 674.833,1234.5 678.667,1239.5 682.5,1244.5C 688.705,1235.56 696.705,1228.73 706.5,1224C 707.5,1223.33 708.5,1223.33 709.5,1224C 700.253,1232.08 692.253,1241.25 685.5,1251.5C 696.859,1277.92 696.026,1303.92 683,1329.5C 671.834,1346.67 656,1356 635.5,1357.5C 633.806,1373.34 634.806,1389.01 638.5,1404.5C 640.318,1410.1 641.984,1415.77 643.5,1421.5C 643.002,1424.49 642.502,1427.49 642,1430.5C 641.667,1429.83 641.333,1429.17 641,1428.5C 640.583,1429.76 639.75,1430.42 638.5,1430.5C 636.796,1425.22 634.796,1420.06 632.5,1415C 625.995,1415.24 619.662,1416.07 613.5,1417.5C 585.69,1414.78 559.023,1418.94 533.5,1430C 526.151,1433.34 519.484,1437.67 513.5,1443C 480.68,1439.95 451.013,1447.95 424.5,1467C 405.492,1482.85 394.158,1503.02 390.5,1527.5C 385.891,1552.73 391.224,1575.73 406.5,1596.5C 406.205,1597.9 405.871,1599.4 405.5,1601C 408.29,1601.56 410.623,1602.89 412.5,1605C 410.425,1606.58 410.425,1608.41 412.5,1610.5C 413.478,1610.98 414.311,1611.64 415,1612.5C 415.333,1612.17 415.667,1611.83 416,1611.5C 416.352,1613.25 416.852,1614.91 417.5,1616.5C 400.756,1605.39 389.589,1590.06 384,1570.5C 374.634,1527.93 385.801,1491.77 417.5,1462C 444.644,1441.54 475.31,1432.54 509.5,1435C 530.955,1419.62 554.955,1410.96 581.5,1409C 597.231,1408.96 612.897,1408.13 628.5,1406.5C 629.586,1406.38 630.253,1405.71 630.5,1404.5C 630.457,1403.58 630.124,1402.92 629.5,1402.5C 627.034,1391.32 626.034,1379.99 626.5,1368.5C 627.479,1365.38 627.813,1362.04 627.5,1358.5C 623.833,1358.5 620.167,1358.5 616.5,1358.5C 587.697,1355.69 564.864,1342.69 548,1319.5C 534.785,1294.29 535.785,1269.63 551,1245.5C 561.414,1230.55 575.581,1221.55 593.5,1218.5C 597.302,1195.05 608.635,1176.22 627.5,1162C 652.762,1146.73 678.095,1146.73 703.5,1162C 714.256,1169.42 723.756,1178.25 732,1188.5C 734.903,1164.6 748.07,1149.76 771.5,1144C 790.248,1141.64 808.248,1136.64 825.5,1129C 840.574,1123.63 855.241,1124.46 869.5,1131.5C 886.797,1071.98 903.631,1012.31 920,952.5C 928.219,927.238 943.719,907.738 966.5,894C 1003,878.276 1039.67,862.943 1076.5,848C 1083.38,827.542 1095.38,810.875 1112.5,798C 1075.75,789.288 1042.42,773.622 1012.5,751C 1001.14,741.307 992.469,729.64 986.5,716C 965.768,715.531 946.435,710.198 928.5,700C 898.053,678.259 888.22,649.425 899,613.5C 905.07,598.365 914.737,586.031 928,576.5C 931.065,533.992 934.231,491.492 937.5,449C 928.096,400.868 937.596,357.035 966,317.5C 1002.34,274.053 1048.17,258.553 1103.5,271C 1110.73,273.28 1117.73,276.113 1124.5,279.5C 1143.99,247.214 1172.32,227.048 1209.5,219C 1257.16,210.583 1304.16,213.416 1350.5,227.5 Z"/></g>
<g><path style="opacity:1" fill="#d1c7c7" d="M 1114.5,995.5 C 1115.17,1032.17 1115.83,1068.83 1116.5,1105.5C 1116.32,1108.22 1115.82,1110.88 1115,1113.5C 1114.5,1074.17 1114.33,1034.83 1114.5,995.5 Z"/></g>
<g><path style="opacity:1" fill="#9b8c88" d="M 1371.5,995.5 C 1376.5,995.5 1381.5,995.5 1386.5,995.5C 1386.5,998.5 1386.5,1001.5 1386.5,1004.5C 1382.17,1004.5 1377.83,1004.5 1373.5,1004.5C 1371.61,1002.01 1370.95,999.012 1371.5,995.5 Z"/></g>
<g><path style="opacity:1" fill="#cdaaad" d="M 1324.5,1027.5 C 1320.19,1026.92 1315.86,1026.59 1311.5,1026.5C 1276.2,1021.6 1240.87,1016.77 1205.5,1012C 1204.62,1010.64 1204.29,1009.14 1204.5,1007.5C 1203.62,1003.09 1204.95,999.591 1208.5,997C 1220.36,997.898 1232.19,999.398 1244,1001.5C 1246.75,1001.05 1248.42,999.387 1249,996.5C 1258.44,986.824 1268.6,985.991 1279.5,994C 1282.45,997.727 1284.45,1001.89 1285.5,1006.5C 1297.85,1008.11 1310.19,1009.95 1322.5,1012C 1324.59,1013.26 1325.59,1015.09 1325.5,1017.5C 1324.79,1020.8 1324.46,1024.13 1324.5,1027.5 Z"/></g>
<g><path style="opacity:1" fill="#ac9c97" d="M 1106.5,1001.5 C 1102.06,999.534 1097.39,999.034 1092.5,1000C 1091.93,1000.99 1091.27,1001.83 1090.5,1002.5C 1089.24,985.738 1080.24,978.238 1063.5,980C 1057.39,982.441 1052.89,986.608 1050,992.5C 1049.67,1033.5 1049.33,1074.5 1049,1115.5C 1048.17,1117 1047,1118.17 1045.5,1119C 1034.39,1121.37 1030.06,1116.87 1032.5,1105.5C 1035.43,1110.26 1039.77,1111.76 1045.5,1110C 1046.03,1109.31 1046.69,1108.81 1047.5,1108.5C 1048.67,1072.84 1048.83,1037.17 1048,1001.5C 1047.5,1001 1047,1000.5 1046.5,1000C 1042.83,999.333 1039.17,999.333 1035.5,1000C 1034.36,1001.15 1033.36,1002.31 1032.5,1003.5C 1032.94,983.227 1042.77,969.894 1062,963.5C 1062.53,930.152 1062.03,896.819 1060.5,863.5C 1064.73,861.886 1069.07,860.553 1073.5,859.5C 1074.15,894.169 1074.98,928.836 1076,963.5C 1095.63,968.626 1105.8,981.293 1106.5,1001.5 Z"/></g>
<g><path style="opacity:1" fill="#d0c5c5" d="M 1170.5,942.5 C 1171.16,943.793 1171.49,945.293 1171.5,947C 1170.73,955.173 1169.89,963.339 1169,971.5C 1168.46,961.782 1168.96,952.116 1170.5,942.5 Z"/></g>
<g><path style="opacity:1" fill="#674345" d="M 1371.5,915.5 C 1371.5,942.167 1371.5,968.833 1371.5,995.5C 1370.95,999.012 1371.61,1002.01 1373.5,1004.5C 1372.79,1005.4 1371.79,1005.74 1370.5,1005.5C 1370.17,975.329 1370.5,945.329 1371.5,915.5 Z"/></g>
<g><path style="opacity:1" fill="#fcfcfc" d="M 1116.5,1105.5 C 1115.83,1068.83 1115.17,1032.17 1114.5,995.5C 1112.15,976.811 1102.15,964.145 1084.5,957.5C 1083.34,935.174 1082.84,912.84 1083,890.5C 1099.32,931.648 1127.48,961.648 1167.5,980.5C 1167.84,986.432 1167.84,992.432 1167.5,998.5C 1159.86,997.475 1152.19,997.309 1144.5,998C 1137.33,1001.17 1132.17,1006.33 1129,1013.5C 1124.43,1044.11 1120.27,1074.78 1116.5,1105.5 Z"/></g>
<g><path style="opacity:1" fill="#bfb0b2" d="M 1362.5,1007.5 C 1362.83,963.997 1362.5,920.663 1361.5,877.5C 1361.99,876.527 1362.49,875.527 1363,874.5C 1363.83,919.002 1363.66,963.335 1362.5,1007.5 Z"/></g>
<g><path style="opacity:1" fill="#eea870" d="M 1213.5,886.5 C 1221.6,897.471 1228.77,909.138 1235,921.5C 1237.74,945.115 1239.91,968.782 1241.5,992.5C 1229.86,990.812 1218.19,989.645 1206.5,989C 1200.27,991.393 1196.93,995.893 1196.5,1002.5C 1189.81,1001.92 1183.14,1001.09 1176.5,1000C 1175.48,999.481 1174.82,998.647 1174.5,997.5C 1177.47,966.188 1180.31,934.855 1183,903.5C 1187.36,895.669 1191.86,888.002 1196.5,880.5C 1198.84,878.996 1200.67,876.996 1202,874.5C 1206.06,878.395 1209.9,882.395 1213.5,886.5 Z"/></g>
<g><path style="opacity:1" fill="#fdfdfd" d="M 1361.5,877.5 C 1362.5,920.663 1362.83,963.997 1362.5,1007.5C 1354.24,1009.97 1347.24,1014.47 1341.5,1021C 1338.85,1021.5 1336.19,1021.66 1333.5,1021.5C 1335,1010.67 1330.33,1004.5 1319.5,1003C 1310.17,1001.72 1300.84,1000.56 1291.5,999.5C 1285.9,984.861 1275.24,978.694 1259.5,981C 1256.2,981.487 1253.2,982.653 1250.5,984.5C 1248.04,973.638 1246.88,962.638 1247,951.5C 1249.19,960.446 1250.86,969.446 1252,978.5C 1303.58,961.136 1340.08,927.469 1361.5,877.5 Z"/></g>
<g><path style="opacity:1" fill="#fefdfd" d="M 953.5,1506.5 C 949.941,1501.78 949.607,1496.78 952.5,1491.5C 955.319,1493.1 958.319,1493.6 961.5,1493C 962.856,1490.59 962.522,1488.42 960.5,1486.5C 997.347,1464.8 1021.18,1433.13 1032,1391.5C 1039.27,1357.29 1036.1,1324.12 1022.5,1292C 1022.64,1291.23 1022.98,1290.56 1023.5,1290C 1038.72,1285.43 1051.22,1276.93 1061,1264.5C 1071.33,1248.36 1077.16,1230.69 1078.5,1211.5C 1077.38,1187.9 1066.38,1170.74 1045.5,1160C 1029.13,1154.42 1012.47,1153.08 995.5,1156C 989.475,1147.98 982.809,1140.65 975.5,1134C 981.96,1085.45 988.793,1036.95 996,988.5C 996.667,985.5 996.667,982.5 996,979.5C 991.594,976.248 988.594,977.248 987,982.5C 980.662,1031.87 974.162,1081.2 967.5,1130.5C 937.489,1122.13 911.322,1128.8 889,1150.5C 885.325,1145.33 881.492,1140.33 877.5,1135.5C 894.156,1076.54 910.656,1017.54 927,958.5C 936.28,928.883 955.114,907.717 983.5,895C 1006.46,885.735 1029.46,876.568 1052.5,867.5C 1053.33,897.501 1053.83,927.501 1054,957.5C 1038.51,964.328 1028.84,975.994 1025,992.5C 1024.33,1034.17 1024.33,1075.83 1025,1117.5C 1026.5,1123 1030,1126.5 1035.5,1128C 1044.5,1130.25 1051.33,1127.41 1056,1119.5C 1057.32,1078.23 1057.98,1036.89 1058,995.5C 1059.46,993.04 1061.29,990.873 1063.5,989C 1072.43,985.865 1078.6,988.698 1082,997.5C 1082.33,1037.5 1082.67,1077.5 1083,1117.5C 1086.99,1127.07 1094.15,1130.57 1104.5,1128C 1108.97,1126.19 1112.14,1123.03 1114,1118.5C 1110.92,1145.49 1107.58,1172.49 1104,1199.5C 1099.58,1207.19 1098.41,1215.35 1100.5,1224C 1096.46,1255.18 1092.29,1286.34 1088,1317.5C 1085.06,1330.64 1088.9,1341.14 1099.5,1349C 1111.57,1352.51 1123.9,1354.68 1136.5,1355.5C 1129.84,1428.11 1123.84,1500.77 1118.5,1573.5C 1056.67,1567.4 1001.67,1545.07 953.5,1506.5 Z"/></g>
<g><path style="opacity:1" fill="#af9f9a" d="M 1386.5,995.5 C 1381.5,995.5 1376.5,995.5 1371.5,995.5C 1371.5,968.833 1371.5,942.167 1371.5,915.5C 1371.17,897.155 1371.5,878.821 1372.5,860.5C 1377.06,862.073 1381.56,863.74 1386,865.5C 1386.5,908.832 1386.67,952.165 1386.5,995.5 Z"/></g>
<g><path style="opacity:1" fill="#814246" d="M 1286.5,800.5 C 1286.56,799.957 1286.89,799.624 1287.5,799.5C 1288.82,811.327 1288.82,822.993 1287.5,834.5C 1287.5,827.5 1287.5,820.5 1287.5,813.5C 1287.82,808.968 1287.48,804.634 1286.5,800.5 Z"/></g>
<g><path style="opacity:1" fill="#fe9498" d="M 1287.5,813.5 C 1287.5,820.5 1287.5,827.5 1287.5,834.5C 1262.32,852.005 1234.32,861.338 1203.5,862.5C 1178.59,861.704 1157.25,852.704 1139.5,835.5C 1139.17,828.8 1139.5,822.134 1140.5,815.5C 1189.58,822.476 1238.58,821.809 1287.5,813.5 Z"/></g>
<g><path style="opacity:1" fill="#e1737a" d="M 1286.5,800.5 C 1287.48,804.634 1287.82,808.968 1287.5,813.5C 1238.58,821.809 1189.58,822.476 1140.5,815.5C 1139.5,822.134 1139.17,828.8 1139.5,835.5C 1138.51,824.679 1138.17,813.679 1138.5,802.5C 1156.04,805.323 1173.71,806.99 1191.5,807.5C 1223.45,808.786 1255.12,806.453 1286.5,800.5 Z"/></g>
<g><path style="opacity:1" fill="#fdfdfd" d="M 1122.5,800.5 C 1124.83,800.5 1127.17,800.5 1129.5,800.5C 1129.04,813.932 1129.54,827.265 1131,840.5C 1148.3,857.9 1169.13,868.567 1193.5,872.5C 1172.13,900.439 1160.96,932.106 1160,967.5C 1115.8,943.29 1090.64,906.123 1084.5,856C 1087.05,841.407 1093.21,828.573 1103,817.5C 1109.1,811.226 1115.6,805.559 1122.5,800.5 Z"/></g>
<g><path style="opacity:1" fill="#fefdfd" d="M 1321.5,799.5 C 1340.01,812.325 1353.68,829.158 1362.5,850C 1347.08,906.024 1312.58,945.19 1259,967.5C 1252.03,932.555 1236.86,901.888 1213.5,875.5C 1212.86,874.518 1212.19,873.518 1211.5,872.5C 1242.52,868.82 1270.85,858.154 1296.5,840.5C 1297.5,826.182 1297.83,811.849 1297.5,797.5C 1302,796.583 1306.5,795.583 1311,794.5C 1314.6,795.927 1318.1,797.594 1321.5,799.5 Z"/></g>
<g><path style="opacity:1" fill="#5e3034" d="M 986.5,604.5 C 986.249,607.909 986.583,611.242 987.5,614.5C 987.043,615.298 986.376,615.631 985.5,615.5C 969.981,611.115 956.814,614.781 946,626.5C 936.544,645.14 940.377,660.64 957.5,673C 964.628,677.209 972.295,679.709 980.5,680.5C 980.167,681.167 979.833,681.833 979.5,682.5C 966.163,682 954.163,677.833 943.5,670C 934.924,660.815 931.758,649.981 934,637.5C 942.508,612.586 959.342,604.586 984.5,613.5C 985.167,610.358 985.834,607.358 986.5,604.5 Z"/></g>
<g><path style="opacity:1" fill="#e1737a" d="M 985.5,615.5 C 984.013,637.317 982.346,658.984 980.5,680.5C 972.295,679.709 964.628,677.209 957.5,673C 940.377,660.64 936.544,645.14 946,626.5C 956.814,614.781 969.981,611.115 985.5,615.5 Z"/></g>
<g><path style="opacity:1" fill="#fd9397" d="M 986.5,604.5 C 985.834,607.358 985.167,610.358 984.5,613.5C 959.342,604.586 942.508,612.586 934,637.5C 931.758,649.981 934.924,660.815 943.5,670C 954.163,677.833 966.163,682 979.5,682.5C 981.097,690.325 982.43,698.325 983.5,706.5C 957.152,706.905 934.986,697.571 917,678.5C 897.09,650.663 897.757,623.329 919,596.5C 937.886,576.039 960.719,569.706 987.5,577.5C 987.119,586.498 986.786,595.498 986.5,604.5 Z"/></g>
<g><path style="opacity:1" fill="#bdaca5" d="M 1032.5,1105.5 C 1032.5,1071.5 1032.5,1037.5 1032.5,1003.5C 1033.36,1002.31 1034.36,1001.15 1035.5,1000C 1039.17,999.333 1042.83,999.333 1046.5,1000C 1047,1000.5 1047.5,1001 1048,1001.5C 1048.83,1037.17 1048.67,1072.84 1047.5,1108.5C 1046.69,1108.81 1046.03,1109.31 1045.5,1110C 1039.77,1111.76 1035.43,1110.26 1032.5,1105.5 Z"/></g>
<g><path style="opacity:1" fill="#bcaba4" d="M 1106.5,1001.5 C 1106.67,1039.83 1106.5,1078.17 1106,1116.5C 1104.14,1118.95 1101.64,1119.95 1098.5,1119.5C 1095.36,1119.95 1092.86,1118.95 1091,1116.5C 1090.5,1078.5 1090.33,1040.5 1090.5,1002.5C 1091.27,1001.83 1091.93,1000.99 1092.5,1000C 1097.39,999.034 1102.06,999.534 1106.5,1001.5 Z"/></g>
<g><path style="opacity:1" fill="#7c4d53" d="M 1166.5,1007.5 C 1158.25,1006.54 1152.42,1009.88 1149,1017.5C 1142.26,1064.43 1136.09,1111.43 1130.5,1158.5C 1128.55,1167.35 1127.55,1176.35 1127.5,1185.5C 1129.48,1185.84 1130.82,1185.18 1131.5,1183.5C 1132.4,1184.21 1132.74,1185.21 1132.5,1186.5C 1125.82,1185.66 1119.65,1187 1114,1190.5C 1120.89,1133.14 1128.23,1075.81 1136,1018.5C 1138.36,1009.82 1144.02,1005.49 1153,1005.5C 1157.71,1005.73 1162.21,1006.4 1166.5,1007.5 Z"/></g>
<g><path style="opacity:1" fill="#8a5b60" d="M 1166.5,1007.5 C 1178.86,1008.57 1191.2,1009.91 1203.5,1011.5C 1203.23,1009.9 1203.57,1008.57 1204.5,1007.5C 1204.29,1009.14 1204.62,1010.64 1205.5,1012C 1240.87,1016.77 1276.2,1021.6 1311.5,1026.5C 1251.74,1071.22 1191.4,1115.22 1130.5,1158.5C 1136.09,1111.43 1142.26,1064.43 1149,1017.5C 1152.42,1009.88 1158.25,1006.54 1166.5,1007.5 Z"/></g>
<g><path style="opacity:1" fill="#ae9d99" d="M 1392.5,1079.5 C 1405.17,1071.54 1409.67,1060.21 1406,1045.5C 1400.68,1033.02 1391.18,1026.69 1377.5,1026.5C 1368.86,1025.27 1360.19,1024.1 1351.5,1023C 1368.65,1009.81 1386.32,1009.14 1404.5,1021C 1423.72,1038.5 1426.55,1058.34 1413,1080.5C 1407.28,1087.61 1400.12,1092.61 1391.5,1095.5C 1390.38,1089.97 1390.71,1084.64 1392.5,1079.5 Z"/></g>
<g><path style="opacity:1" fill="#986469" d="M 1311.5,1026.5 C 1315.86,1026.59 1320.19,1026.92 1324.5,1027.5C 1338.97,1030 1353.63,1032 1368.5,1033.5C 1324.02,1066.47 1279.35,1099.3 1234.5,1132C 1231.96,1132.19 1229.63,1132.69 1227.5,1133.5C 1213.62,1136.38 1204.95,1144.72 1201.5,1158.5C 1192.1,1155.31 1182.77,1151.81 1173.5,1148C 1155.5,1143.21 1142,1148.71 1133,1164.5C 1131.63,1170.74 1131.13,1177.07 1131.5,1183.5C 1130.82,1185.18 1129.48,1185.84 1127.5,1185.5C 1127.55,1176.35 1128.55,1167.35 1130.5,1158.5C 1191.4,1115.22 1251.74,1071.22 1311.5,1026.5 Z"/></g>
<g><path style="opacity:1" fill="#8c7d7a" d="M 1377.5,1026.5 C 1391.18,1026.69 1400.68,1033.02 1406,1045.5C 1409.67,1060.21 1405.17,1071.54 1392.5,1079.5C 1393.84,1067.84 1394.67,1056.17 1395,1044.5C 1392.32,1035.32 1386.48,1029.32 1377.5,1026.5 Z"/></g>
<g><path style="opacity:1" fill="#895a60" d="M 1368.5,1033.5 C 1379.85,1034.02 1386.18,1039.85 1387.5,1051C 1384.45,1074.69 1381.12,1098.19 1377.5,1121.5C 1363.51,1130.83 1349.84,1140.67 1336.5,1151C 1337.06,1151.38 1337.39,1151.88 1337.5,1152.5C 1334.55,1151.53 1331.55,1151.37 1328.5,1152C 1325.63,1156.92 1322.63,1161.75 1319.5,1166.5C 1310.39,1157.1 1299.72,1149.94 1287.5,1145C 1267.97,1138.53 1247.97,1134.69 1227.5,1133.5C 1229.63,1132.69 1231.96,1132.19 1234.5,1132C 1279.35,1099.3 1324.02,1066.47 1368.5,1033.5 Z"/></g>
<g><path style="opacity:1" fill="#976469" d="M 1377.5,1121.5 C 1376.43,1133.54 1375.1,1145.54 1373.5,1157.5C 1361.5,1155.83 1349.5,1154.17 1337.5,1152.5C 1337.39,1151.88 1337.06,1151.38 1336.5,1151C 1349.84,1140.67 1363.51,1130.83 1377.5,1121.5 Z"/></g>
<g><path style="opacity:1" fill="#fd9397" d="M 836.5,1134.5 C 859.878,1131.6 876.045,1140.93 885,1162.5C 888.883,1174.58 891.216,1186.91 892,1199.5C 888.984,1211.37 881.484,1216.71 869.5,1215.5C 866.976,1203.5 863.976,1191.67 860.5,1180C 858.888,1179.28 857.388,1179.45 856,1180.5C 857.987,1192.13 860.154,1203.8 862.5,1215.5C 860.217,1231.93 850.884,1238.43 834.5,1235C 832.391,1233.86 830.558,1232.36 829,1230.5C 825.796,1217.22 822.796,1203.89 820,1190.5C 818.274,1189.42 816.441,1189.26 814.5,1190C 813.978,1190.56 813.645,1191.23 813.5,1192C 817.082,1206.49 820.249,1220.99 823,1235.5C 810.751,1244.25 799.417,1243.25 789,1232.5C 788,1230.5 787,1228.5 786,1226.5C 782.255,1207.77 778.255,1189.11 774,1170.5C 772.301,1169.59 770.467,1169.26 768.5,1169.5C 768.685,1174.57 769.352,1179.57 770.5,1184.5C 760.535,1186.63 750.535,1188.63 740.5,1190.5C 742.32,1169.84 753.32,1157.01 773.5,1152C 786.073,1150.44 798.406,1147.77 810.5,1144C 819.019,1140.11 827.686,1136.94 836.5,1134.5 Z"/></g>
<g><path style="opacity:1" fill="#e58c6c" d="M 978.5,1275.5 C 966.764,1268.09 957.764,1258.09 951.5,1245.5C 955.235,1243.88 958.735,1241.88 962,1239.5C 964.788,1235.33 965.121,1231 963,1226.5C 957.533,1219.52 950.366,1216.52 941.5,1217.5C 941.057,1213.35 940.723,1209.18 940.5,1205C 940.885,1199.44 941.385,1193.94 942,1188.5C 940.063,1192.65 938.729,1196.98 938,1201.5C 937.439,1202.02 936.772,1202.36 936,1202.5C 927.51,1198.83 918.677,1197 909.5,1197C 918.52,1200.01 927.186,1203.84 935.5,1208.5C 936.833,1211.5 936.833,1214.5 935.5,1217.5C 923.341,1223.78 922.341,1231.62 932.5,1241C 935.893,1243.08 939.56,1244.24 943.5,1244.5C 943.673,1247.18 944.673,1249.51 946.5,1251.5C 929.313,1247.84 916.48,1253.84 908,1269.5C 900.889,1288.97 905.056,1305.47 920.5,1319C 935.441,1327.69 948.941,1325.85 961,1313.5C 968.881,1301.77 971.215,1289.1 968,1275.5C 969.432,1277.44 971.265,1278.77 973.5,1279.5C 985.741,1286.9 999.074,1290.56 1013.5,1290.5C 1014.5,1293.83 1015.5,1297.17 1016.5,1300.5C 981.173,1322.32 971.339,1352.65 987,1391.5C 993.733,1402.4 1002.57,1411.07 1013.5,1417.5C 1011.87,1422.09 1009.7,1426.42 1007,1430.5C 992.229,1452.61 973.395,1470.28 950.5,1483.5C 902.72,1507.81 852.053,1518.31 798.5,1515C 785.086,1513.63 771.752,1511.79 758.5,1509.5C 758.389,1508.88 758.056,1508.38 757.5,1508C 773.691,1482.72 775.858,1456.22 764,1428.5C 745.016,1394.71 716.183,1380.54 677.5,1386C 663.69,1388.5 651.69,1394.5 641.5,1404C 640.552,1404.48 639.552,1404.65 638.5,1404.5C 634.806,1389.01 633.806,1373.34 635.5,1357.5C 656,1356 671.834,1346.67 683,1329.5C 696.026,1303.92 696.859,1277.92 685.5,1251.5C 692.253,1241.25 700.253,1232.08 709.5,1224C 708.5,1223.33 707.5,1223.33 706.5,1224C 696.705,1228.73 688.705,1235.56 682.5,1244.5C 678.667,1239.5 674.833,1234.5 671,1229.5C 684.866,1253.02 689.199,1278.35 684,1305.5C 680.659,1322.16 671.825,1335 657.5,1344C 627.755,1355.45 599.755,1352.12 573.5,1334C 556.116,1321.9 547.449,1305.23 547.5,1284C 550.329,1251.01 567.996,1231.51 600.5,1225.5C 601.705,1218.01 603.538,1210.68 606,1203.5C 623.562,1163.63 652.729,1151.13 693.5,1166C 708.932,1175.43 721.765,1187.6 732,1202.5C 744.675,1198.62 757.508,1195.29 770.5,1192.5C 773.219,1206.26 776.385,1219.93 780,1233.5C 782.139,1236.94 784.639,1240.11 787.5,1243C 801.721,1251.9 815.721,1251.4 829.5,1241.5C 833.189,1243.73 837.189,1244.73 841.5,1244.5C 855.517,1244.35 864.517,1237.68 868.5,1224.5C 891.125,1223.71 901.625,1212.04 900,1189.5C 897.893,1181.19 895.893,1172.86 894,1164.5C 893.333,1162.17 893.333,1159.83 894,1157.5C 903.345,1147.74 914.511,1140.91 927.5,1137C 956.401,1131.04 977.901,1140.87 992,1166.5C 1000.07,1163.78 1008.4,1162.44 1017,1162.5C 1045.61,1162.78 1063.28,1176.78 1070,1204.5C 1070.22,1222.63 1065.88,1239.63 1057,1255.5C 1036.28,1283.39 1010.11,1290.06 978.5,1275.5 Z"/></g>
<g><path style="opacity:1" fill="#fd9498" d="M 1304.5,1164.5 C 1291.39,1194.17 1282.89,1225.17 1279,1257.5C 1277.56,1272.49 1276.39,1287.49 1275.5,1302.5C 1258.82,1308.75 1241.49,1310.92 1223.5,1309C 1206.04,1305.97 1188.71,1302.3 1171.5,1298C 1157.37,1292.23 1150.37,1281.73 1150.5,1266.5C 1170.24,1271.46 1190.24,1275.13 1210.5,1277.5C 1214.99,1277.17 1216.49,1274.83 1215,1270.5C 1214.5,1270 1214,1269.5 1213.5,1269C 1193.48,1267.72 1173.81,1264.39 1154.5,1259C 1140.16,1254.42 1127.66,1246.92 1117,1236.5C 1112.97,1231.78 1109.97,1226.45 1108,1220.5C 1107.37,1202.13 1116.21,1193.63 1134.5,1195C 1149.89,1207.36 1167.22,1216.03 1186.5,1221C 1201.3,1225.09 1216.3,1227.76 1231.5,1229C 1234.17,1226.33 1234.17,1223.67 1231.5,1221C 1202.89,1217.35 1175.55,1209.35 1149.5,1197C 1139.78,1188.17 1137.28,1177.67 1142,1165.5C 1148.87,1156.21 1158.04,1153.04 1169.5,1156C 1184.62,1162.22 1199.95,1167.89 1215.5,1173C 1232.8,1178.53 1250.47,1181.86 1268.5,1183C 1271.17,1180.33 1271.17,1177.67 1268.5,1175C 1248.69,1172.05 1229.35,1167.21 1210.5,1160.5C 1211.34,1152.44 1215.67,1146.61 1223.5,1143C 1229.08,1141.48 1234.75,1141.15 1240.5,1142C 1255.68,1144.92 1270.68,1148.59 1285.5,1153C 1292.56,1155.85 1298.9,1159.69 1304.5,1164.5 Z"/></g>
<g><path style="opacity:1" fill="#bcabad" d="M 1382.5,1154.5 C 1382.5,1155.83 1382.5,1157.17 1382.5,1158.5C 1383.79,1158.26 1384.79,1158.6 1385.5,1159.5C 1384.17,1159.5 1382.83,1159.5 1381.5,1159.5C 1381.22,1157.59 1381.55,1155.92 1382.5,1154.5 Z"/></g>
<g><path style="opacity:1" fill="#e1737a" d="M 1304.5,1164.5 C 1308.97,1167.13 1312.63,1170.63 1315.5,1175C 1302.89,1204.93 1295.06,1236.1 1292,1268.5C 1291.1,1277.82 1290.43,1287.15 1290,1296.5C 1285.51,1299.38 1280.68,1301.38 1275.5,1302.5C 1276.39,1287.49 1277.56,1272.49 1279,1257.5C 1282.89,1225.17 1291.39,1194.17 1304.5,1164.5 Z"/></g>
<g><path style="opacity:1" fill="#ef9473" d="M 1017.5,1169.5 C 1040.42,1167.87 1055.59,1177.87 1063,1199.5C 1067.27,1217.92 1062.77,1233.76 1049.5,1247C 1035.94,1256.11 1021.94,1256.78 1007.5,1249C 989.357,1233.88 984.191,1215.05 992,1192.5C 997.23,1181.1 1005.73,1173.43 1017.5,1169.5 Z"/></g>
<g><path style="opacity:1" fill="#e8d3d6" d="M 1340.5,1166.5 C 1344.49,1166.65 1345.99,1168.65 1345,1172.5C 1343.88,1175.25 1342.38,1177.75 1340.5,1180C 1335.9,1181.58 1334.07,1180.08 1335,1175.5C 1336.36,1172.1 1338.19,1169.1 1340.5,1166.5 Z"/></g>
<g><path style="opacity:1" fill="#e8d3d6" d="M 1330.5,1187.5 C 1333.93,1186.76 1335.6,1188.09 1335.5,1191.5C 1334.96,1194.25 1334.13,1196.91 1333,1199.5C 1329.81,1202.41 1327.31,1201.91 1325.5,1198C 1326.51,1194.14 1328.18,1190.64 1330.5,1187.5 Z"/></g>
<g><path style="opacity:1" fill="#532b2e" d="M 480.5,1180.5 C 482.527,1180.34 484.527,1180.5 486.5,1181C 493.394,1187.73 500.727,1193.9 508.5,1199.5C 512.551,1195.28 517.051,1191.62 522,1188.5C 526.586,1189.41 528.252,1192.07 527,1196.5C 523.167,1199.67 519.667,1203.17 516.5,1207C 521.667,1211.5 526.833,1216 532,1220.5C 532.989,1225.84 530.822,1228.34 525.5,1228C 520.979,1223.98 516.312,1220.14 511.5,1216.5C 508.238,1220.69 505.738,1225.35 504,1230.5C 502.011,1235.64 500.178,1240.8 498.5,1246C 502.42,1247.31 506.42,1248.31 510.5,1249C 515.7,1251.14 516.7,1254.47 513.5,1259C 507.763,1259.69 502.263,1258.86 497,1256.5C 496.667,1256.83 496.333,1257.17 496,1257.5C 493.958,1268.1 492.958,1278.76 493,1289.5C 499.986,1286.79 507.153,1285.79 514.5,1286.5C 517.32,1289.72 516.987,1292.55 513.5,1295C 506.869,1296.79 500.202,1298.46 493.5,1300C 495.026,1304.25 496.36,1308.58 497.5,1313C 497.025,1316.14 495.192,1317.98 492,1318.5C 487.296,1315.1 484.63,1310.44 484,1304.5C 483.481,1303.48 482.647,1302.82 481.5,1302.5C 471.622,1305.31 461.622,1307.14 451.5,1308C 447.471,1303.94 448.137,1300.61 453.5,1298C 462.859,1295.9 472.192,1293.73 481.5,1291.5C 482.176,1278.76 483.51,1266.09 485.5,1253.5C 469.96,1250.49 454.627,1246.66 439.5,1242C 437.355,1237.37 438.689,1234.2 443.5,1232.5C 458.012,1236.1 472.512,1239.77 487,1243.5C 490.699,1235.76 494.032,1227.76 497,1219.5C 498.579,1216.01 500.413,1212.67 502.5,1209.5C 494.543,1202.71 486.71,1195.71 479,1188.5C 476.899,1185.31 477.399,1182.64 480.5,1180.5 Z"/></g>
<g><path style="opacity:1" fill="#e9d4d7" d="M 1322.5,1208.5 C 1325.86,1207.87 1327.86,1209.21 1328.5,1212.5C 1327.4,1215.29 1326.4,1218.12 1325.5,1221C 1322.03,1224.62 1319.7,1223.96 1318.5,1219C 1319.16,1215.18 1320.49,1211.68 1322.5,1208.5 Z"/></g>
<g><path style="opacity:1" fill="#e8d3d6" d="M 1315.5,1230.5 C 1317.2,1230.34 1318.87,1230.51 1320.5,1231C 1321.52,1234.8 1321.35,1238.63 1320,1242.5C 1318.58,1244.36 1316.75,1244.86 1314.5,1244C 1313.2,1243.2 1312.53,1242.03 1312.5,1240.5C 1313.2,1237.04 1314.2,1233.71 1315.5,1230.5 Z"/></g>
<g><path style="opacity:1" fill="#7c4d53" d="M 1118.5,1249.5 C 1115.02,1271.29 1112.02,1293.29 1109.5,1315.5C 1107.95,1322.2 1107.79,1328.87 1109,1335.5C 1110.64,1339.3 1113.14,1342.3 1116.5,1344.5C 1103.88,1344.87 1096.88,1338.87 1095.5,1326.5C 1098.83,1297.01 1103,1267.68 1108,1238.5C 1111.03,1242.69 1114.53,1246.36 1118.5,1249.5 Z"/></g>
<g><path style="opacity:1" fill="#ef9472" d="M 584.5,1242.5 C 608.04,1242.87 622.54,1254.54 628,1277.5C 630.608,1294.6 625.775,1309.1 613.5,1321C 591.191,1333.45 573.691,1328.62 561,1306.5C 550.999,1285.33 554.166,1266.49 570.5,1250C 575.155,1247.11 579.822,1244.61 584.5,1242.5 Z"/></g>
<g><path style="opacity:1" fill="#4e2426" d="M 717.5,1249.5 C 737.729,1248.63 744.229,1257.63 737,1276.5C 728.488,1288.23 717.654,1291.4 704.5,1286C 702.383,1284.27 700.883,1282.1 700,1279.5C 697.592,1269.49 700.425,1261.32 708.5,1255C 711.564,1253.14 714.564,1251.31 717.5,1249.5 Z"/></g>
<g><path style="opacity:1" fill="#4e2426" d="M 978.5,1275.5 C 976.636,1275.32 974.636,1275.82 972.5,1277C 973.252,1277.67 973.586,1278.5 973.5,1279.5C 971.265,1278.77 969.432,1277.44 968,1275.5C 971.215,1289.1 968.881,1301.77 961,1313.5C 948.941,1325.85 935.441,1327.69 920.5,1319C 905.056,1305.47 900.889,1288.97 908,1269.5C 916.48,1253.84 929.313,1247.84 946.5,1251.5C 944.673,1249.51 943.673,1247.18 943.5,1244.5C 939.56,1244.24 935.893,1243.08 932.5,1241C 922.341,1231.62 923.341,1223.78 935.5,1217.5C 936.833,1214.5 936.833,1211.5 935.5,1208.5C 927.186,1203.84 918.52,1200.01 909.5,1197C 918.677,1197 927.51,1198.83 936,1202.5C 936.772,1202.36 937.439,1202.02 938,1201.5C 938.729,1196.98 940.063,1192.65 942,1188.5C 941.385,1193.94 940.885,1199.44 940.5,1205C 940.723,1209.18 941.057,1213.35 941.5,1217.5C 950.366,1216.52 957.533,1219.52 963,1226.5C 965.121,1231 964.788,1235.33 962,1239.5C 958.735,1241.88 955.235,1243.88 951.5,1245.5C 957.764,1258.09 966.764,1268.09 978.5,1275.5 Z"/></g>
<g><path style="opacity:1" fill="#895a60" d="M 1118.5,1249.5 C 1125.48,1254.33 1132.81,1258.66 1140.5,1262.5C 1141.06,1271.71 1143.39,1280.38 1147.5,1288.5C 1134.83,1297.5 1122.17,1306.5 1109.5,1315.5C 1112.02,1293.29 1115.02,1271.29 1118.5,1249.5 Z"/></g>
<g><path style="opacity:1" fill="#e9d4d7" d="M 1311.5,1252.5 C 1315.18,1251.92 1317.18,1253.42 1317.5,1257C 1317.02,1259.89 1316.36,1262.72 1315.5,1265.5C 1313.31,1266.77 1311.14,1266.77 1309,1265.5C 1308.12,1260.77 1308.96,1256.44 1311.5,1252.5 Z"/></g>
<g><path style="opacity:1" fill="#fbfafa" d="M 937.5,1259.5 C 950.543,1259.37 956.376,1265.7 955,1278.5C 950.442,1287.86 943.275,1290.69 933.5,1287C 925.045,1279.58 924.378,1271.58 931.5,1263C 933.727,1262.06 935.727,1260.89 937.5,1259.5 Z"/></g>
<g><path style="opacity:1" fill="#e8d4d6" d="M 1308.5,1274.5 C 1312.58,1274.08 1314.58,1275.91 1314.5,1280C 1314.24,1282.55 1313.74,1285.05 1313,1287.5C 1307.5,1290.87 1305.34,1289.2 1306.5,1282.5C 1306.29,1279.51 1306.96,1276.85 1308.5,1274.5 Z"/></g>
<g><path style="opacity:1" fill="#4e2426" d="M 759.5,1280.5 C 786.155,1280.31 802.321,1293.31 808,1319.5C 810.678,1341.19 802.844,1357.69 784.5,1369C 763.74,1376.3 747.24,1370.8 735,1352.5C 722.276,1328.5 725.442,1307 744.5,1288C 749.324,1284.92 754.324,1282.42 759.5,1280.5 Z"/></g>
<g><path style="opacity:1" fill="#986469" d="M 1147.5,1288.5 C 1152.11,1295.94 1158.45,1301.44 1166.5,1305C 1187.83,1311.11 1209.5,1315.28 1231.5,1317.5C 1237.01,1318.17 1242.68,1318.83 1248.5,1319.5C 1232.76,1331.91 1216.76,1343.91 1200.5,1355.5C 1172.52,1351.7 1144.52,1348.04 1116.5,1344.5C 1113.14,1342.3 1110.64,1339.3 1109,1335.5C 1107.79,1328.87 1107.95,1322.2 1109.5,1315.5C 1122.17,1306.5 1134.83,1297.5 1147.5,1288.5 Z"/></g>
<g><path style="opacity:1" fill="#fcfbfb" d="M 766.5,1292.5 C 785.694,1291.19 793.194,1299.85 789,1318.5C 782.02,1328.27 773.186,1330.44 762.5,1325C 754.979,1317.66 753.479,1309.16 758,1299.5C 760.628,1296.79 763.461,1294.46 766.5,1292.5 Z"/></g>
<g><path style="opacity:1" fill="#e8d2d5" d="M 1307.5,1296.5 C 1309.39,1296.3 1310.89,1296.96 1312,1298.5C 1312.67,1302.5 1312.67,1306.5 1312,1310.5C 1310,1311.83 1308,1311.83 1306,1310.5C 1304.97,1305.54 1305.47,1300.88 1307.5,1296.5 Z"/></g>
<g><path style="opacity:1" fill="#d97f5d" d="M 1016.5,1300.5 C 1019.86,1307.42 1022.36,1314.76 1024,1322.5C 1031.41,1355.51 1027.91,1387.17 1013.5,1417.5C 1002.57,1411.07 993.733,1402.4 987,1391.5C 971.339,1352.65 981.173,1322.32 1016.5,1300.5 Z"/></g>
<g><path style="opacity:1" fill="#895a60" d="M 1200.5,1355.5 C 1216.76,1343.91 1232.76,1331.91 1248.5,1319.5C 1242.68,1318.83 1237.01,1318.17 1231.5,1317.5C 1251.42,1318.58 1270.42,1314.92 1288.5,1306.5C 1289.18,1315.39 1289.85,1324.23 1290.5,1333C 1309.8,1336.49 1329.14,1339.66 1348.5,1342.5C 1348.07,1350.41 1346.57,1358.08 1344,1365.5C 1338.64,1372.08 1331.81,1374.25 1323.5,1372C 1282.42,1366.9 1241.42,1361.4 1200.5,1355.5 Z"/></g>
<g><path style="opacity:1" fill="#4e2426" d="M 935.5,1346.5 C 933.493,1361.01 926.493,1372.51 914.5,1381C 909.608,1384.07 904.608,1386.9 899.5,1389.5C 909.475,1396.66 920.475,1399.16 932.5,1397C 942.423,1390.37 945.09,1381.87 940.5,1371.5C 950.298,1380.38 950.965,1389.88 942.5,1400C 926.558,1407.88 911.058,1407.05 896,1397.5C 882.596,1408.95 867.096,1415.62 849.5,1417.5C 837.563,1417.73 830.063,1412.06 827,1400.5C 826.133,1396.04 826.466,1391.71 828,1387.5C 830.179,1403.69 839.346,1410.85 855.5,1409C 867.948,1405.78 878.948,1399.94 888.5,1391.5C 869.246,1391.07 855.746,1382.07 848,1364.5C 845.71,1379.15 838.71,1382.15 827,1373.5C 823.856,1366.88 822.689,1359.88 823.5,1352.5C 828.908,1335.93 840.241,1325.77 857.5,1322C 874.945,1317.85 892.611,1316.52 910.5,1318C 926.57,1320.89 934.904,1330.39 935.5,1346.5 Z"/></g>
<g><path style="opacity:1" fill="#5d2b2e" d="M 891.5,1322.5 C 902.444,1321.18 912.777,1323.01 922.5,1328C 932.927,1339.67 931.26,1349.34 917.5,1357C 904.419,1362.27 891.752,1361.6 879.5,1355C 869.04,1346.06 869.04,1337.06 879.5,1328C 883.475,1325.85 887.475,1324.02 891.5,1322.5 Z"/></g>
<g><path style="opacity:1" fill="#fefefe" d="M 1356.5,1344.5 C 1397.81,1351.71 1439.14,1358.88 1480.5,1366C 1492.46,1367.34 1504.46,1367.84 1516.5,1367.5C 1522.63,1406.8 1528.63,1446.13 1534.5,1485.5C 1534.88,1488.32 1533.88,1490.49 1531.5,1492C 1483.34,1525.9 1430.34,1549.24 1372.5,1562C 1349.08,1567.35 1325.41,1571.18 1301.5,1573.5C 1300.91,1573.29 1300.41,1572.96 1300,1572.5C 1294.17,1506.85 1288.67,1441.19 1283.5,1375.5C 1298.34,1377.2 1313.17,1378.87 1328,1380.5C 1339.47,1381.35 1347.8,1376.68 1353,1366.5C 1354.98,1359.3 1356.15,1351.97 1356.5,1344.5 Z"/></g>
<g><path style="opacity:1" fill="#f4aa90" d="M 935.5,1346.5 C 962.456,1368.79 966.622,1394.79 948,1424.5C 929.654,1445.46 906.487,1456.12 878.5,1456.5C 854.167,1456.67 833.333,1448.34 816,1431.5C 800.11,1410.92 798.443,1389.26 811,1366.5C 814.29,1361.04 818.457,1356.38 823.5,1352.5C 822.689,1359.88 823.856,1366.88 827,1373.5C 838.71,1382.15 845.71,1379.15 848,1364.5C 855.746,1382.07 869.246,1391.07 888.5,1391.5C 878.948,1399.94 867.948,1405.78 855.5,1409C 839.346,1410.85 830.179,1403.69 828,1387.5C 826.466,1391.71 826.133,1396.04 827,1400.5C 830.063,1412.06 837.563,1417.73 849.5,1417.5C 867.096,1415.62 882.596,1408.95 896,1397.5C 911.058,1407.05 926.558,1407.88 942.5,1400C 950.965,1389.88 950.298,1380.38 940.5,1371.5C 945.09,1381.87 942.423,1390.37 932.5,1397C 920.475,1399.16 909.475,1396.66 899.5,1389.5C 904.608,1386.9 909.608,1384.07 914.5,1381C 926.493,1372.51 933.493,1361.01 935.5,1346.5 Z"/></g>
<g><path style="opacity:1" fill="#e7a26c" d="M 1144.5,1356.5 C 1187.8,1362.43 1231.14,1368.1 1274.5,1373.5C 1275.58,1381.8 1276.25,1390.13 1276.5,1398.5C 1231.2,1402.09 1185.87,1402.42 1140.5,1399.5C 1141.67,1385.15 1143,1370.82 1144.5,1356.5 Z"/></g>
<g><path style="opacity:1" fill="#7b6871" d="M 616.5,1358.5 C 620.167,1358.5 623.833,1358.5 627.5,1358.5C 627.813,1362.04 627.479,1365.38 626.5,1368.5C 626.5,1365.5 626.5,1362.5 626.5,1359.5C 622.958,1359.81 619.625,1359.48 616.5,1358.5 Z"/></g>
<g><path style="opacity:1" fill="#d97f5d" d="M 758.5,1509.5 C 704.216,1500.57 665.883,1471.24 643.5,1421.5C 641.984,1415.77 640.318,1410.1 638.5,1404.5C 639.552,1404.65 640.552,1404.48 641.5,1404C 651.69,1394.5 663.69,1388.5 677.5,1386C 716.183,1380.54 745.016,1394.71 764,1428.5C 775.858,1456.22 773.691,1482.72 757.5,1508C 758.056,1508.38 758.389,1508.88 758.5,1509.5 Z"/></g>
<g><path style="opacity:1" fill="#8f8892" d="M 629.5,1402.5 C 630.124,1402.92 630.457,1403.58 630.5,1404.5C 630.253,1405.71 629.586,1406.38 628.5,1406.5C 629.234,1405.29 629.567,1403.96 629.5,1402.5 Z"/></g>
<g><path style="opacity:1" fill="#423a66" d="M 1183.5,1622.5 C 1183.17,1622.5 1182.83,1622.5 1182.5,1622.5C 1138.66,1622.83 1095,1622.5 1051.5,1621.5C 1059.49,1596.99 1052.15,1578.83 1029.5,1567C 1021.45,1563.88 1013.11,1562.88 1004.5,1564C 999.068,1565.2 993.734,1566.7 988.5,1568.5C 982.375,1566.8 976.375,1564.8 970.5,1562.5C 970.135,1551.99 971.135,1541.66 973.5,1531.5C 1019.73,1561.58 1070.4,1578.24 1125.5,1581.5C 1130.26,1523.5 1134.93,1465.5 1139.5,1407.5C 1185.54,1410.43 1231.54,1410.1 1277.5,1406.5C 1279.52,1429 1281.52,1451.5 1283.5,1474C 1283.17,1474.83 1282.83,1475.67 1282.5,1476.5C 1256.53,1487.93 1229.53,1491.93 1201.5,1488.5C 1194.84,1533.07 1188.84,1577.74 1183.5,1622.5 Z"/></g>
<g><path style="opacity:1" fill="#cf7959" d="M 638.5,1430.5 C 662.116,1479.25 700.783,1508.09 754.5,1517C 819.209,1531.32 881.542,1524.49 941.5,1496.5C 941.517,1504.8 939.85,1512.8 936.5,1520.5C 936.44,1519.96 936.107,1519.62 935.5,1519.5C 914.231,1528.64 892.231,1535.48 869.5,1540C 867.509,1540.37 865.842,1541.21 864.5,1542.5C 851.594,1538.91 839.261,1540.24 827.5,1546.5C 787.894,1546.3 749.227,1539.8 711.5,1527C 662.767,1506.1 631.767,1469.93 618.5,1418.5C 616.955,1417.55 615.288,1417.21 613.5,1417.5C 619.662,1416.07 625.995,1415.24 632.5,1415C 634.796,1420.06 636.796,1425.22 638.5,1430.5 Z"/></g>
<g><path style="opacity:1" fill="#e58c6c" d="M 613.5,1417.5 C 615.288,1417.21 616.955,1417.55 618.5,1418.5C 631.767,1469.93 662.767,1506.1 711.5,1527C 749.227,1539.8 787.894,1546.3 827.5,1546.5C 823.348,1549.42 819.348,1552.58 815.5,1556C 817.976,1555.25 820.309,1553.92 822.5,1552C 831.851,1546.77 841.851,1544.77 852.5,1546C 880.816,1554.22 908.482,1564.22 935.5,1576C 928.185,1583.6 926.019,1592.44 929,1602.5C 932.839,1581.97 945.339,1571.97 966.5,1572.5C 989.601,1574.04 1000.77,1586.37 1000,1609.5C 998.986,1614.52 997.152,1619.19 994.5,1623.5C 910.836,1624.5 827.169,1624.83 743.5,1624.5C 750.08,1598.16 740.413,1580.99 714.5,1573C 706.436,1572.14 698.436,1572.47 690.5,1574C 686.385,1575.22 682.718,1577.22 679.5,1580C 678,1580.17 676.5,1580.33 675,1580.5C 665.124,1579.02 655.291,1577.36 645.5,1575.5C 645.145,1542.33 629.811,1519.16 599.5,1506C 559.926,1494.54 530.759,1507.04 512,1543.5C 511.5,1529.34 505,1518.84 492.5,1512C 487.754,1509.73 482.754,1508.56 477.5,1508.5C 478.065,1496.54 481.232,1485.54 487,1475.5C 477.447,1483.98 472.614,1494.64 472.5,1507.5C 468.414,1507.88 464.414,1508.72 460.5,1510C 473.594,1509.39 485.26,1513.06 495.5,1521C 504.423,1531.08 505.757,1542.08 499.5,1554C 530.879,1555.28 557.045,1567.44 578,1590.5C 590.746,1606.24 597.246,1624.24 597.5,1644.5C 597.339,1652.3 596.339,1659.96 594.5,1667.5C 592.977,1645.13 581.311,1630.96 559.5,1625C 546.209,1623.25 532.876,1621.92 519.5,1621C 513.173,1619.53 507.173,1617.2 501.5,1614C 497.322,1610.49 493.155,1606.99 489,1603.5C 471.293,1609.35 453.46,1609.85 435.5,1605C 412.932,1595.08 399.099,1577.91 394,1553.5C 392.131,1544.92 390.965,1536.25 390.5,1527.5C 394.158,1503.02 405.492,1482.85 424.5,1467C 451.013,1447.95 480.68,1439.95 513.5,1443C 519.484,1437.67 526.151,1433.34 533.5,1430C 559.023,1418.94 585.69,1414.78 613.5,1417.5 Z"/></g>
<g><path style="opacity:1" fill="#e9d4d7" d="M 1520.5,1472.5 C 1525.21,1472.2 1526.88,1474.2 1525.5,1478.5C 1522.04,1482.77 1519.37,1482.44 1517.5,1477.5C 1517.77,1475.31 1518.77,1473.64 1520.5,1472.5 Z"/></g>
<g><path style="opacity:1" fill="#e8d3d6" d="M 1506.5,1482.5 C 1510.51,1482.01 1512.34,1483.68 1512,1487.5C 1508.8,1491.69 1504.63,1493.52 1499.5,1493C 1498.45,1491.61 1498.28,1490.11 1499,1488.5C 1501.48,1486.36 1503.98,1484.36 1506.5,1482.5 Z"/></g>
<g><path style="opacity:1" fill="#423a66" d="M 1471.5,1623.5 C 1399,1623.83 1326.66,1623.5 1254.5,1622.5C 1248.51,1580.23 1242.84,1537.89 1237.5,1495.5C 1253.3,1494.34 1268.64,1491.01 1283.5,1485.5C 1284.28,1486.73 1284.78,1488.06 1285,1489.5C 1287.23,1520.2 1289.73,1550.87 1292.5,1581.5C 1352.66,1577.78 1410.33,1563.78 1465.5,1539.5C 1468.06,1567.46 1470.06,1595.46 1471.5,1623.5 Z"/></g>
<g><path style="opacity:1" fill="#e6d0d3" d="M 960.5,1486.5 C 962.522,1488.42 962.856,1490.59 961.5,1493C 958.319,1493.6 955.319,1493.1 952.5,1491.5C 952.5,1491.17 952.5,1490.83 952.5,1490.5C 955.395,1489.6 958.062,1488.27 960.5,1486.5 Z"/></g>
<g><path style="opacity:1" fill="#e8d3d6" d="M 1487.5,1494.5 C 1492.21,1494.2 1493.88,1496.2 1492.5,1500.5C 1488.91,1503.48 1484.91,1504.98 1480.5,1505C 1479.42,1503.27 1479.26,1501.44 1480,1499.5C 1482.48,1497.69 1484.98,1496.02 1487.5,1494.5 Z"/></g>
<g><path style="opacity:1" fill="#e8d3d6" d="M 968.5,1495.5 C 972.643,1496.24 976.31,1498.07 979.5,1501C 981.15,1505.69 979.484,1507.69 974.5,1507C 972.359,1505.69 970.359,1504.19 968.5,1502.5C 967.286,1500.14 967.286,1497.81 968.5,1495.5 Z"/></g>
<g><path style="opacity:1" fill="#cbe5f6" d="M 1246.5,1621.5 C 1246.5,1622.83 1246.5,1624.17 1246.5,1625.5C 1227.47,1626.15 1208.8,1625.49 1190.5,1623.5C 1196.58,1581.9 1202.24,1540.23 1207.5,1498.5C 1214.83,1498.5 1222.17,1498.5 1229.5,1498.5C 1235.23,1539.5 1240.89,1580.5 1246.5,1621.5 Z"/></g>
<g><path style="opacity:1" fill="#e8d3d6" d="M 1467.5,1505.5 C 1472,1505.16 1473.83,1507.16 1473,1511.5C 1469.46,1514.03 1465.63,1515.53 1461.5,1516C 1459.68,1514.53 1459.18,1512.7 1460,1510.5C 1462.48,1508.69 1464.98,1507.02 1467.5,1505.5 Z"/></g>
<g><path style="opacity:1" fill="#e9d3d6" d="M 987.5,1508.5 C 991.604,1508.88 995.271,1510.38 998.5,1513C 1000.83,1518.33 999.167,1520.33 993.5,1519C 989.942,1517.57 987.276,1515.24 985.5,1512C 985.978,1510.7 986.645,1509.53 987.5,1508.5 Z"/></g>
<g><path style="opacity:1" fill="#e8d3d6" d="M 1446.5,1515.5 C 1451.01,1514.53 1453.17,1516.19 1453,1520.5C 1449.43,1523.8 1445.27,1525.3 1440.5,1525C 1438.79,1523.87 1438.29,1522.37 1439,1520.5C 1441.48,1518.69 1443.98,1517.02 1446.5,1515.5 Z"/></g>
<g><path style="opacity:1" fill="#cae3f4" d="M 951.5,1514.5 C 955.19,1518.35 959.357,1521.68 964,1524.5C 963.834,1532.5 963.334,1540.5 962.5,1548.5C 962.5,1551.83 962.5,1555.17 962.5,1558.5C 952.658,1555.9 943.325,1552.24 934.5,1547.5C 940.008,1536.15 944.675,1524.49 948.5,1512.5C 949.518,1513.19 950.518,1513.86 951.5,1514.5 Z"/></g>
<g><path style="opacity:1" fill="#e8d4d6" d="M 1006.5,1519.5 C 1010.98,1519.72 1014.98,1521.22 1018.5,1524C 1020.27,1527.42 1019.27,1529.59 1015.5,1530.5C 1012.72,1529.61 1010.05,1528.44 1007.5,1527C 1005.29,1524.76 1004.95,1522.26 1006.5,1519.5 Z"/></g>
<g><path style="opacity:1" fill="#e9d4d7" d="M 1426.5,1523.5 C 1431,1523.16 1432.83,1525.16 1432,1529.5C 1428.25,1532.31 1424.09,1533.47 1419.5,1533C 1417.79,1531.87 1417.29,1530.37 1418,1528.5C 1420.75,1526.54 1423.58,1524.88 1426.5,1523.5 Z"/></g>
<g><path style="opacity:1" fill="#e8d3d6" d="M 1026.5,1529.5 C 1030.91,1529.2 1034.91,1530.37 1038.5,1533C 1039.58,1534.73 1039.74,1536.56 1039,1538.5C 1033.95,1539.82 1029.61,1538.48 1026,1534.5C 1025.36,1532.73 1025.53,1531.07 1026.5,1529.5 Z"/></g>
<g><path style="opacity:1" fill="#e8d3d6" d="M 1403.5,1531.5 C 1409.11,1530.08 1411.28,1532.08 1410,1537.5C 1406.14,1539.84 1401.97,1540.67 1397.5,1540C 1396.45,1538.61 1396.28,1537.11 1397,1535.5C 1399.01,1533.75 1401.18,1532.42 1403.5,1531.5 Z"/></g>
<g><path style="opacity:1" fill="#e9d4d7" d="M 1382.5,1537.5 C 1387.5,1536.67 1389.67,1538.67 1389,1543.5C 1384.86,1546.16 1380.36,1547 1375.5,1546C 1374.45,1544.61 1374.28,1543.11 1375,1541.5C 1377.26,1539.5 1379.76,1538.17 1382.5,1537.5 Z"/></g>
<g><path style="opacity:1" fill="#e8d3d6" d="M 1048.5,1537.5 C 1052.31,1538.16 1055.98,1539.33 1059.5,1541C 1060.58,1542.73 1060.74,1544.56 1060,1546.5C 1056.07,1547.54 1052.24,1547.04 1048.5,1545C 1045.91,1542.51 1045.91,1540.01 1048.5,1537.5 Z"/></g>
<g><path style="opacity:1" fill="#e8d3d6" d="M 1360.5,1542.5 C 1367,1542.14 1368.67,1544.64 1365.5,1550C 1361.82,1550.72 1358.16,1551.05 1354.5,1551C 1352.38,1549.48 1352.05,1547.64 1353.5,1545.5C 1355.76,1544.13 1358.1,1543.13 1360.5,1542.5 Z"/></g>
<g><path style="opacity:1" fill="#e9d4d7" d="M 1069.5,1544.5 C 1074,1544.95 1078.17,1546.28 1082,1548.5C 1083.14,1551.86 1081.97,1553.86 1078.5,1554.5C 1075.53,1553.57 1072.53,1552.73 1069.5,1552C 1066.91,1549.51 1066.91,1547.01 1069.5,1544.5 Z"/></g>
<g><path style="opacity:1" fill="#e8d4d6" d="M 1338.5,1546.5 C 1345,1546.14 1346.67,1548.64 1343.5,1554C 1339.8,1554.59 1336.13,1554.92 1332.5,1555C 1330.68,1553.53 1330.18,1551.7 1331,1549.5C 1333.38,1548.03 1335.88,1547.03 1338.5,1546.5 Z"/></g>
<g><path style="opacity:1" fill="#e8d3d7" d="M 1309.5,1549.5 C 1313.51,1549.33 1317.51,1549.5 1321.5,1550C 1323.44,1553.69 1322.44,1556.02 1318.5,1557C 1315.5,1557.67 1312.5,1557.67 1309.5,1557C 1308.22,1554.5 1308.22,1552 1309.5,1549.5 Z"/></g>
<g><path style="opacity:1" fill="#e8d3d6" d="M 1091.5,1550.5 C 1095.69,1550.39 1099.69,1551.23 1103.5,1553C 1105.27,1556.42 1104.27,1558.59 1100.5,1559.5C 1097.07,1558.99 1093.74,1558.15 1090.5,1557C 1089.14,1554.59 1089.48,1552.42 1091.5,1550.5 Z"/></g>
<g><path style="opacity:1" fill="#da7b5b" d="M 390.5,1527.5 C 390.965,1536.25 392.131,1544.92 394,1553.5C 399.099,1577.91 412.932,1595.08 435.5,1605C 453.46,1609.85 471.293,1609.35 489,1603.5C 493.155,1606.99 497.322,1610.49 501.5,1614C 507.173,1617.2 513.173,1619.53 519.5,1621C 532.876,1621.92 546.209,1623.25 559.5,1625C 581.311,1630.96 592.977,1645.13 594.5,1667.5C 593.644,1671.57 592.477,1675.57 591,1679.5C 588.936,1680.59 586.769,1680.76 584.5,1680C 577.721,1661.58 565.054,1648.91 546.5,1642C 537.739,1638.56 528.739,1635.89 519.5,1634C 504.531,1632.1 489.531,1630.43 474.5,1629C 447.726,1626.44 425.059,1615.61 406.5,1596.5C 391.224,1575.73 385.891,1552.73 390.5,1527.5 Z"/></g>
<g><path style="opacity:1" fill="#a79496" d="M 306.5,1698.5 C 309.833,1698.5 313.167,1698.5 316.5,1698.5C 316.5,1739.5 316.5,1780.5 316.5,1821.5C 315.501,1781 315.168,1740.34 315.5,1699.5C 312.287,1699.81 309.287,1699.48 306.5,1698.5 Z"/></g>
<g><path style="opacity:1" fill="#a89597" d="M 1692.5,1698.5 C 1689.71,1699.48 1686.71,1699.81 1683.5,1699.5C 1683.83,1740.34 1683.5,1781 1682.5,1821.5C 1682.5,1780.5 1682.5,1739.5 1682.5,1698.5C 1685.83,1698.5 1689.17,1698.5 1692.5,1698.5 Z"/></g>
<g><path style="opacity:1" fill="#512729" d="M 643.5,1421.5 C 665.883,1471.24 704.216,1500.57 758.5,1509.5C 771.752,1511.79 785.086,1513.63 798.5,1515C 852.053,1518.31 902.72,1507.81 950.5,1483.5C 951.589,1485.12 953.256,1485.95 955.5,1486C 954.062,1486.22 952.729,1486.72 951.5,1487.5C 952.127,1488.42 952.461,1489.42 952.5,1490.5C 952.5,1490.83 952.5,1491.17 952.5,1491.5C 949.607,1496.78 949.941,1501.78 953.5,1506.5C 953.047,1507.46 952.381,1508.29 951.5,1509C 952.807,1510.94 952.807,1512.78 951.5,1514.5C 950.518,1513.86 949.518,1513.19 948.5,1512.5C 944.675,1524.49 940.008,1536.15 934.5,1547.5C 943.325,1552.24 952.658,1555.9 962.5,1558.5C 962.5,1555.17 962.5,1551.83 962.5,1548.5C 963.931,1548.88 964.764,1549.88 965,1551.5C 965.232,1547.45 965.732,1543.45 966.5,1539.5C 964.34,1537.91 964.173,1536.24 966,1534.5C 966.811,1535.96 967.645,1536.29 968.5,1535.5C 967.893,1533.53 967.893,1531.37 968.5,1529C 968.095,1528.05 967.428,1527.39 966.5,1527C 968.076,1526.56 969.41,1525.73 970.5,1524.5C 972.002,1525.08 973.335,1525.92 974.5,1527C 973.747,1528.49 972.914,1528.65 972,1527.5C 971.355,1528.65 970.522,1529.65 969.5,1530.5C 970.167,1531.5 970.833,1532.5 971.5,1533.5C 970.923,1536.41 969.757,1539.41 968,1542.5C 967.346,1541.3 966.846,1541.3 966.5,1542.5C 967.009,1546.04 967.343,1549.54 967.5,1553C 966.167,1553 964.833,1553 963.5,1553C 964.112,1554.3 964.446,1555.47 964.5,1556.5C 965.82,1554.73 967.32,1554.4 969,1555.5C 969.186,1558.04 969.686,1560.37 970.5,1562.5C 976.375,1564.8 982.375,1566.8 988.5,1568.5C 993.734,1566.7 999.068,1565.2 1004.5,1564C 1013.11,1562.88 1021.45,1563.88 1029.5,1567C 1052.15,1578.83 1059.49,1596.99 1051.5,1621.5C 1050.96,1621.56 1050.62,1621.89 1050.5,1622.5C 1094.66,1623.83 1138.66,1623.83 1182.5,1622.5C 1182.83,1622.5 1183.17,1622.5 1183.5,1622.5C 1185.74,1624 1185.74,1625.33 1183.5,1626.5C 1185.55,1627.66 1187.55,1627.5 1189.5,1626C 1185.67,1624.85 1184.84,1622.68 1187,1619.5C 1187.33,1621.17 1187.67,1622.83 1188,1624.5C 1188.33,1623.5 1188.67,1622.5 1189,1621.5C 1189.28,1622.42 1189.78,1623.08 1190.5,1623.5C 1208.8,1625.49 1227.47,1626.15 1246.5,1625.5C 1246.5,1624.17 1246.5,1622.83 1246.5,1621.5C 1248.35,1622.7 1249.35,1622.03 1249.5,1619.5C 1249.26,1616.94 1248.76,1616.94 1248,1619.5C 1247.19,1617.58 1246.69,1615.58 1246.5,1613.5C 1247.99,1608.18 1248.49,1608.18 1248,1613.5C 1248.67,1614.83 1249.33,1614.83 1250,1613.5C 1250.37,1614.42 1250.87,1615.25 1251.5,1616C 1250.29,1619.01 1251.29,1621.18 1254.5,1622.5C 1326.66,1623.5 1399,1623.83 1471.5,1623.5C 1472.88,1623.04 1473.55,1622.04 1473.5,1620.5C 1472.05,1618.39 1472.55,1616.73 1475,1615.5C 1474.75,1618.13 1474.75,1620.8 1475,1623.5C 1476,1618.17 1477,1618.17 1478,1623.5C 1478.33,1621.83 1478.67,1620.17 1479,1618.5C 1479.21,1620.06 1479.71,1621.39 1480.5,1622.5C 1480.5,1623.5 1480.5,1624.5 1480.5,1625.5C 1552.17,1625.33 1623.83,1625.5 1695.5,1626C 1702.76,1628.92 1707.59,1634.09 1710,1641.5C 1710.67,1655.17 1710.67,1668.83 1710,1682.5C 1707.78,1691.89 1701.95,1697.22 1692.5,1698.5C 1689.17,1698.5 1685.83,1698.5 1682.5,1698.5C 1682.5,1739.5 1682.5,1780.5 1682.5,1821.5C 1227.17,1822.83 771.833,1822.83 316.5,1821.5C 316.5,1780.5 316.5,1739.5 316.5,1698.5C 313.167,1698.5 309.833,1698.5 306.5,1698.5C 297.051,1697.22 291.217,1691.89 289,1682.5C 288.333,1668.83 288.333,1655.17 289,1641.5C 291.408,1634.09 296.242,1628.92 303.5,1626C 345.833,1625.67 388.167,1625.33 430.5,1625C 425.76,1622.64 421.426,1619.81 417.5,1616.5C 416.852,1614.91 416.352,1613.25 416,1611.5C 415.667,1611.83 415.333,1612.17 415,1612.5C 414.311,1611.64 413.478,1610.98 412.5,1610.5C 410.425,1608.41 410.425,1606.58 412.5,1605C 410.623,1602.89 408.29,1601.56 405.5,1601C 405.871,1599.4 406.205,1597.9 406.5,1596.5C 425.059,1615.61 447.726,1626.44 474.5,1629C 489.531,1630.43 504.531,1632.1 519.5,1634C 528.739,1635.89 537.739,1638.56 546.5,1642C 565.054,1648.91 577.721,1661.58 584.5,1680C 586.769,1680.76 588.936,1680.59 591,1679.5C 592.477,1675.57 593.644,1671.57 594.5,1667.5C 596.339,1659.96 597.339,1652.3 597.5,1644.5C 597.246,1624.24 590.746,1606.24 578,1590.5C 557.045,1567.44 530.879,1555.28 499.5,1554C 505.757,1542.08 504.423,1531.08 495.5,1521C 485.26,1513.06 473.594,1509.39 460.5,1510C 464.414,1508.72 468.414,1507.88 472.5,1507.5C 472.614,1494.64 477.447,1483.98 487,1475.5C 481.232,1485.54 478.065,1496.54 477.5,1508.5C 482.754,1508.56 487.754,1509.73 492.5,1512C 505,1518.84 511.5,1529.34 512,1543.5C 530.759,1507.04 559.926,1494.54 599.5,1506C 629.811,1519.16 645.145,1542.33 645.5,1575.5C 655.291,1577.36 665.124,1579.02 675,1580.5C 676.5,1580.33 678,1580.17 679.5,1580C 682.718,1577.22 686.385,1575.22 690.5,1574C 698.436,1572.47 706.436,1572.14 714.5,1573C 740.413,1580.99 750.08,1598.16 743.5,1624.5C 827.169,1624.83 910.836,1624.5 994.5,1623.5C 997.152,1619.19 998.986,1614.52 1000,1609.5C 1000.77,1586.37 989.601,1574.04 966.5,1572.5C 945.339,1571.97 932.839,1581.97 929,1602.5C 926.019,1592.44 928.185,1583.6 935.5,1576C 908.482,1564.22 880.816,1554.22 852.5,1546C 841.851,1544.77 831.851,1546.77 822.5,1552C 820.309,1553.92 817.976,1555.25 815.5,1556C 819.348,1552.58 823.348,1549.42 827.5,1546.5C 839.261,1540.24 851.594,1538.91 864.5,1542.5C 881.88,1548.29 899.213,1554.29 916.5,1560.5C 925.819,1548.53 932.486,1535.19 936.5,1520.5C 939.85,1512.8 941.517,1504.8 941.5,1496.5C 881.542,1524.49 819.209,1531.32 754.5,1517C 700.783,1508.09 662.116,1479.25 638.5,1430.5C 639.75,1430.42 640.583,1429.76 641,1428.5C 641.333,1429.17 641.667,1429.83 642,1430.5C 642.502,1427.49 643.002,1424.49 643.5,1421.5 Z"/></g>
<g><path style="opacity:1" fill="#897b78" d="M 1674.5,1722.5 C 1224.5,1722.5 774.5,1722.5 324.5,1722.5C 324.5,1714.5 324.5,1706.5 324.5,1698.5C 774.5,1698.5 1224.5,1698.5 1674.5,1698.5C 1674.5,1706.5 1674.5,1714.5 1674.5,1722.5 Z"/></g>
<g><path style="opacity:1" fill="#ae9f9a" d="M 306.5,1633.5 C 356.834,1633.33 407.168,1633.5 457.5,1634C 462.415,1635.42 467.415,1636.42 472.5,1637C 494.607,1637.65 516.273,1640.98 537.5,1647C 557.106,1652.94 570.606,1665.44 578,1684.5C 584.946,1690.05 591.613,1689.72 598,1683.5C 603.606,1667.33 606.106,1650.66 605.5,1633.5C 967.5,1633.33 1329.5,1633.5 1691.5,1634C 1696.57,1635.41 1700.07,1638.57 1702,1643.5C 1702.17,1649.5 1702.33,1655.5 1702.5,1661.5C 1702.61,1668.58 1702.11,1675.58 1701,1682.5C 1699.41,1686.43 1696.57,1688.93 1692.5,1690C 1461.33,1690.17 1230.17,1690.33 999,1690.5C 767.833,1690.33 536.667,1690.17 305.5,1690C 301.132,1687.77 298.298,1684.27 297,1679.5C 296.333,1667.5 296.333,1655.5 297,1643.5C 299.022,1638.98 302.189,1635.65 306.5,1633.5 Z"/></g>
<g><path style="opacity:1" fill="#463456" d="M 1051.5,1621.5 C 1095,1622.5 1138.66,1622.83 1182.5,1622.5C 1138.66,1623.83 1094.66,1623.83 1050.5,1622.5C 1050.62,1621.89 1050.96,1621.56 1051.5,1621.5 Z"/></g>
<g><path style="opacity:1" fill="#ef9473" d="M 959.5,1576.5 C 974.421,1574.33 985.587,1579.66 993,1592.5C 995.29,1604.09 990.79,1611.59 979.5,1615C 966.955,1618.24 956.455,1615.07 948,1605.5C 942.351,1596.27 943.517,1588.1 951.5,1581C 954.099,1579.2 956.766,1577.7 959.5,1576.5 Z"/></g>
<g><path style="opacity:1" fill="#ce7858" d="M 1003.5,1572.5 C 1021.66,1569.37 1035.16,1575.7 1044,1591.5C 1048.46,1603.25 1046.96,1614.08 1039.5,1624C 1033.27,1625.13 1026.94,1625.63 1020.5,1625.5C 1014.83,1625.17 1009.17,1624.83 1003.5,1624.5C 1012.1,1606.5 1009.76,1590.16 996.5,1575.5C 998.764,1574.13 1001.1,1573.13 1003.5,1572.5 Z"/></g>
<g><path style="opacity:1" fill="#cc7658" d="M 929.5,1555.5 C 937.812,1558.65 946.146,1561.82 954.5,1565C 949.921,1566.98 945.254,1568.31 940.5,1569C 935.775,1567.21 931.275,1565.04 927,1562.5C 927.237,1560.01 928.071,1557.68 929.5,1555.5 Z"/></g>
<g><path style="opacity:1" fill="#e38b6b" d="M 936.5,1520.5 C 932.486,1535.19 925.819,1548.53 916.5,1560.5C 899.213,1554.29 881.88,1548.29 864.5,1542.5C 865.842,1541.21 867.509,1540.37 869.5,1540C 892.231,1535.48 914.231,1528.64 935.5,1519.5C 936.107,1519.62 936.44,1519.96 936.5,1520.5 Z"/></g>
<g><path style="opacity:1" fill="#e58c6c" d="M 714.5,1581.5 C 714.53,1582.5 714.03,1583.16 713,1583.5C 704.418,1581.51 696.585,1583.01 689.5,1588C 682.231,1601.19 685.564,1610.86 699.5,1617C 712.823,1621.92 722.99,1618.42 730,1606.5C 730.532,1595.11 725.699,1587.61 715.5,1584C 716.252,1583.33 716.586,1582.5 716.5,1581.5C 735.591,1590.03 741.925,1604.36 735.5,1624.5C 697.165,1624.67 658.832,1624.5 620.5,1624C 614.472,1623.83 608.472,1623.33 602.5,1622.5C 595.001,1592 577.001,1570.16 548.5,1557C 536.349,1552.71 524.015,1549.21 511.5,1546.5C 526.28,1524.12 546.946,1511.45 573.5,1508.5C 607.407,1510.86 628.241,1528.52 636,1561.5C 636.521,1568.85 636.355,1576.18 635.5,1583.5C 647.868,1584.89 660.201,1586.55 672.5,1588.5C 667.887,1595.28 667.387,1602.28 671,1609.5C 670.668,1597.66 675.835,1589.16 686.5,1584C 695.653,1579.31 704.987,1578.48 714.5,1581.5 Z"/></g>
<g><path style="opacity:1" fill="#ef9472" d="M 714.5,1581.5 C 715.167,1581.5 715.833,1581.5 716.5,1581.5C 716.586,1582.5 716.252,1583.33 715.5,1584C 725.699,1587.61 730.532,1595.11 730,1606.5C 722.99,1618.42 712.823,1621.92 699.5,1617C 685.564,1610.86 682.231,1601.19 689.5,1588C 696.585,1583.01 704.418,1581.51 713,1583.5C 714.03,1583.16 714.53,1582.5 714.5,1581.5 Z"/></g>
<g><path style="opacity:1" fill="#af9f9a" d="M 324.5,1722.5 C 774.5,1722.5 1224.5,1722.5 1674.5,1722.5C 1674.5,1752.83 1674.5,1783.17 1674.5,1813.5C 1224.5,1813.5 774.5,1813.5 324.5,1813.5C 324.5,1783.17 324.5,1752.83 324.5,1722.5 Z"/></g>
</svg>
